<svg width="764" height="754" viewBox="0 0 764 754" fill="none" xmlns="http://www.w3.org/2000/svg">
<path d="M706.24 346.096C706.823 352.473 707.216 358.905 707.412 365.385L706.449 365.414C706.546 368.622 706.595 371.841 706.595 375.073C706.595 378.304 706.546 381.524 706.449 384.732L707.412 384.761C707.216 391.241 706.823 397.672 706.24 404.049L705.28 403.961C704.692 410.391 703.91 416.766 702.939 423.079L703.891 423.225C702.906 429.628 701.728 435.969 700.363 442.24L699.421 442.035C698.049 448.34 696.486 454.574 694.74 460.733L695.667 460.996C693.904 467.217 691.954 473.36 689.823 479.421L688.914 479.101C686.778 485.177 684.459 491.17 681.966 497.071L682.853 497.447C680.339 503.396 677.648 509.254 674.785 515.014L673.922 514.585C671.057 520.349 668.021 526.014 664.819 531.574L665.654 532.055C662.434 537.646 659.047 543.132 655.501 548.505L654.697 547.974C651.155 553.34 647.453 558.594 643.597 563.728L644.368 564.307C640.496 569.462 636.471 574.498 632.298 579.407L631.564 578.783C627.402 583.679 623.094 588.449 618.645 593.086L619.34 593.753C614.88 598.402 610.279 602.918 605.544 607.294L604.89 606.587C600.174 610.946 595.325 615.166 590.35 619.24L590.96 619.986C585.979 624.064 580.872 627.998 575.645 631.779L575.08 630.998C569.882 634.759 564.564 638.369 559.134 641.822L559.652 642.635C554.222 646.087 548.681 649.383 543.035 652.515L542.568 651.672C536.96 654.784 531.247 657.733 525.437 660.515L525.853 661.384C520.057 664.159 514.163 666.768 508.178 669.204L507.815 668.311C501.883 670.725 495.862 672.969 489.757 675.037L490.067 675.949C483.984 678.009 477.82 679.894 471.579 681.598L471.325 680.669C465.151 682.355 458.902 683.863 452.584 685.188L452.781 686.131C446.502 687.448 440.156 688.584 433.747 689.533L433.606 688.58C427.287 689.516 420.909 690.27 414.475 690.837L414.56 691.797C408.181 692.359 401.748 692.737 395.268 692.926L395.24 691.963C392.031 692.057 388.811 692.104 385.579 692.104C382.347 692.104 379.127 692.057 375.918 691.963L375.89 692.926C369.41 692.737 362.977 692.359 356.598 691.797L356.683 690.837C350.249 690.27 343.87 689.516 337.552 688.58L337.411 689.533C331.002 688.584 324.655 687.448 318.376 686.131L318.574 685.188C312.256 683.863 306.007 682.355 299.833 680.669L299.579 681.598C293.338 679.894 287.174 678.009 281.091 675.949L281.4 675.037C275.296 672.969 269.275 670.725 263.343 668.311L262.98 669.204C256.995 666.768 251.101 664.159 245.305 661.384L245.721 660.515C239.911 657.733 234.198 654.784 228.59 651.672L228.123 652.515C222.476 649.383 216.935 646.087 211.506 642.635L212.023 641.822C206.594 638.369 201.276 634.759 196.078 630.998L195.513 631.779C190.286 627.998 185.179 624.064 180.198 619.986L180.808 619.24C175.833 615.166 170.983 610.946 166.268 606.587L165.614 607.294C160.879 602.918 156.278 598.402 151.818 593.753L152.513 593.086C148.064 588.449 143.756 583.679 139.594 578.783L138.86 579.407C134.687 574.498 130.662 569.462 126.79 564.307L127.561 563.728C123.705 558.594 120.003 553.34 116.461 547.974L115.657 548.505C112.11 543.132 108.724 537.646 105.504 532.055L106.339 531.574C103.137 526.014 100.1 520.349 97.2358 514.585L96.3729 515.014C93.5101 509.254 90.8184 503.396 88.3046 497.447L89.1922 497.071C86.6985 491.17 84.3803 485.177 82.244 479.101L81.335 479.421C79.2043 473.36 77.254 467.217 75.4905 460.996L76.4176 460.733C74.6716 454.574 73.1092 448.34 71.7366 442.035L70.7951 442.24C69.4296 435.969 68.2515 429.628 67.2667 423.225L68.2191 423.079C67.2481 416.766 66.4656 410.391 65.8775 403.961L64.9179 404.049C64.3347 397.672 63.942 391.241 63.7457 384.761L64.7089 384.732C64.6117 381.524 64.5627 378.304 64.5627 375.073C64.5627 371.841 64.6117 368.622 64.7089 365.414L63.7457 365.384C63.942 358.905 64.3347 352.473 64.9179 346.096L65.8775 346.184C66.4656 339.754 67.2481 333.38 68.2191 327.066L67.2667 326.92C68.2515 320.517 69.4296 314.177 70.7951 307.905L71.7366 308.11C73.1092 301.806 74.6716 295.571 76.4176 289.412L75.4905 289.149C77.254 282.929 79.2043 276.785 81.335 270.725L82.2441 271.044C84.3803 264.968 86.6985 258.976 89.1922 253.074L88.3046 252.699C90.8184 246.749 93.5101 240.891 96.3729 235.131L97.2359 235.56C100.1 229.796 103.137 224.131 106.339 218.571L105.504 218.09C108.724 212.499 112.11 207.014 115.657 201.641L116.461 202.171C120.003 196.805 123.705 191.552 127.561 186.417L126.79 185.839C130.662 180.683 134.687 175.648 138.86 170.738L139.594 171.362C143.756 166.466 148.064 161.697 152.513 157.06L151.818 156.392C156.278 151.743 160.879 147.227 165.614 142.851L166.268 143.559C170.983 139.2 175.833 134.98 180.808 130.905L180.198 130.16C185.179 126.081 190.286 122.148 195.513 118.366L196.078 119.147C201.276 115.386 206.594 111.776 212.023 108.324L211.506 107.511C216.935 104.058 222.476 100.763 228.123 97.6304L228.59 98.473C234.198 95.3619 239.911 92.4123 245.721 89.6306L245.305 88.7615C251.101 85.9862 256.995 83.3775 262.98 80.9418L263.343 81.8343C269.275 79.42 275.296 77.1761 281.4 75.1088L281.091 74.1961C287.174 72.1363 293.338 70.2513 299.579 68.5473L299.833 69.4769C306.007 67.7908 312.256 66.2824 318.574 64.9576L318.376 64.0145C324.655 62.6977 331.002 61.5618 337.411 60.6123L337.552 61.5656C343.87 60.6294 350.249 59.8752 356.683 59.3084L356.598 58.3485C362.977 57.7865 369.41 57.4082 375.89 57.219L375.918 58.1822C379.127 58.0886 382.347 58.0414 385.579 58.0414C388.811 58.0414 392.031 58.0886 395.24 58.1823L395.268 57.219C401.748 57.4082 408.181 57.7865 414.56 58.3485L414.475 59.3084C420.909 59.8752 427.287 60.6294 433.606 61.5656L433.747 60.6123C440.156 61.5618 446.502 62.6977 452.781 64.0145L452.584 64.9576C458.902 66.2824 465.151 67.7908 471.325 69.4769L471.579 68.5473C477.82 70.2514 483.984 72.1363 490.067 74.1961L489.757 75.1088C495.862 77.1761 501.883 79.42 507.815 81.8343L508.178 80.9418C514.163 83.3775 520.057 85.9862 525.853 88.7615L525.437 89.6307C531.247 92.4123 536.96 95.3619 542.568 98.473L543.035 97.6304C548.681 100.763 554.222 104.058 559.652 107.511L559.134 108.324C564.564 111.776 569.882 115.386 575.08 119.147L575.645 118.366C580.872 122.148 585.979 126.081 590.96 130.16L590.35 130.905C595.325 134.98 600.174 139.2 604.89 143.559L605.544 142.851C610.279 147.227 614.88 151.743 619.34 156.392L618.645 157.06C623.094 161.697 627.402 166.466 631.564 171.362L632.298 170.738C636.471 175.648 640.496 180.683 644.368 185.839L643.597 186.417C647.453 191.552 651.155 196.805 654.697 202.171L655.501 201.641C659.047 207.014 662.434 212.499 665.654 218.09L664.819 218.571C668.021 224.131 671.057 229.797 673.922 235.56L674.785 235.131C677.648 240.891 680.339 246.749 682.853 252.699L681.966 253.074C684.459 258.976 686.778 264.968 688.914 271.044L689.823 270.725C691.954 276.785 693.904 282.929 695.667 289.149L694.74 289.412C696.486 295.571 698.049 301.806 699.421 308.11L700.363 307.905C701.728 314.177 702.906 320.517 703.891 326.92L702.939 327.066C703.91 333.38 704.692 339.754 705.28 346.184L706.24 346.096Z" stroke="#D8BFA0" stroke-width="1.92724" stroke-dasharray="19.27 19.27"/>
<path d="M527.072 28.292C620.481 66.3099 695.266 139.871 734.159 231.919L733.107 232.364C751.917 276.884 762.306 325.743 762.306 377C762.306 428.258 751.917 477.116 733.107 521.636L734.159 522.081C695.266 614.129 620.481 687.69 527.072 725.708L526.642 724.65C481.976 742.829 433.037 752.858 381.724 752.858C330.411 752.858 281.473 742.829 236.807 724.65L236.376 725.708C142.968 687.69 68.1821 614.129 29.2896 522.081L30.342 521.636C11.5312 477.116 1.14242 428.257 1.14242 377C1.14242 325.742 11.5312 276.884 30.342 232.364L29.2896 231.919C68.1822 139.871 142.968 66.3099 236.376 28.292L236.807 29.3502C281.473 11.1709 330.411 1.14242 381.724 1.14242C433.037 1.14242 481.976 11.1709 526.642 29.3502L527.072 28.292Z" stroke="#D8BFA0" stroke-width="2.28485" stroke-dasharray="385.45 385.45"/>
</svg>
