<svg width="22" height="27" viewBox="0 0 22 27" fill="none" xmlns="http://www.w3.org/2000/svg">
<path fill-rule="evenodd" clip-rule="evenodd" d="M11.9891 20.4454V16.745H6.36769C4.19466 16.745 2.35232 18.3429 2.04501 20.4941C1.63783 23.3443 4.05233 25.8015 6.90929 25.4444L7.65878 25.3507C10.1326 25.0415 11.9891 22.9385 11.9891 20.4454Z" fill="white"/>
<path d="M11.9891 8.68058V7.85869C11.9891 5.68352 11.9891 4.59594 12.6261 3.84394C13.2632 3.09195 14.3359 2.91315 16.4815 2.55555L19.6491 2.02762C19.8316 1.9972 19.9229 1.98199 19.9722 2.03533C20.0214 2.08867 19.999 2.17844 19.9541 2.35798L18.7507 7.17147C18.7307 7.25168 18.7206 7.29178 18.6924 7.31867C18.6642 7.34555 18.6237 7.35366 18.5426 7.36987L11.9891 8.68058ZM11.9891 8.68058V16.745M11.9891 16.745V20.4454C11.9891 22.9385 10.1326 25.0415 7.65878 25.3507L6.90929 25.4444C4.05233 25.8015 1.63783 23.3443 2.04501 20.4941C2.35232 18.3429 4.19466 16.745 6.36769 16.745H11.9891Z" stroke="white" stroke-width="2.68814"/>
</svg>
