<svg xmlns="http://www.w3.org/2000/svg" width="61" height="78" viewBox="0 0 61 78" fill="none">
  <path d="M59.294 59.12H58.144C57.3385 59.0616 56.5429 58.9071 55.774 58.66C55.739 58.5943 55.6873 58.5391 55.624 58.5C55.2484 58.3469 54.8603 58.2264 54.464 58.14C52.6214 57.3126 51.1827 55.7876 50.464 53.9C49.3002 50.2163 48.776 46.3606 48.914 42.5C48.914 42.2931 48.8318 42.0947 48.6855 41.9484C48.5393 41.8021 48.3409 41.72 48.134 41.72C47.9271 41.72 47.7287 41.8021 47.5825 41.9484C47.4362 42.0947 47.354 42.2931 47.354 42.5C47.354 43.89 47.424 45.35 47.544 46.81C47.464 47.35 47.374 47.9 47.254 48.44C46.9505 50.3182 46.3709 52.1413 45.534 53.85C44.5495 55.6291 43.0068 57.0348 41.144 57.85C39.5221 58.3928 37.8453 58.755 36.144 58.93C35.414 59.05 35.604 60.18 36.314 60.19C39.574 60.19 42.954 60.6 44.634 63.71C45.4758 65.1892 46.1467 66.7593 46.634 68.39C47.0967 70.2222 47.3517 72.1007 47.394 73.99C47.394 74.86 47.394 75.73 47.464 76.57C47.464 76.745 47.5335 76.9129 47.6573 77.0367C47.7811 77.1604 47.949 77.23 48.124 77.23C48.299 77.23 48.4669 77.1604 48.5907 77.0367C48.7145 76.9129 48.784 76.745 48.784 76.57C48.784 75.08 48.784 73.57 48.654 72.06C48.6122 69.7196 49.0371 67.3943 49.904 65.22C50.2457 64.3044 50.7729 63.4693 51.4527 62.7672C52.1324 62.0651 52.95 61.5111 53.854 61.14C55.6408 60.6938 57.4873 60.5352 59.324 60.67C59.5295 60.666 59.7251 60.5805 59.8676 60.4324C60.0102 60.2842 60.088 60.0855 60.084 59.88C60.08 59.6744 59.9946 59.4789 59.8464 59.3363C59.6982 59.1938 59.4995 59.116 59.294 59.12ZM48.774 53.37H48.684C48.6888 53.2867 48.6888 53.2032 48.684 53.12L48.774 53.37ZM44.844 57.28C44.8025 57.2344 44.7554 57.1941 44.704 57.16L44.914 56.95C44.884 57.06 44.864 57.17 44.844 57.28ZM41.924 59.28C41.8865 59.3594 41.8596 59.4435 41.844 59.53C41.5794 59.4302 41.3088 59.3467 41.034 59.28H41.924ZM48.594 64.34H48.734L48.584 64.72C48.624 64.61 48.624 64.5 48.624 64.38L48.594 64.34ZM53.824 59.4C53.8289 59.3735 53.8289 59.3464 53.824 59.32H53.934L53.824 59.4Z" fill="url(#paint0_linear_81_442)"/>
  <path d="M5.83428 14.67C7.06185 17.1717 7.66245 19.9345 7.58428 22.72C7.58428 22.895 7.65381 23.0629 7.77758 23.1867C7.90136 23.3105 8.06923 23.38 8.24427 23.38C8.41932 23.38 8.58719 23.3105 8.71096 23.1867C8.83474 23.0629 8.90428 22.895 8.90428 22.72C8.90428 21.86 8.90427 21.03 8.80427 20.21C8.75013 18.7094 8.98436 17.2123 9.49427 15.8C9.69561 15.1893 10.0244 14.6283 10.4588 14.1543C10.8932 13.6802 11.4234 13.3038 12.0143 13.05C13.1373 12.7653 14.2989 12.664 15.4543 12.75C15.6585 12.75 15.8543 12.6689 15.9987 12.5245C16.1431 12.3801 16.2243 12.1842 16.2243 11.98C16.2243 11.7758 16.1431 11.5799 15.9987 11.4355C15.8543 11.2911 15.6585 11.21 15.4543 11.21H14.5443C13.5283 11.1636 12.5487 10.8181 11.7285 10.2167C10.9083 9.61534 10.2841 8.785 9.93427 7.83C9.25385 5.54453 8.95318 3.16287 9.04428 0.779999C9.04428 0.57313 8.9621 0.374733 8.81582 0.228455C8.66954 0.0821762 8.47115 0 8.26428 0C8.05741 0 7.85901 0.0821762 7.71273 0.228455C7.56645 0.374733 7.48428 0.57313 7.48428 0.779999C7.48428 1.83 7.54428 2.96 7.65428 4.08C7.43798 5.40536 7.0127 6.68799 6.39428 7.88C5.09428 10.31 2.93427 10.75 0.464274 11.16C-0.275726 11.29 -0.0657281 12.41 0.634272 12.43C2.73427 12.44 4.77428 12.68 5.83428 14.67ZM9.11428 9.78999C9.11428 9.66999 9.11428 9.54999 9.11428 9.42999C9.16469 9.53229 9.22497 9.62943 9.29428 9.72L9.11428 9.78999ZM8.28428 7.39C8.23219 7.41499 8.18482 7.44883 8.14428 7.49001L8.23428 7.24001C8.24641 7.2914 8.26315 7.3416 8.28428 7.39ZM4.84428 11.39C4.89371 11.6401 5.03678 11.8619 5.24427 12.01C4.97069 11.8383 4.67891 11.6974 4.37428 11.59C4.62428 11.5 4.70428 11.5 4.84428 11.38V11.39Z" fill="url(#paint1_linear_81_442)"/>
  <path d="M43.394 21.7399C45.114 21.7399 46.844 21.9699 47.714 23.6099C48.7587 25.7283 49.2734 28.0686 49.214 30.4299C49.214 30.6049 49.2836 30.7728 49.4073 30.8966C49.5311 31.0204 49.699 31.0899 49.874 31.0899C50.0491 31.0899 50.2169 31.0204 50.3407 30.8966C50.4645 30.7728 50.534 30.6049 50.534 30.4299C50.534 29.6599 50.534 28.9099 50.444 28.1699C50.4033 26.9091 50.6211 25.6533 51.084 24.4799C51.2524 24.0024 51.5167 23.5645 51.8606 23.193C52.2046 22.8216 52.6209 22.5244 53.084 22.3199C54.0279 22.0827 55.003 21.995 55.974 22.0599C56.1619 22.0384 56.3352 21.9485 56.461 21.8074C56.5869 21.6664 56.6564 21.4839 56.6564 21.2949C56.6564 21.1058 56.5869 20.9234 56.461 20.7823C56.3352 20.6413 56.1619 20.5514 55.974 20.5299H55.164C54.3232 20.4869 53.5138 20.1962 52.8377 19.6944C52.1615 19.1927 51.6489 18.5022 51.364 17.7099C50.7931 15.7634 50.5431 13.7368 50.624 11.7099C50.6024 11.5195 50.5114 11.3438 50.3685 11.2162C50.2255 11.0886 50.0406 11.0181 49.849 11.0181C49.6574 11.0181 49.4725 11.0886 49.3296 11.2162C49.1867 11.3438 49.0957 11.5195 49.074 11.7099C49.074 12.6399 49.134 13.6399 49.234 14.6299C49.0253 15.7254 48.6546 16.7837 48.134 17.7699C47.014 19.7699 45.244 20.1099 43.134 20.4599C42.484 20.5999 42.694 21.7299 43.394 21.7399ZM50.584 22.1799C50.677 22.1393 50.7672 22.0925 50.854 22.0399L50.594 22.3699C50.6088 22.3074 50.6188 22.2439 50.624 22.1799H50.584ZM50.514 19.2399V19.1299L50.574 19.2299L50.514 19.2399ZM49.794 18.0699L49.694 18.0099L49.814 17.7299C49.804 17.8399 49.794 17.9499 49.794 18.0699ZM48.624 22.4999H48.824L48.884 22.8899C48.834 22.8199 48.804 22.7399 48.754 22.6599C48.704 22.5799 48.704 22.4999 48.624 22.4999Z" fill="url(#paint2_linear_81_442)"/>
  <path d="M12.7541 54.97H12.0941C11.5962 54.9335 11.1197 54.7521 10.7235 54.4483C10.3273 54.1445 10.0286 53.7314 9.86412 53.26C9.48803 51.9617 9.32922 50.6101 9.39412 49.26C9.39412 49.0531 9.31195 48.8547 9.16567 48.7084C9.01939 48.5622 8.82099 48.48 8.61412 48.48C8.40726 48.48 8.20886 48.5622 8.06258 48.7084C7.9163 48.8547 7.83413 49.0531 7.83413 49.26C7.83413 49.94 7.89412 50.66 7.98412 51.38C7.8134 52.0276 7.56492 52.6521 7.24411 53.24C6.52411 54.53 5.39411 54.74 4.05411 54.97C3.31411 55.1 3.52412 56.21 4.22412 56.24C5.30412 56.24 6.40413 56.38 6.94413 57.41C7.63452 58.8042 7.9776 60.3446 7.94413 61.9C7.94413 62.075 8.01365 62.2429 8.13742 62.3667C8.2612 62.4904 8.42907 62.56 8.60411 62.56C8.77916 62.56 8.94703 62.4904 9.0708 62.3667C9.19458 62.2429 9.26412 62.075 9.26412 61.9C9.26412 61.32 9.26413 60.75 9.19413 60.19C9.17888 59.4279 9.32543 58.6713 9.62412 57.97C9.73449 57.682 9.90093 57.4188 10.1138 57.1957C10.3266 56.9725 10.5817 56.7938 10.8641 56.67C11.4822 56.5196 12.1188 56.459 12.7541 56.49C13.7441 56.55 13.7341 55.02 12.7541 54.97Z" fill="url(#paint3_linear_81_442)"/>
  <path d="M41.184 36.0099C41.924 36.0099 42.664 36.0099 43.394 36.0099C43.5818 35.9884 43.7551 35.8986 43.881 35.7575C44.0068 35.6164 44.0764 35.434 44.0764 35.2449C44.0764 35.0559 44.0068 34.8734 43.881 34.7323C43.7551 34.5913 43.5818 34.5014 43.394 34.4799H41.884C36.784 34.1499 31.454 31.3999 29.584 26.4799C27.454 20.8599 26.994 14.4799 27.014 8.4799C26.9923 8.28953 26.9013 8.1138 26.7584 7.98621C26.6155 7.85861 26.4306 7.78809 26.239 7.78809C26.0474 7.78809 25.8625 7.85861 25.7195 7.98621C25.5766 8.1138 25.4856 8.28953 25.464 8.4799C25.464 10.3099 25.574 12.1499 25.724 13.9899C25.584 15.3099 25.394 16.6199 25.144 17.9199C24.7122 20.7502 23.8523 23.4983 22.594 26.0699C21.0879 28.8437 18.7229 31.0542 15.854 32.3699C13.334 33.4399 10.544 33.6399 7.85397 34.0899C7.12397 34.2199 7.31397 35.3599 8.02397 35.3599C12.024 35.3599 17.024 35.6099 19.814 38.9099C20.6654 40.0167 21.3743 41.2262 21.924 42.5099C23.0898 44.7715 23.9891 47.1609 24.604 49.6299C25.0302 51.7495 25.2877 53.8996 25.374 56.0599C25.374 57.6799 25.454 59.2899 25.514 60.8499C25.514 61.025 25.5835 61.1928 25.7073 61.3166C25.8311 61.4404 25.9989 61.5099 26.174 61.5099C26.349 61.5099 26.5169 61.4404 26.6407 61.3166C26.7644 61.1928 26.834 61.025 26.834 60.8499C26.834 58.6699 26.834 56.4799 26.634 54.2999C26.634 53.6332 26.654 52.9832 26.694 52.3499C27.1673 48.6599 28.4551 45.1212 30.464 41.9899C31.5095 40.1354 33.0641 38.619 34.944 37.6199C36.8951 36.7643 38.9721 36.2307 41.094 36.0399L41.184 36.0099ZM28.234 37.0099C28.2688 37.0548 28.3091 37.0951 28.354 37.1299L28.234 37.2999V37.0099ZM26.524 45.0099C26.524 45.0099 26.524 44.9299 26.524 44.8999C26.524 44.5299 26.524 44.1599 26.524 43.7799C26.6402 43.7947 26.7578 43.7947 26.874 43.7799C26.754 44.2299 26.624 44.6299 26.524 45.0299V45.0099ZM34.524 34.9499H35.164C34.824 35.0399 34.494 35.1499 34.164 35.2699C33.834 35.3899 33.684 35.4799 33.444 35.5899C33.8031 35.3586 34.1773 35.1515 34.564 34.9699L34.524 34.9499ZM26.264 18.9499C26.251 18.9226 26.2289 18.9007 26.2015 18.888C26.1742 18.8752 26.1432 18.8723 26.114 18.8799C26.114 18.7099 26.114 18.5499 26.184 18.3899C26.244 18.5999 26.274 18.7899 26.304 18.9799L26.264 18.9499ZM15.544 33.9499H15.354L15.534 33.8899C15.534 33.8899 15.624 33.9499 15.624 33.9699L15.544 33.9499Z" fill="url(#paint4_linear_81_442)"/>
  <defs>
    <linearGradient id="paint0_linear_81_442" x1="41.9761" y1="48.1571" x2="49.388" y2="72.9914" gradientUnits="userSpaceOnUse">
      <stop stop-color="#E0BA44"/>
      <stop offset="1" stop-color="white" stop-opacity="0.22"/>
    </linearGradient>
    <linearGradient id="paint1_linear_81_442" x1="4.1854" y1="4.23825" x2="9.02589" y2="20.6151" gradientUnits="userSpaceOnUse">
      <stop stop-color="#E0BA44"/>
      <stop offset="1" stop-color="white" stop-opacity="0.22"/>
    </linearGradient>
    <linearGradient id="paint2_linear_81_442" x1="46.332" y1="14.6566" x2="50.4913" y2="28.7138" gradientUnits="userSpaceOnUse">
      <stop stop-color="#E0BA44"/>
      <stop offset="1" stop-color="white" stop-opacity="0.22"/>
    </linearGradient>
    <linearGradient id="paint3_linear_81_442" x1="6.14454" y1="51.0324" x2="9.02678" y2="60.916" gradientUnits="userSpaceOnUse">
      <stop stop-color="#E0BA44"/>
      <stop offset="1" stop-color="white" stop-opacity="0.22"/>
    </linearGradient>
    <linearGradient id="paint4_linear_81_442" x1="16.8545" y1="17.5266" x2="28.1273" y2="55.0584" gradientUnits="userSpaceOnUse">
      <stop stop-color="#E0BA44"/>
      <stop offset="1" stop-color="white" stop-opacity="0.22"/>
    </linearGradient>
  </defs>
</svg>