<svg width="27" height="27" viewBox="0 0 27 27" fill="none" xmlns="http://www.w3.org/2000/svg">
<path d="M13.8651 20.8413L13.4527 19.9303L13.4527 19.9303L13.8651 20.8413ZM13.135 20.8413L13.5474 19.9303L13.5474 19.9303L13.135 20.8413ZM22.2223 9.75C22.2223 12.5734 20.5687 14.8954 18.5463 16.674C16.5347 18.4431 14.2969 19.5482 13.4527 19.9303L14.2774 21.7523C15.2013 21.3342 17.642 20.1327 19.8671 18.1758C22.0813 16.2285 24.2223 13.405 24.2223 9.75H22.2223ZM13.5001 2C18.4189 2 22.2223 5.56629 22.2223 9.75H24.2223C24.2223 4.26872 19.3201 0 13.5001 0V2ZM4.77783 9.75C4.77783 5.56629 8.58119 2 13.5001 2V0C7.68005 0 2.77783 4.26872 2.77783 9.75H4.77783ZM13.5474 19.9303C12.7032 19.5482 10.4654 18.4431 8.45384 16.674C6.43141 14.8954 4.77783 12.5734 4.77783 9.75H2.77783C2.77783 13.405 4.91884 16.2285 7.13302 18.1758C9.35806 20.1327 11.7988 21.3342 12.7227 21.7523L13.5474 19.9303ZM13.4527 19.9303C13.4616 19.9263 13.4784 19.9213 13.5001 19.9213C13.5218 19.9213 13.5385 19.9263 13.5474 19.9303L12.7227 21.7523C13.2203 21.9776 13.7798 21.9776 14.2774 21.7523L13.4527 19.9303ZM16.6663 9.75C16.6663 11.1723 15.3503 12.5 13.4997 12.5V14.5C16.2514 14.5 18.6663 12.4699 18.6663 9.75H16.6663ZM13.4997 7C15.3503 7 16.6663 8.32772 16.6663 9.75H18.6663C18.6663 7.03015 16.2514 5 13.4997 5V7ZM10.333 9.75C10.333 8.32772 11.6491 7 13.4997 7V5C10.7479 5 8.33301 7.03015 8.33301 9.75H10.333ZM13.4997 12.5C11.6491 12.5 10.333 11.1723 10.333 9.75H8.33301C8.33301 12.4699 10.7479 14.5 13.4997 14.5V12.5Z" fill="white" fill-opacity="0.63"/>
<path d="M24.3253 20.375C25.4224 20.9451 26 21.5917 26 22.25C26 22.9083 25.4224 23.5549 24.3253 24.125C23.2282 24.6951 21.6502 25.1685 19.75 25.4976C17.8498 25.8267 15.6942 26 13.5 26C11.3058 26 9.15024 25.8267 7.25 25.4976C5.34976 25.1685 3.77179 24.6951 2.67468 24.125C1.57758 23.5549 1 22.9083 1 22.25C1 21.5917 1.57758 20.9451 2.67468 20.375" stroke="white" stroke-opacity="0.63" stroke-width="2" stroke-linecap="round"/>
</svg>
