<svg width="30" height="30" viewBox="0 0 30 30" fill="none" xmlns="http://www.w3.org/2000/svg">
<path d="M7.5 0C6.67157 0 6 0.671573 6 1.5V7.5H3C1.34315 7.5 0 8.84315 0 10.5V22.5C0 24.1569 1.34315 25.5 3 25.5H6V28.5C6 29.3284 6.67157 30 7.5 30H22.5C23.3284 30 24 29.3284 24 28.5V25.5H27C28.6569 25.5 30 24.1569 30 22.5V10.5C30 8.84315 28.6569 7.5 27 7.5H24V1.5C24 0.671573 23.3284 0 22.5 0H7.5ZM22.5 18H7.5C6.67157 18 6 18.6716 6 19.5V22.5H3V10.5H7.5H22.5H27V22.5H24V19.5C24 18.6716 23.3284 18 22.5 18ZM21 7.5H9V3H21V7.5ZM4.5 12V15H9V12H4.5ZM21 21V27H9V21H21Z" fill="white"/>
</svg>
