<svg width="575" height="754" viewBox="0 0 575 754" fill="none" xmlns="http://www.w3.org/2000/svg">
<path d="M517.24 346.096C517.823 352.473 518.216 358.905 518.412 365.385L517.449 365.414C517.546 368.622 517.595 371.841 517.595 375.073C517.595 378.304 517.546 381.524 517.449 384.732L518.412 384.761C518.216 391.241 517.823 397.672 517.24 404.049L516.28 403.961C515.692 410.391 514.91 416.766 513.939 423.079L514.891 423.225C513.906 429.628 512.728 435.969 511.363 442.24L510.421 442.035C509.049 448.34 507.486 454.574 505.74 460.733L506.667 460.996C504.904 467.217 502.954 473.36 500.823 479.421L499.914 479.101C497.778 485.177 495.459 491.17 492.966 497.071L493.853 497.447C491.339 503.396 488.648 509.254 485.785 515.014L484.922 514.585C482.057 520.349 479.021 526.014 475.819 531.574L476.654 532.055C473.434 537.646 470.047 543.132 466.501 548.505L465.697 547.974C462.155 553.34 458.453 558.594 454.597 563.728L455.368 564.307C451.496 569.462 447.471 574.498 443.298 579.407L442.564 578.783C438.402 583.679 434.094 588.449 429.645 593.086L430.34 593.753C425.88 598.402 421.279 602.918 416.544 607.294L415.89 606.587C411.174 610.946 406.325 615.166 401.35 619.24L401.96 619.986C396.979 624.064 391.872 627.998 386.645 631.779L386.08 630.998C380.882 634.759 375.564 638.369 370.134 641.822L370.652 642.635C365.222 646.087 359.681 649.383 354.035 652.515L353.568 651.672C347.96 654.784 342.247 657.733 336.437 660.515L336.853 661.384C331.057 664.159 325.163 666.768 319.178 669.204L318.815 668.311C312.883 670.725 306.862 672.969 300.757 675.037L301.067 675.949C294.984 678.009 288.82 679.894 282.579 681.598L282.325 680.669C276.151 682.355 269.902 683.863 263.584 685.188L263.781 686.131C257.502 687.448 251.156 688.584 244.747 689.533L244.606 688.58C238.287 689.516 231.909 690.27 225.475 690.837L225.56 691.797C219.181 692.359 212.748 692.737 206.268 692.926L206.24 691.963C203.031 692.057 199.811 692.104 196.579 692.104C193.347 692.104 190.127 692.057 186.918 691.963L186.89 692.926C180.41 692.737 173.977 692.359 167.598 691.797L167.683 690.837C161.249 690.27 154.87 689.516 148.552 688.58L148.411 689.533C142.002 688.584 135.655 687.448 129.376 686.131L129.574 685.188C123.256 683.863 117.007 682.355 110.833 680.669L110.579 681.598C104.338 679.894 98.1736 678.009 92.0913 675.949L92.4004 675.037C86.2961 672.969 80.2748 670.725 74.3429 668.311L73.9796 669.204C67.9951 666.768 62.1013 664.159 56.3045 661.384L56.7206 660.515C50.9106 657.733 45.1983 654.784 39.5902 651.672L39.1228 652.515C33.4764 649.383 27.9354 646.087 22.5063 642.635L23.0234 641.822C17.5938 638.369 12.2763 634.759 7.07776 630.998L6.51295 631.779C1.28585 627.998 -3.82146 624.064 -8.80233 619.986L-8.19183 619.24C-13.1675 615.166 -18.0166 610.946 -22.7324 606.587L-23.3865 607.294C-28.1213 602.918 -32.7222 598.402 -37.1824 593.753L-36.4871 593.086C-40.9359 588.449 -45.2444 583.679 -49.4057 578.783L-50.1399 579.407C-54.3129 574.498 -58.3384 569.462 -62.2097 564.307L-61.4391 563.728C-65.2947 558.594 -68.9968 553.34 -72.5388 547.974L-73.343 548.505C-76.8896 543.132 -80.2761 537.646 -83.496 532.055L-82.661 531.574C-85.8629 526.014 -88.8995 520.349 -91.7642 514.585L-92.6271 515.014C-95.4899 509.254 -98.1816 503.396 -100.695 497.447L-99.8078 497.071C-102.301 491.17 -104.62 485.177 -106.756 479.101L-107.665 479.421C-109.796 473.36 -111.746 467.217 -113.51 460.996L-112.582 460.733C-114.328 454.574 -115.891 448.34 -117.263 442.035L-118.205 442.24C-119.57 435.969 -120.749 429.628 -121.733 423.225L-120.781 423.079C-121.752 416.766 -122.534 410.391 -123.122 403.961L-124.082 404.049C-124.665 397.672 -125.058 391.241 -125.254 384.761L-124.291 384.732C-124.388 381.524 -124.437 378.304 -124.437 375.073C-124.437 371.841 -124.388 368.622 -124.291 365.414L-125.254 365.384C-125.058 358.905 -124.665 352.473 -124.082 346.096L-123.122 346.184C-122.534 339.754 -121.752 333.38 -120.781 327.066L-121.733 326.92C-120.749 320.517 -119.57 314.177 -118.205 307.905L-117.263 308.11C-115.891 301.806 -114.328 295.571 -112.582 289.412L-113.509 289.149C-111.746 282.929 -109.796 276.785 -107.665 270.725L-106.756 271.044C-104.62 264.968 -102.301 258.976 -99.8078 253.074L-100.695 252.699C-98.1816 246.749 -95.4899 240.891 -92.6271 235.131L-91.7641 235.56C-88.8995 229.796 -85.8629 224.131 -82.6609 218.571L-83.496 218.09C-80.2761 212.499 -76.8895 207.014 -73.343 201.641L-72.5387 202.171C-68.9967 196.805 -65.2946 191.552 -61.4391 186.417L-62.2097 185.839C-58.3384 180.683 -54.3129 175.648 -50.1399 170.738L-49.4057 171.362C-45.2444 166.466 -40.9359 161.697 -36.4871 157.06L-37.1824 156.392C-32.7222 151.743 -28.1213 147.227 -23.3864 142.851L-22.7324 143.559C-18.0165 139.2 -13.1675 134.98 -8.19182 130.905L-8.80233 130.16C-3.82146 126.081 1.28586 122.148 6.51297 118.366L7.07777 119.147C12.2764 115.386 17.5938 111.776 23.0234 108.324L22.5063 107.511C27.9355 104.058 33.4765 100.763 39.1228 97.6304L39.5902 98.473C45.1983 95.3619 50.9106 92.4123 56.7207 89.6306L56.3045 88.7615C62.1013 85.9862 67.9952 83.3775 73.9796 80.9418L74.3429 81.8343C80.2749 79.42 86.2961 77.1761 92.4005 75.1088L92.0914 74.1961C98.1736 72.1363 104.338 70.2513 110.579 68.5473L110.833 69.4769C117.007 67.7908 123.256 66.2824 129.574 64.9576L129.376 64.0145C135.655 62.6977 142.002 61.5618 148.411 60.6123L148.552 61.5656C154.87 60.6294 161.249 59.8752 167.683 59.3084L167.598 58.3485C173.977 57.7865 180.41 57.4082 186.89 57.219L186.918 58.1822C190.127 58.0886 193.347 58.0414 196.579 58.0414C199.811 58.0414 203.031 58.0886 206.24 58.1823L206.268 57.219C212.748 57.4082 219.181 57.7865 225.56 58.3485L225.475 59.3084C231.909 59.8752 238.287 60.6294 244.606 61.5656L244.747 60.6123C251.156 61.5618 257.502 62.6977 263.781 64.0145L263.584 64.9576C269.902 66.2824 276.151 67.7908 282.325 69.4769L282.579 68.5473C288.82 70.2514 294.984 72.1363 301.067 74.1961L300.757 75.1088C306.862 77.1761 312.883 79.42 318.815 81.8343L319.178 80.9418C325.163 83.3775 331.057 85.9862 336.853 88.7615L336.437 89.6307C342.247 92.4123 347.96 95.3619 353.568 98.473L354.035 97.6304C359.681 100.763 365.222 104.058 370.652 107.511L370.134 108.324C375.564 111.776 380.882 115.386 386.08 119.147L386.645 118.366C391.872 122.148 396.979 126.081 401.96 130.16L401.35 130.905C406.325 134.98 411.174 139.2 415.89 143.559L416.544 142.851C421.279 147.227 425.88 151.743 430.34 156.392L429.645 157.06C434.094 161.697 438.402 166.466 442.564 171.362L443.298 170.738C447.471 175.648 451.496 180.683 455.368 185.839L454.597 186.417C458.453 191.552 462.155 196.805 465.697 202.171L466.501 201.641C470.047 207.014 473.434 212.499 476.654 218.09L475.819 218.571C479.021 224.131 482.057 229.797 484.922 235.56L485.785 235.131C488.648 240.891 491.339 246.749 493.853 252.699L492.966 253.074C495.459 258.976 497.778 264.968 499.914 271.044L500.823 270.725C502.954 276.785 504.904 282.929 506.667 289.149L505.74 289.412C507.486 295.571 509.049 301.806 510.421 308.11L511.363 307.905C512.728 314.177 513.906 320.517 514.891 326.92L513.939 327.066C514.91 333.38 515.692 339.754 516.28 346.184L517.24 346.096Z" stroke="#D8BFA0" stroke-width="1.92724" stroke-dasharray="19.27 19.27"/>
<path d="M338.072 28.292C431.481 66.3099 506.266 139.871 545.159 231.919L544.107 232.364C562.917 276.884 573.306 325.743 573.306 377C573.306 428.258 562.917 477.116 544.107 521.636L545.159 522.081C506.266 614.129 431.481 687.69 338.072 725.708L337.642 724.65C292.976 742.829 244.037 752.858 192.724 752.858C141.411 752.858 92.4728 742.829 47.8069 724.65L47.3763 725.708C-46.0324 687.69 -120.818 614.129 -159.71 522.081L-158.658 521.636C-177.469 477.116 -187.858 428.257 -187.858 377C-187.858 325.742 -177.469 276.884 -158.658 232.364L-159.71 231.919C-120.818 139.871 -46.0323 66.3099 47.3763 28.292L47.8069 29.3502C92.4728 11.1709 141.411 1.14242 192.724 1.14242C244.037 1.14242 292.976 11.1709 337.642 29.3502L338.072 28.292Z" stroke="#D8BFA0" stroke-width="2.28485" stroke-dasharray="385.45 385.45"/>
<path d="M139.562 276.051V298.53" stroke="#D8BFA0" stroke-width="4.05759" stroke-linecap="square" stroke-linejoin="bevel"/>
<path d="M150.801 287.291H128.322" stroke="#D8BFA0" stroke-width="4.05759" stroke-linecap="square" stroke-linejoin="bevel"/>
<path d="M359.971 317.479V339.958" stroke="#D8BFA0" stroke-width="4.05759" stroke-linecap="square" stroke-linejoin="bevel"/>
<path d="M371.211 328.719H348.732" stroke="#D8BFA0" stroke-width="4.05759" stroke-linecap="square" stroke-linejoin="bevel"/>
<path d="M331.973 153.674C331.973 153.674 348.446 154.648 348.446 176.599H348.974C348.974 154.648 365.448 153.674 365.448 153.674V153.106C365.448 153.106 348.974 152.091 348.974 130.14H348.446C348.446 152.091 331.973 153.106 331.973 153.106V153.674Z" stroke="#D8BFA0" stroke-width="4.05759" stroke-linecap="square" stroke-linejoin="bevel"/>
<path d="M22.2667 380.974C22.2667 381.704 22.0501 382.418 21.6444 383.025C21.2386 383.633 20.6619 384.106 19.9872 384.385C19.3125 384.665 18.5701 384.738 17.8539 384.595C17.1376 384.453 16.4797 384.101 15.9633 383.585C15.4469 383.069 15.0953 382.411 14.9528 381.694C14.8103 380.978 14.8834 380.236 15.1629 379.561C15.4424 378.886 15.9156 378.31 16.5229 377.904C17.1301 377.498 17.844 377.282 18.5742 377.282C19.5535 377.282 20.4927 377.671 21.1852 378.363C21.8776 379.055 22.2667 379.995 22.2667 380.974Z" fill="#D8BFA0"/>
<path d="M301.257 190.72C298.887 189.457 296.4 188.424 293.832 187.636C289.574 186.18 285.071 185.578 280.581 185.864C276.09 186.149 271.7 187.317 267.661 189.3C261.303 192.839 256.071 198.099 252.566 204.475C233.942 235.84 236.092 265.907 216.048 290.983C196.004 316.059 175.229 338.254 151.573 351.238C140.805 356.862 129.222 360.763 117.246 362.802C109.131 353.497 100.285 343.082 90.7092 331.559C81.9307 321.47 75.5054 309.556 71.8983 296.678C68.2912 283.801 67.5926 270.283 69.8532 257.102C70.2995 254.586 72.8153 244.118 76.7511 242.414C81.2444 240.574 86.1518 239.985 90.9527 240.709C113.635 243.063 155.184 246.431 175.716 207.275C175.716 207.275 115.542 184.349 95.4971 189.624C78.8205 193.966 71.1516 223.505 68.1896 233.933C70.5836 223.424 85.0692 183.903 45.9946 176.721C26.7033 172.845 7.20981 170.055 -12.3941 168.363C-12.3941 168.363 -20.5092 193.804 1.92921 218.149C12.6818 229.835 32.077 235.556 48.5508 238.64C49.5073 238.824 50.4156 239.203 51.2184 239.754C52.0212 240.306 52.7012 241.017 53.2157 241.844C53.7302 242.671 54.0679 243.596 54.2078 244.56C54.3477 245.523 54.2867 246.506 54.0286 247.445C53.1765 250.61 52.0809 253.897 51.3506 255.56C32.7263 303.845 46.8061 341.338 71.4356 375.705C60.1693 380.673 49.543 386.981 39.7865 394.492C12.3572 415.835 -12.9621 449.026 -12.9621 496.337C-12.9621 553.387 10.4501 607.231 101.381 607.231C184.277 607.231 226.841 519.547 183.831 442.696C191.377 438.541 198.325 433.381 204.484 427.358C204.484 427.358 226.679 481.811 210.935 528.352V545.191L218.117 567.386H236.701L227.612 543.73V525.349C227.612 525.349 242.666 454.747 256.989 429.793C271.312 404.839 307.1 359.718 308.52 322.47C309.941 285.221 285.595 251.665 285.595 251.665L293.71 247.283C302.624 251.23 312.425 252.742 322.113 251.665L322.844 270.938L330.715 284.531L335.016 262.336L350.76 240.872L301.257 190.72ZM45.0208 509.687C42.6268 467.61 71.2733 448.823 115.907 450.649C121.222 450.852 126.457 451.217 131.65 451.542C142.443 467.407 150.031 483.353 151.005 500.233C154.941 571.93 48.0639 565.195 45.0208 509.687Z" stroke="#D8BFA0" stroke-width="4.05759" stroke-linecap="square" stroke-linejoin="bevel"/>
<path d="M293.832 187.636C296.4 188.424 298.887 189.457 301.257 190.72L310.225 199.849C309.372 179.156 303.164 131.763 264.252 120.239C252.604 116.501 240.033 116.816 228.586 121.132C269.892 123.202 288.476 170.675 293.832 187.636Z" fill="#D8BFA0"/>
<path d="M299.755 220.584C304.885 218.491 310.214 216.928 315.661 215.917C315.661 215.917 305.477 206.991 299.755 220.584Z" fill="#D8BFA0"/>
<path d="M354.25 399.564L300.243 354.93C293.411 370.473 285.266 385.405 275.897 399.564C300.77 414.333 335.503 419.203 335.503 419.203L304.706 457.831L295.374 464.242L283.932 467.123V487.167L307.587 472.844L359.849 419.852L354.25 399.564Z" fill="#D8BFA0"/>
<path d="M293.385 247.282C293.385 247.282 276.181 238.356 272.61 222.612C272.513 228.099 273.614 233.541 275.835 238.558C278.057 243.576 281.346 248.049 285.473 251.665L293.385 247.282Z" fill="#D8BFA0" stroke="#D8BFA0" stroke-width="4.05759" stroke-linecap="square" stroke-linejoin="bevel"/>
<path d="M131.528 451.542C132.786 453.408 134.003 455.275 135.14 457.141L135.545 457.75C136.681 459.535 137.736 461.321 138.751 463.106C138.751 463.349 139.035 463.593 139.157 463.877C140.171 465.662 141.145 467.488 142.037 469.274L142.281 469.801C142.646 470.531 143.011 471.262 143.336 471.992C182.978 461.686 183.912 443.061 183.912 443.061C165.774 452.84 148.935 452.597 131.528 451.542Z" fill="#D8BFA0" stroke="#D8BFA0" stroke-width="4.05759" stroke-linecap="square" stroke-linejoin="bevel"/>
<path d="M114.892 363.208L117.246 362.802L109.455 353.673C94.3104 356.818 79.3979 360.994 64.8218 366.17C66.9723 369.498 69.2039 372.825 71.5573 376.071C85.399 369.965 99.9607 365.642 114.892 363.208Z" fill="#D8BFA0" stroke="#D8BFA0" stroke-width="4.05759" stroke-linecap="square" stroke-linejoin="bevel"/>
<path d="M197.018 434.256C199.654 432.221 202.173 430.04 204.565 427.724L196.693 399.564C196.693 399.564 197.18 416.768 197.018 434.256Z" fill="#D8BFA0" stroke="#D8BFA0" stroke-width="4.05759" stroke-linecap="square" stroke-linejoin="bevel"/>
<path d="M295.495 193.601C295.495 193.601 294.968 191.328 293.832 187.636C288.395 170.31 269.162 121.051 226.07 121.051C181.437 121.051 161.839 164.954 181.437 193.601C181.437 193.601 178.556 140.122 226.07 140.122C250.416 140.122 262.142 165.116 267.66 189.3C268.513 193.073 269.202 196.806 269.811 200.417" stroke="#D8BFA0" stroke-width="4.05759" stroke-linecap="square" stroke-linejoin="bevel"/>
<path d="M176.081 596.803C174.823 596.073 147.475 584.387 147.475 584.387L166.261 574.081L251.471 564.424H278.697H285.92H313.187C313.187 564.424 324.467 576.353 323.168 575.46C321.87 574.568 294.197 585.564 294.197 585.564L334.245 584.509C334.245 584.509 350.029 605.405 350.476 606.46C350.683 608.226 350.683 610.01 350.476 611.776H18.3218L30.4945 597.98H66.6882L176.081 596.803Z" fill="#D8BFA0"/>
<path d="M264.131 199.85L241.936 185.811C241.936 185.811 240.028 216.729 264.131 216.729" stroke="#D8BFA0" stroke-width="4.05759" stroke-linecap="square" stroke-linejoin="bevel"/>
<path d="M19.1027 195.299C19.1027 195.299 15.2885 221.348 28.3945 237.822" stroke="#D8BFA0" stroke-width="4.05759" stroke-linecap="square" stroke-linejoin="bevel"/>
<path d="M42.4342 198.95C42.4342 198.95 38.6201 225 51.7261 241.433" stroke="#D8BFA0" stroke-width="4.05759" stroke-linecap="square" stroke-linejoin="bevel"/>
<path d="M152.546 199.444C152.546 199.444 145.283 224.763 126.537 234.339" stroke="#D8BFA0" stroke-width="4.05759" stroke-linecap="square" stroke-linejoin="bevel"/>
<path d="M129.744 193.276C129.744 193.276 122.521 218.555 103.775 228.172" stroke="#D8BFA0" stroke-width="4.05759" stroke-linecap="square" stroke-linejoin="bevel"/>
</svg>
