<svg width="20" height="19" viewBox="0 0 20 19" fill="#0E062B" xmlns="http://www.w3.org/2000/svg">
<path d="M10 0.845703C10.3788 0.845703 10.7251 1.04033 10.8945 1.34844L13.4734 6.03922L19.144 6.78935C19.5206 6.83917 19.8335 7.07911 19.9511 7.4083C20.0687 7.73749 19.9706 8.09886 19.6981 8.3405L15.571 12.0001L16.4994 17.1599C16.5608 17.5009 16.4043 17.8441 16.0957 18.0456C15.787 18.2471 15.3794 18.2721 15.0438 18.1101L10 15.6762L4.95624 18.1101C4.62062 18.2721 4.21306 18.2471 3.9044 18.0456C3.59573 17.8441 3.4393 17.5009 3.50065 17.1599L4.42906 12.0001L0.301929 8.3405C0.0294234 8.09886 -0.068637 7.73749 0.0489696 7.4083C0.166576 7.07911 0.479458 6.83917 0.856089 6.78935L6.5267 6.03922L9.1056 1.34844C9.27499 1.04033 9.62126 0.845703 10 0.845703ZM10 3.78875L8.08196 7.27754C7.93561 7.54374 7.65531 7.72797 7.33147 7.7708L3.14842 8.32415L6.19813 11.0284C6.43182 11.2356 6.53961 11.5335 6.4869 11.8264L5.80004 15.6439L9.53131 13.8433C9.82444 13.7018 10.1756 13.7018 10.4687 13.8433L14.2 15.6439L13.5132 11.8264C13.4604 11.5335 13.5682 11.2356 13.8019 11.0284L16.8516 8.32415L12.6686 7.7708C12.3448 7.72797 12.0645 7.54374 11.9181 7.27754L10 3.78875Z" fill="#0E062B"/>
</svg>
