<svg width="38" height="38" viewBox="0 0 38 38" fill="none" xmlns="http://www.w3.org/2000/svg">
<g id="Group 16">
<path id="Vector" d="M18.6085 0.306705C18.5183 3.41882 18.2412 6.5116 18.0286 9.61727C17.816 12.7229 17.7129 15.8415 17.7129 18.9214C17.7129 22.0013 18.1832 25.1199 18.2928 28.232C18.4023 31.3441 18.5247 34.4369 18.6794 37.5425C18.6794 37.6639 18.7276 37.7802 18.8134 37.866C18.8992 37.9518 19.0155 38 19.1369 38C19.2582 38 19.3746 37.9518 19.4603 37.866C19.5461 37.7802 19.5943 37.6639 19.5943 37.5425C19.6781 34.4369 19.7361 31.3376 19.7941 28.232C19.8521 25.1263 20.2773 22.0464 20.2516 18.9214C20.2258 15.7964 20.0905 12.7229 19.8778 9.61727C19.6652 6.5116 19.3946 3.41882 19.3173 0.306705C19.3057 0.221755 19.2638 0.143865 19.1992 0.0874701C19.1347 0.0310753 19.0518 0 18.9661 0C18.8804 0 18.7976 0.0310753 18.733 0.0874701C18.6684 0.143865 18.6265 0.221755 18.6149 0.306705H18.6085Z" fill="#2C2C2C"/>
<path id="Vector_2" d="M37.6869 18.4961C34.5747 18.3994 31.482 18.1223 28.3827 17.9162C25.2835 17.71 22.1843 17.594 19.0722 17.594C15.9601 17.594 12.8802 18.0579 9.7616 18.1674C6.64305 18.277 3.5567 18.3994 0.457479 18.554C0.336149 18.554 0.219789 18.6022 0.133996 18.688C0.0482031 18.7738 0 18.8902 0 19.0115C0 19.1328 0.0482031 19.2492 0.133996 19.335C0.219789 19.4208 0.336149 19.469 0.457479 19.469C3.5567 19.5528 6.66238 19.6107 9.7616 19.6687C12.8608 19.7267 15.9472 20.152 19.0722 20.1262C22.1972 20.1004 25.2706 19.9651 28.3827 19.7525C31.4948 19.5399 34.5747 19.2757 37.6869 19.1984C37.7718 19.1868 37.8497 19.1449 37.9061 19.0803C37.9625 19.0158 37.9936 18.9329 37.9936 18.8472C37.9936 18.7615 37.9625 18.6787 37.9061 18.6141C37.8497 18.5495 37.7718 18.5076 37.6869 18.4961Z" fill="#2C2C2C"/>
<path id="Vector_3" d="M27.5508 9.84269C26.0109 11.2538 24.3292 12.5102 22.7441 13.8311C21.1591 15.152 19.5934 16.5244 18.1114 17.9999C17.3909 18.7128 16.7112 19.4657 16.0753 20.2551C15.431 21.054 14.8962 21.911 14.2132 22.6713C12.7892 24.2628 11.3588 25.835 9.96063 27.4458C9.8875 27.5335 9.8498 27.6454 9.85496 27.7594C9.86011 27.8735 9.90774 27.9815 9.98848 28.0623C10.0692 28.143 10.1772 28.1906 10.2913 28.1958C10.4054 28.2009 10.5173 28.1632 10.605 28.0901C12.1385 26.6919 13.6526 25.2744 15.1668 23.8504C15.9142 23.1545 16.7583 22.5618 17.5508 21.9174C18.3757 21.2439 19.161 20.5232 19.9026 19.7589C21.3266 18.3027 22.6539 16.8079 23.9426 15.2486C25.2312 13.6893 26.5908 11.8981 28.047 10.3259C28.1128 10.2601 28.1497 10.1709 28.1497 10.0779C28.1497 9.98483 28.1128 9.8956 28.047 9.8298C27.9812 9.76401 27.8919 9.72705 27.7989 9.72705C27.7059 9.72705 27.6166 9.76401 27.5508 9.8298V9.84269Z" fill="#2C2C2C"/>
<path id="Vector_4" d="M28.125 27.4395C26.714 25.8995 25.4511 24.2178 24.1302 22.6328C22.8213 21.0178 21.4298 19.4715 19.9614 18C19.2507 17.2796 18.4999 16.5999 17.7127 15.964C16.9137 15.3196 16.0503 14.7848 15.29 14.1019C13.7049 12.6779 12.1263 11.2475 10.522 9.84283C10.4343 9.7697 10.3224 9.73201 10.2083 9.73716C10.0942 9.74232 9.98622 9.78994 9.90548 9.87069C9.82473 9.95143 9.77711 10.0594 9.77195 10.1735C9.7668 10.2876 9.80449 10.3995 9.87762 10.4872C11.2823 12.0207 12.6998 13.5348 14.1173 15.049C14.8196 15.7964 15.406 16.6341 16.0503 17.433C16.7273 18.2549 17.4478 19.04 18.2088 19.7848C19.665 21.2088 21.1663 22.5361 22.7191 23.8248C24.272 25.1134 26.0632 26.473 27.6354 27.9292C27.7029 27.9868 27.7896 28.0171 27.8783 28.0139C27.967 28.0107 28.0513 27.9743 28.1145 27.9119C28.1777 27.8495 28.2152 27.7657 28.2195 27.677C28.2238 27.5884 28.1947 27.5013 28.1379 27.433L28.125 27.4395Z" fill="#2C2C2C"/>
</g>
</svg>
