<svg width="20" height="18" viewBox="0 0 20 18" fill="none" xmlns="http://www.w3.org/2000/svg">
<path fill-rule="evenodd" clip-rule="evenodd" d="M10.8945 0.502733C10.7251 0.194625 10.3788 0 10 0C9.62128 0 9.27501 0.194625 9.10562 0.502733L6.52672 5.19351L0.856109 5.94365C0.479478 5.99347 0.166596 6.23341 0.0489893 6.5626C-0.0686173 6.89179 0.0294431 7.25316 0.301949 7.49479L3.00002 9.88722V10H3.12721L4.42908 11.1544L3.50067 16.3142C3.43932 16.6552 3.59575 16.9984 3.90442 17.1999C4.21308 17.4014 4.62064 17.4264 4.95626 17.2644L9.64877 15H10.3513L15.0438 17.2644C15.3795 17.4264 15.787 17.4014 16.0957 17.1999C16.4043 16.9984 16.5608 16.6552 16.4994 16.3142L15.571 11.1544L16.8729 10H17V9.88727L19.6981 7.49479C19.9707 7.25316 20.0687 6.89179 19.9511 6.5626C19.8335 6.23341 19.5206 5.99347 19.144 5.94365L13.4734 5.19351L10.8945 0.502733ZM10.0314 3L10 2.94305L9.96874 3H10.0314Z" fill="#0E062B"/>
</svg>
