<svg width="59" height="60" viewBox="0 0 59 60" fill="none" xmlns="http://www.w3.org/2000/svg">
<path d="M58.7436 29.2289C54.9813 29.0313 51.2704 28.5847 47.4909 28.5589C43.7114 28.5331 39.8632 28.5073 36.0493 28.4644H33.7043C38.8581 26.3513 44.012 24.2468 49.3034 22.3484C49.604 22.2368 49.4752 21.7386 49.1659 21.8502C43.8746 23.7486 38.5489 25.4665 33.2404 27.4508C33.7644 26.9268 34.2712 26.3943 34.7952 25.8789C35.5081 25.1831 36.264 24.5045 36.9083 23.74C37.5525 22.9755 38.1882 21.8674 38.9097 20.9827C38.994 20.8984 39.0414 20.784 39.0414 20.6648C39.0414 20.5456 38.994 20.4313 38.9097 20.347C38.8254 20.2627 38.7111 20.2154 38.5919 20.2154C38.4727 20.2154 38.3583 20.2627 38.274 20.347C37.4151 21.017 36.453 21.5066 35.6198 22.1938C34.7866 22.881 34.1509 23.5682 33.438 24.2725C32.725 24.9769 32.2182 25.458 31.6084 26.0506C34.4774 19.8402 37.4322 13.6813 40.1552 7.40216C40.2755 7.13588 39.9061 6.90396 39.7601 7.17025C36.496 13.0886 33.5926 19.196 30.758 25.3119C30.758 21.2747 30.7723 17.2375 30.8009 13.2003C30.8009 11.1387 30.9126 9.04281 30.7494 6.98984C30.569 4.78226 30.38 2.60045 30.2855 0.39287C30.2705 0.283972 30.2165 0.1842 30.1336 0.111986C30.0507 0.039773 29.9445 0 29.8346 0C29.7246 0 29.6184 0.039773 29.5355 0.111986C29.4526 0.1842 29.3986 0.283972 29.3836 0.39287C29.186 4.15521 28.7393 7.86601 28.7136 11.6455C28.6878 15.4251 28.6621 19.2733 28.6191 23.0872C28.6191 23.6455 28.6191 24.1953 28.6191 24.745C26.4115 19.2905 24.1266 13.8703 21.8332 8.42435C21.7387 8.20102 21.3435 8.36421 21.4294 8.59613C23.6456 14.5403 25.8618 20.4759 28.181 26.3685C25.9734 24.1695 23.6714 22.0736 21.3092 20.0807C21.1894 20.0099 21.0494 19.9808 20.9113 19.9983C20.7732 20.0157 20.6449 20.0786 20.5465 20.177C20.448 20.2754 20.3852 20.4038 20.3677 20.5419C20.3503 20.68 20.3793 20.8199 20.4502 20.9397C22.1681 23.0528 23.9634 25.1058 25.8446 27.0814C21.4208 24.9512 16.9541 22.9154 12.5304 20.7765C12.1352 20.5875 11.7916 21.1631 12.1868 21.3692C16.6363 23.6541 21.0515 26.0421 25.5096 28.3269C21.481 28.3269 17.4523 28.327 13.4237 28.3785C9.12881 28.43 4.88544 28.4558 0.616298 28.6276C0.463731 28.6455 0.323072 28.7189 0.22099 28.8337C0.118908 28.9485 0.0625 29.0967 0.0625 29.2504C0.0625 29.404 0.118908 29.5523 0.22099 29.6671C0.323072 29.7819 0.463731 29.8552 0.616298 29.8731C9.02573 30.3198 17.4437 30.4572 25.8703 30.5088C20.0754 33.111 14.4367 36.0479 8.98277 39.3047C8.57046 39.5538 8.98279 40.1637 9.35215 39.949C14.6621 36.7579 20.207 33.9754 25.9391 31.6255C23.9806 33.6183 22.0822 35.6798 20.3385 37.8273C20.2578 37.9463 20.2211 38.0898 20.2347 38.2329C20.2483 38.3761 20.3114 38.51 20.4131 38.6117C20.5148 38.7134 20.6487 38.7765 20.7919 38.7901C20.935 38.8037 21.0785 38.767 21.1975 38.6863C23.1731 37.1143 25.0887 35.4136 26.9527 33.6612C24.3757 39.4078 21.8675 45.1802 19.3765 50.9697C19.3362 51.0363 19.3108 51.1108 19.3019 51.1881C19.293 51.2655 19.301 51.3438 19.3251 51.4178C19.3493 51.4917 19.3892 51.5597 19.442 51.6168C19.4948 51.674 19.5593 51.7191 19.6311 51.7491C19.7029 51.7791 19.7804 51.7932 19.8582 51.7905C19.9359 51.7879 20.0122 51.7684 20.0818 51.7336C20.1514 51.6987 20.2127 51.6493 20.2614 51.5886C20.3102 51.528 20.3452 51.4575 20.3643 51.382C23.0014 45.1115 25.7845 38.8838 28.5933 32.682C28.5933 37.0284 28.5933 41.3749 28.5933 45.7213C28.5933 50.0678 28.6706 54.2596 28.8424 58.5202C28.8604 58.6727 28.9337 58.8134 29.0485 58.9155C29.1633 59.0176 29.3116 59.0739 29.4652 59.0739C29.6188 59.0739 29.7671 59.0176 29.8819 58.9155C29.9967 58.8134 30.07 58.6727 30.088 58.5202C30.5432 49.9304 30.6807 41.3405 30.7322 32.7507C31.72 35.2418 32.6993 37.7414 33.6957 40.2324C35.1302 43.8316 36.7279 47.362 38.1796 50.9611C38.3342 51.3305 38.9441 51.1673 38.7894 50.7893C37.3893 47.1902 36.1266 43.5395 34.7093 39.949C33.8446 37.7557 32.9856 35.5653 32.1323 33.3778C32.5275 33.7729 32.9226 34.1509 33.3091 34.546C34.0135 35.2589 34.6921 36.0148 35.448 36.6591C36.2039 37.3033 37.3206 37.9389 38.2053 38.6605C38.2896 38.7448 38.404 38.7921 38.5232 38.7921C38.6424 38.7921 38.7567 38.7448 38.841 38.6605C38.9253 38.5762 38.9726 38.4619 38.9726 38.3427C38.9726 38.2235 38.9253 38.1091 38.841 38.0249C38.171 37.1659 37.6814 36.2038 36.9942 35.362C36.307 34.5202 35.6198 33.9017 34.9154 33.1888C34.7694 33.0513 34.632 32.8967 34.4945 32.7593C39.4165 35.1988 44.3127 37.6898 49.2862 40.0349C49.9218 40.3269 50.4802 39.4078 49.8445 39.0728C44.2182 36.1179 38.4888 33.3692 32.8109 30.483C37.2089 30.483 41.5983 30.483 45.9963 30.5345C48.0579 30.5345 50.1452 30.6462 52.2067 30.483C54.4057 30.3026 56.5875 30.1136 58.7951 30.0191C58.8624 29.9749 58.9168 29.9137 58.9526 29.8417C58.9885 29.7696 59.0047 29.6893 58.9995 29.609C58.9942 29.5287 58.9678 29.4512 58.9228 29.3844C58.8779 29.3176 58.816 29.264 58.7436 29.2289Z" fill="#D8BFA0"/>
<path d="M7.12347 12.2554C8.76412 14.274 10.3532 16.3012 12.1227 18.2081C12.432 18.5432 13.0332 18.0965 12.767 17.71C11.274 15.5987 9.64112 13.5899 7.87935 11.6971C6.16138 9.7386 4.37472 7.78013 2.55368 5.88178C2.25303 5.55537 1.78919 6.0364 2.07265 6.36281C3.78202 8.28693 5.49999 10.2368 7.12347 12.2554Z" fill="#D8BFA0"/>
<path d="M42.3329 46.3569C40.1855 44.218 38.038 42.1049 35.9593 39.8802C35.4697 39.3476 34.7052 40.1293 35.1776 40.6618C37.1798 42.9948 39.2984 45.2253 41.5255 47.3447C43.7556 49.3876 46.0893 51.3142 48.5176 53.1171C48.7753 53.306 49.0931 52.8851 48.8612 52.679C46.6364 50.626 44.4804 48.4872 42.3329 46.3569Z" fill="#D8BFA0"/>
<path d="M37.0158 18.4313C39.5155 16.2752 41.9721 14.0676 44.4202 11.8515C45.6056 10.7692 46.7739 9.66966 47.9249 8.55299C49.1841 7.41279 50.3664 6.19035 51.4639 4.89372C51.5528 4.80487 51.6027 4.68438 51.6027 4.55873C51.6027 4.43308 51.5528 4.31256 51.4639 4.22371C51.3751 4.13486 51.2545 4.08496 51.1289 4.08496C51.0032 4.08496 50.8827 4.13486 50.7939 4.22371C49.5312 5.27167 48.4145 6.52578 47.2549 7.65964L43.7502 11.1471C41.4052 13.4749 38.9829 15.7083 36.509 17.8987C36.1654 18.2337 36.6722 18.7319 37.0158 18.4313Z" fill="#D8BFA0"/>
<path d="M11.6936 41.2547C9.66645 43.1445 7.80247 45.2232 5.91271 47.2676C4.02295 49.312 2.07305 51.2876 0.0973911 53.2375C-0.194663 53.521 0.234837 53.9419 0.53548 53.6756C2.61994 51.8374 4.67577 49.9648 6.70296 48.0579C8.75928 46.1903 10.6824 44.1811 12.4581 42.045C12.5629 41.9436 12.6232 41.8048 12.6256 41.659C12.628 41.5132 12.5724 41.3724 12.471 41.2676C12.3696 41.1628 12.2308 41.1026 12.085 41.1002C11.9392 41.0978 11.7984 41.1534 11.6936 41.2547Z" fill="#D8BFA0"/>
</svg>
