<svg xmlns="http://www.w3.org/2000/svg" width="57" height="66" viewBox="0 0 57 66" fill="none">
<path d="M29.8356 24.524L32.957 26.3035C33.046 26.3557 33.1521 26.3705 33.2519 26.3445C33.3517 26.3185 33.4372 26.2539 33.4894 26.1649C33.5416 26.076 33.5564 25.9699 33.5304 25.87C33.5044 25.7702 33.4398 25.6848 33.3508 25.6325L30.8494 23.9698C31.8266 23.9114 32.8112 23.8531 33.7665 23.8385C35.5241 23.8385 37.2744 23.8385 39.0247 23.7583C42.5326 23.6197 46.0405 23.627 49.5411 23.5103C49.6558 23.496 49.7613 23.4403 49.8378 23.3537C49.9143 23.267 49.9565 23.1555 49.9565 23.0399C49.9565 22.9243 49.9143 22.8128 49.8378 22.7261C49.7613 22.6395 49.6558 22.5838 49.5411 22.5695C46.0332 22.4309 42.5326 22.3872 39.0247 22.1538C37.2744 22.0444 35.5241 21.9934 33.7665 21.9132C32.483 21.8475 31.214 21.7017 29.9378 21.585C30.4701 21.038 31.0171 20.5056 31.5641 19.9659C32.376 19.1491 33.1904 18.3372 34.0072 17.5301C34.3427 17.1946 33.8395 16.706 33.4894 17.0123L30.9077 19.2658L29.7773 20.2649C29.6533 17.1509 29.3981 14.0368 29.223 10.9592C29.0115 7.40025 28.924 3.83402 28.7855 0.275076C28.7628 0.195831 28.715 0.126115 28.6492 0.0764835C28.5834 0.0268522 28.5032 0 28.4208 0C28.3384 0 28.2582 0.0268522 28.1924 0.0764835C28.1267 0.126115 28.0788 0.195831 28.0562 0.275076C27.9638 3.39644 27.8641 6.51781 27.7572 9.63918C27.6478 12.7678 27.3415 15.8819 27.2467 19.0106C27.2467 19.2658 27.2467 19.5138 27.2467 19.7399L26.9039 19.3898C26.2548 18.7407 25.5839 18.1281 24.9348 17.4937C24.8473 17.4134 24.6869 17.4936 24.7598 17.6249C25.2776 18.3542 25.7735 19.0835 26.3059 19.8128L27.2248 21.0599C27.2248 21.1693 27.2248 21.286 27.2248 21.3954C25.9267 21.4537 24.6285 21.6433 23.3304 21.6871C21.5801 21.7381 19.8225 21.6871 18.0722 21.6871C14.5716 21.6871 11.0637 21.6871 7.5631 21.636C7.48538 21.6477 7.41444 21.6869 7.36317 21.7464C7.3119 21.806 7.28369 21.882 7.28369 21.9606C7.28369 22.0391 7.3119 22.1151 7.36317 22.1747C7.41444 22.2342 7.48538 22.2734 7.5631 22.2851C11.071 22.5112 14.5716 22.7956 18.0722 23.0144C19.8225 23.1384 21.5801 23.2186 23.3304 23.3644C24.3878 23.452 25.438 23.6343 26.4882 23.7656L24.4024 26.2378C24.3332 26.3121 24.2947 26.4098 24.2947 26.5113C24.2947 26.6128 24.3332 26.7106 24.4024 26.7848C24.4383 26.8208 24.481 26.8493 24.5279 26.8687C24.5748 26.8882 24.6251 26.8982 24.6759 26.8982C24.7267 26.8982 24.777 26.8882 24.8239 26.8687C24.8709 26.8493 24.9135 26.8208 24.9494 26.7848C25.7152 25.968 26.4809 25.1512 27.254 24.349C27.254 25.7055 27.3415 27.0692 27.4363 28.4257C27.5457 29.9645 27.7936 31.4815 27.8884 33.0275C27.9833 34.5737 28.027 36.2 28.0416 37.7898C28.0416 41.3488 28.0416 44.915 28.202 48.474C28.202 48.5861 28.2466 48.6937 28.3259 48.7731C28.4053 48.8524 28.5129 48.8969 28.625 48.8969C28.7372 48.8969 28.8448 48.8524 28.9241 48.7731C29.0034 48.6937 29.048 48.5861 29.048 48.474C29.2595 42.2312 28.8074 35.9447 29.5585 29.7385C29.7406 28.0062 29.8331 26.2658 29.8356 24.524Z" fill="#D8BFA0"/>
<path d="M56.7393 47.4457C53.1877 46.906 49.5923 46.483 46.0114 46.1475C46.2302 45.9579 46.449 45.7683 46.6605 45.5714C47.2633 45.038 47.8151 44.4496 48.3087 43.8138C48.3625 43.7536 48.3923 43.6757 48.3923 43.595C48.3923 43.5143 48.3625 43.4364 48.3087 43.3762C48.2502 43.3192 48.1716 43.2873 48.0899 43.2873C48.0082 43.2873 47.9297 43.3192 47.8711 43.3762C47.3618 43.9719 46.8005 44.521 46.1938 45.0171C45.8585 45.2946 45.497 45.5389 45.1144 45.7464C44.9831 41.3707 44.706 37.0314 44.8446 32.6702C44.8446 32.167 44.1153 32.1743 44.0715 32.6702C43.7944 37.046 43.2328 41.4217 42.9484 45.7975L42.4233 45.3307C41.9124 44.8699 41.4256 44.383 40.9647 43.8721C40.7168 43.6096 40.3303 44.0034 40.5709 44.2659C41.0304 44.7764 41.5044 45.2724 41.9201 45.8266L42.2629 46.2861C41.2597 46.4537 40.2458 46.5488 39.229 46.5705C37.1797 46.7164 35.1304 46.9206 33.0884 47.1466C32.7894 47.1466 32.7748 47.6353 33.0884 47.6207C35.0283 47.5332 36.9609 47.5113 38.9227 47.5405C39.8966 47.5208 40.8707 47.5597 41.8399 47.6571C42.1511 47.7109 42.4582 47.7865 42.7588 47.8832C42.5003 48.1668 42.2568 48.4638 42.0295 48.773C41.5773 49.371 41.1544 49.9982 40.7532 50.64C40.5636 50.9463 41.0377 51.3328 41.2711 51.0338C41.7244 50.4515 42.2114 49.8963 42.7296 49.371L42.839 49.2543C42.839 51.8797 43.3058 54.4323 43.4808 57.0431C43.6558 59.778 43.6923 62.5274 43.8163 65.2695C43.8163 65.3721 43.857 65.4704 43.9295 65.5429C44.002 65.6153 44.1003 65.6561 44.2028 65.6561C44.3053 65.6561 44.4036 65.6153 44.4761 65.5429C44.5486 65.4704 44.5893 65.3721 44.5893 65.2695C44.5529 62.5274 44.4799 59.7853 44.5893 57.0431C44.6987 54.301 45.2311 51.6974 45.2165 48.9845C45.2165 48.8678 45.2165 48.7511 45.2165 48.6344C46.1573 49.4075 47.0981 50.1878 48.0753 50.9317C48.2868 51.0921 48.5275 50.7493 48.3525 50.567C47.4919 49.67 46.5949 48.8167 45.7051 47.9562C49.3537 47.8248 53.0069 47.9149 56.6445 48.226C57.0456 48.2041 57.1477 47.5113 56.7393 47.4457Z" fill="#D8BFA0"/>
<path d="M15.957 40.1965C14.6224 40.058 13.2878 39.9705 11.9459 39.8465C11.2969 39.7881 10.6405 39.6933 9.98414 39.6131C10.6478 38.8474 11.326 38.0889 12.0262 37.3523C12.0716 37.3069 12.0971 37.2452 12.0971 37.1809C12.0971 37.1166 12.0716 37.055 12.0262 37.0095C11.9807 36.9641 11.9191 36.9386 11.8548 36.9386C11.7905 36.9386 11.7289 36.9641 11.6834 37.0095C10.9541 37.7388 10.2248 38.4171 9.49552 39.1391C9.38613 38.2275 9.2111 37.3085 9.15276 36.3896C9.05795 34.8217 9.15276 33.2318 9.15276 31.6638C9.14182 31.5953 9.1068 31.5329 9.054 31.4879C9.00121 31.4428 8.93409 31.4181 8.86469 31.4181C8.7953 31.4181 8.72816 31.4428 8.67536 31.4879C8.62256 31.5329 8.58755 31.5953 8.57661 31.6638C8.46722 33.1808 8.42346 34.7123 8.2776 36.2292C8.18279 37.1992 7.9786 38.1764 7.85462 39.1464C7.38787 38.6359 6.93571 38.1181 6.46167 37.6221C6.19183 37.345 5.77614 37.768 6.03869 38.0451C6.49085 38.5411 6.92841 39.0516 7.36598 39.5548C6.3231 39.6715 5.27292 39.9559 4.23004 40.0653C2.89543 40.2111 1.55354 40.2841 0.218934 40.3935C0.157725 40.4038 0.102153 40.4354 0.0620726 40.4828C0.0219918 40.5302 0 40.5903 0 40.6523C0 40.7144 0.0219918 40.7745 0.0620726 40.8219C0.102153 40.8693 0.157725 40.9009 0.218934 40.9112C1.55354 40.9112 2.89543 40.9112 4.23004 40.9696C5.2948 41.0279 6.36685 41.2832 7.43162 41.3707L7.07427 41.7864C6.57106 42.3698 6.16995 43.0335 5.68862 43.6388C5.46983 43.9086 5.85636 44.2952 6.07514 44.0253C6.5346 43.4419 7.08886 42.9387 7.53373 42.3698L7.82544 42.0416C7.95671 43.2012 8.18279 44.3535 8.2776 45.5204C8.40887 47.0956 8.55474 48.6636 8.64954 50.2462C8.64954 50.6546 9.3132 50.6546 9.29132 50.2462C9.19652 48.7147 9.18193 47.2123 9.19651 45.6808C9.19651 44.4921 9.37155 43.3252 9.48095 42.151C9.86018 42.6688 10.2467 43.1939 10.6551 43.6899C10.9687 44.0764 11.6469 43.5586 11.3479 43.1575C10.8549 42.5111 10.3291 41.8904 9.77266 41.2978C10.5019 41.2176 11.2312 41.1155 11.9095 41.0571C13.2514 40.9623 14.586 40.9113 15.9206 40.8383C15.9953 40.8273 16.0639 40.7908 16.1149 40.7351C16.1658 40.6793 16.1959 40.6077 16.2002 40.5323C16.2045 40.4569 16.1827 40.3823 16.1384 40.3212C16.0941 40.26 16.03 40.216 15.957 40.1965Z" fill="#D8BFA0"/>
</svg>