<svg width="239" height="417" viewBox="0 0 239 417" fill="none" xmlns="http://www.w3.org/2000/svg">
<path d="M159.62 128.662C160.647 129.269 161.811 129.606 163.003 129.643C192.062 131.469 221.966 149.5 231.708 182.922C256.707 269.015 176.433 264.38 171.866 321.279C167.773 373.679 212.866 377.265 212.866 413.901L67.8782 414.476C67.8782 414.476 50.1523 401.148 50.9641 362.956C52.96 256.397 215.91 245.369 129.378 158.836L159.62 128.662Z" stroke="#0E062B" stroke-width="3.38282" stroke-linecap="square" stroke-linejoin="bevel"/>
<path d="M204.748 182.787C232.758 267.628 144.737 264.245 140.17 321.144C135.975 373.679 181.068 377.265 181.068 413.901" stroke="#0E062B" stroke-width="3.38282" stroke-linecap="square" stroke-linejoin="bevel"/>
<path d="M94.2306 413.529C90.8478 410.485 77.6887 396.378 78.2976 362.956C80.2934 256.397 243.278 245.369 156.711 158.837" stroke="#0E062B" stroke-width="3.38282" stroke-linecap="square" stroke-linejoin="bevel"/>
<path d="M132.963 105.557C135.638 108.225 139.044 110.041 142.75 110.775C146.456 111.509 150.297 111.127 153.787 109.679C157.276 108.231 160.259 105.782 162.357 102.64C164.455 99.4975 165.575 95.804 165.575 92.0258C165.575 88.2476 164.455 84.5541 162.357 81.412C160.259 78.2699 157.276 75.8201 153.787 74.3722C150.297 72.9242 146.456 72.543 142.75 73.2767C139.044 74.0104 135.638 75.8262 132.963 78.4946C131.179 80.2677 129.764 82.376 128.798 84.6982C127.832 87.0204 127.335 89.5107 127.335 92.0258C127.335 94.541 127.832 97.0312 128.798 99.3534C129.764 101.676 131.179 103.784 132.963 105.557Z" stroke="#0E062B" stroke-width="10.1485" stroke-linecap="square" stroke-linejoin="bevel"/>
<path d="M92.8114 164.824C103.367 164.824 111.924 156.267 111.924 145.711C111.924 135.155 103.367 126.598 92.8114 126.598C82.2557 126.598 73.6984 135.155 73.6984 145.711C73.6984 156.267 82.2557 164.824 92.8114 164.824Z" stroke="#0E062B" stroke-width="10.1485" stroke-linecap="square" stroke-linejoin="bevel"/>
<path d="M89.6305 135.428C113.31 143.31 121.158 166.922 121.158 166.922L167.774 120.306C167.774 120.306 144.094 112.458 136.246 88.8123C128.398 65.1664 134.554 39.8291 111.483 16.1832C106.236 10.8146 99.802 6.75346 92.6982 4.32678C85.5945 1.90011 78.0201 1.17576 70.5852 2.21211L38.0086 34.8226L35.6406 37.1567L3.13172 69.8347C2.08174 77.2701 2.79964 84.8484 5.22709 91.9544C7.65454 99.0604 11.7232 105.494 17.1028 110.733C40.681 133.804 66.0184 127.613 89.6305 135.428Z" stroke="#0E062B" stroke-width="3.38282" stroke-linecap="square" stroke-linejoin="bevel"/>
<path d="M110.129 17.6038C110.129 17.6038 73.4597 73.9276 18.3873 109.38" stroke="#0E062B" stroke-width="3.38282" stroke-linecap="square" stroke-linejoin="bevel"/>
<path d="M124.441 36.0061C124.441 36.0061 89.9358 89.0488 38.0433 122.437" stroke="#0E062B" stroke-width="3.38282" stroke-linecap="square" stroke-linejoin="bevel"/>
<path d="M3.13004 69.8347C0.660578 67.3652 13.7521 50.2144 32.4253 31.575C51.0984 12.9357 68.2155 -0.189651 70.685 2.31364C73.1544 4.81692 60.0629 21.934 41.4236 40.5733C22.7843 59.2127 5.56567 72.338 3.13004 69.8347Z" fill="#0E062B" stroke="#0E062B" stroke-width="3.38282" stroke-linecap="square" stroke-linejoin="bevel"/>
<path d="M121.156 166.989C118.552 164.384 126.84 151.834 139.728 138.946C152.617 126.057 165.133 117.769 167.738 120.374C170.343 122.979 162.055 135.529 149.166 148.384C136.278 161.238 123.761 169.594 121.156 166.989Z" fill="#0E062B" stroke="#0E062B" stroke-width="3.38282" stroke-linecap="square" stroke-linejoin="bevel"/>
<path d="M130.158 292.492C112.161 316.375 108.981 335.285 113.244 351.793C119.569 376.893 142.099 386.805 142.099 414.476" stroke="#0E062B" stroke-width="3.38282" stroke-linecap="square" stroke-linejoin="bevel"/>
<path d="M206.474 85.7339V104.475" stroke="#0E062B" stroke-width="3.38282" stroke-linecap="square" stroke-linejoin="bevel"/>
<path d="M215.843 95.104H197.102" stroke="#0E062B" stroke-width="3.38282" stroke-linecap="square" stroke-linejoin="bevel"/>
<path d="M155.765 9.68774V28.4625" stroke="#0E062B" stroke-width="3.38282" stroke-linecap="square" stroke-linejoin="bevel"/>
<path d="M165.134 19.092H146.393" stroke="#0E062B" stroke-width="3.38282" stroke-linecap="square" stroke-linejoin="bevel"/>
<path d="M73.1203 223.076C73.1203 223.076 86.8545 223.922 86.8545 242.223H87.2943C87.2943 223.922 101.029 223.076 101.029 223.076V222.603C101.029 222.603 87.2943 221.791 87.2943 203.456H86.8545C86.8545 221.791 73.1203 222.603 73.1203 222.603V223.076Z" stroke="#0E062B" stroke-width="3.38282" stroke-linecap="square" stroke-linejoin="bevel"/>
<path d="M42.3038 182.787C42.3038 183.397 42.1223 183.994 41.7826 184.501C41.4428 185.008 40.9601 185.402 40.3956 185.634C39.8311 185.866 39.2105 185.925 38.6124 185.803C38.0144 185.682 37.4659 185.385 37.0367 184.951C36.6076 184.518 36.3171 183.966 36.2022 183.367C36.0872 182.767 36.1531 182.147 36.3913 181.585C36.6295 181.023 37.0292 180.545 37.5399 180.211C38.0506 179.877 38.649 179.702 39.2593 179.709C39.662 179.709 40.0606 179.788 40.4322 179.944C40.8038 180.099 41.141 180.326 41.4241 180.612C41.7073 180.898 41.9308 181.238 42.0818 181.611C42.2328 181.985 42.3083 182.384 42.3038 182.787Z" fill="#0E062B"/>
</svg>
