<svg width="270" height="372" viewBox="0 0 270 372" fill="none" xmlns="http://www.w3.org/2000/svg">
<path d="M121.756 358.955C120.877 358.38 101.967 348.604 101.967 348.604L114.957 340.045L173.987 331.96H192.863H197.87H216.746C216.746 331.96 224.56 341.872 223.511 341.128C222.463 340.384 203.417 349.551 203.417 349.551L231.19 348.672C231.19 348.672 242.117 366.093 242.421 366.973C242.56 368.447 242.56 369.93 242.421 371.404H12.3896L20.7113 359.903H45.778L121.756 358.955Z" fill="#0E062B"/>
<path d="M191.544 213.426C191.544 213.426 189.65 265.59 184.203 280.542L185.286 311.224L190.191 316.941L190.935 331.96H209.811L199.426 312.374L197.498 280.339C197.498 280.339 212.179 232.269 216.239 226.213L218.539 194.516L191.544 213.426Z" fill="#0E062B"/>
<path d="M32.01 202.771C32.01 202.771 23.1132 202.026 17.7006 214.035C12.2881 226.044 6.09756 232.133 0.143799 233.994C2.03921 235.04 4.21254 235.471 6.36367 235.229C8.51481 234.986 10.5376 234.082 12.1528 232.641L12.4234 232.37C18.9185 226.992 10.935 236.7 10.935 236.7C10.935 236.7 19.0538 236.362 26.6651 224.624C31.14 218.274 33.0492 210.468 32.01 202.771Z" fill="#0E062B"/>
<path d="M238.599 40.5981L228.45 15.7682C228.111 14.9802 227.618 14.268 226.999 13.6737C226.381 13.0794 225.649 12.6149 224.848 12.3076C224.048 12.0004 223.193 11.8566 222.336 11.8847C221.478 11.9128 220.635 12.1123 219.856 12.4713C219.077 12.8304 218.378 13.3418 217.799 13.9753C217.221 14.6089 216.775 15.3519 216.489 16.1604C216.202 16.9689 216.08 17.8267 216.13 18.6831C216.18 19.5394 216.401 20.3772 216.78 21.1469C219.148 25.6798 221.719 30.5849 222.023 30.7879C227.34 34.3983 232.876 37.6747 238.599 40.5981Z" fill="#0E062B"/>
<path d="M58.7345 132.746V151.487" stroke="#0E062B" stroke-width="3.38282" stroke-linecap="square" stroke-linejoin="bevel"/>
<path d="M68.1048 142.117H49.364" stroke="#0E062B" stroke-width="3.38282" stroke-linecap="square" stroke-linejoin="bevel"/>
<path d="M92.1225 100.609C92.1225 100.609 105.857 101.455 105.857 119.756H106.297C106.297 101.455 120.031 100.609 120.031 100.609V100.136C120.031 100.136 106.297 99.2901 106.297 80.989H105.857C105.857 99.2901 92.1225 100.136 92.1225 100.136V100.609Z" stroke="#0E062B" stroke-width="3.38282" stroke-linecap="square" stroke-linejoin="bevel"/>
<path d="M257.948 91.0021V109.777" stroke="#0E062B" stroke-width="3.38282" stroke-linecap="square" stroke-linejoin="bevel"/>
<path d="M267.319 100.373H248.578" stroke="#0E062B" stroke-width="3.38282" stroke-linecap="square" stroke-linejoin="bevel"/>
<path d="M61.8127 81.0228C61.8127 81.6317 61.6322 82.2268 61.294 82.7331C60.9557 83.2393 60.4749 83.6339 59.9124 83.8669C59.3499 84.0999 58.731 84.1608 58.1338 84.042C57.5367 83.9233 56.9882 83.6301 56.5576 83.1996C56.1271 82.769 55.8339 82.2205 55.7152 81.6234C55.5964 81.0262 55.6573 80.4073 55.8903 79.8448C56.1233 79.2823 56.5179 78.8015 57.0241 78.4633C57.5304 78.125 58.1255 77.9445 58.7344 77.9445C59.5508 77.9445 60.3338 78.2688 60.9111 78.8461C61.4884 79.4234 61.8127 80.2064 61.8127 81.0228Z" fill="#0E062B"/>
<path d="M183.29 27.9802C186.222 32.2775 188.004 37.2545 188.466 42.4362C188.928 47.618 188.054 52.8317 185.928 57.5799C182.305 64.4094 179.641 71.7062 178.012 79.2638C177.37 83.357 176.625 88.3974 175.847 93.4378C173.354 109.64 165.73 124.615 154.096 136.163C145.717 144.486 135.513 150.741 124.293 154.43L78.659 169.517C63.3642 174.421 49.4516 182.884 38.0651 194.212C33.5668 198.177 30.1453 203.216 28.1196 208.86C26.7327 215.084 28.1196 244.684 44.1204 254.189C44.1204 254.189 40.0272 277.869 26.7327 286.225C28.8254 307.184 25.1648 328.318 16.1445 347.352L27.8152 359.835H38.6741L32.5511 344.105C32.5511 344.105 39.08 310.953 41.245 304.695C43.41 298.437 88.6045 245.496 88.6045 245.496C88.6045 245.496 134.036 246.037 167.526 227.025C167.526 227.025 165.631 265.59 160.185 280.542L161.267 311.224L166.173 316.941L166.917 331.96H185.793L175.408 312.374L173.479 280.339C173.479 280.339 188.161 232.066 192.22 226.213C194.351 223.101 201.692 215.05 208.221 208.115C215.642 200.169 221.292 190.737 224.797 180.444L231.563 160.451C236.866 144.862 236.984 127.976 231.901 112.314C228.281 101.184 225.135 89.4122 225.643 85.2513C226.996 76.5575 227.808 73.5806 227.808 73.5806L240.053 66.815L249.83 66.0031C249.83 66.0031 257.949 60.2861 253.889 47.8035C253.889 47.8035 225.913 36.4034 212.889 23.3457C199.865 10.288 181.632 -7.09967 154.739 7.6156C127.845 22.3309 139.279 58.6624 161.504 58.6624C183.729 58.6624 188.939 27.1683 168.033 27.1683C168.033 27.1683 180.786 36.8432 170.875 45.3679C160.963 53.8926 142.966 34.0016 163.399 22.5338C173.446 16.9184 179.061 21.8573 183.29 27.9802Z" stroke="#0E062B" stroke-width="3.38282" stroke-linecap="square" stroke-linejoin="bevel"/>
<path d="M202.843 44.5221C207.109 42.7736 211.54 41.459 216.069 40.5981C216.069 40.5981 207.579 33.2235 202.843 44.5221Z" fill="#0E062B"/>
<path d="M93.4418 209.063C95.5053 232.742 88.3337 245.496 88.3337 245.496C88.3337 245.496 91.1415 245.496 95.8774 245.293C97.1974 233.167 96.373 220.903 93.4418 209.063Z" fill="#0E062B" stroke="#0E062B" stroke-width="3.38282" stroke-linecap="square" stroke-linejoin="bevel"/>
<path d="M167.526 210.551C167.526 210.551 166.003 221.139 164.143 228.92L167.526 227.025C167.849 221.539 167.849 216.038 167.526 210.551Z" fill="#0E062B" stroke="#0E062B" stroke-width="3.38282" stroke-linecap="square" stroke-linejoin="bevel"/>
<path d="M196.652 59.9479C196.652 59.9479 206.259 72.7688 208.492 75.8133C210.724 78.8579 225.643 85.2514 225.643 85.2514C226.996 76.5575 227.808 73.5807 227.808 73.5807C227.808 73.5807 212.247 71.9569 209.439 71.145C206.631 70.3331 196.652 59.9479 196.652 59.9479Z" fill="#0E062B" stroke="#0E062B" stroke-width="3.38282" stroke-linecap="square" stroke-linejoin="bevel"/>
<path d="M88.4693 245.597C88.4693 245.597 78.3208 257.572 67.3605 270.799C64.843 276.971 60.6332 282.307 55.2162 286.191C57.3297 307.151 53.668 328.29 44.6279 347.319L56.231 359.835H67.0899L60.8655 344.105C60.8655 344.105 67.3605 310.953 69.5593 304.695C71.7581 298.437 116.919 245.496 116.919 245.496C133.755 245.308 150.504 243.036 166.782 238.73C167.323 231.964 167.56 227.059 167.56 227.059C134.036 246.037 88.4693 245.597 88.4693 245.597Z" fill="#0E062B"/>
</svg>
