<svg width="334" height="324" viewBox="0 0 334 324" fill="none" xmlns="http://www.w3.org/2000/svg">
<path d="M51.3059 180.683C51.3059 180.683 106.581 146.855 133.644 86.4037L75.4254 109.644C75.4254 109.644 79.5186 72.4327 123.056 58.9014C123.056 58.9014 69.5393 40.8371 29.5544 86.3361C-10.4306 131.835 5.43486 167.524 5.43486 167.524L51.3059 180.683Z" stroke="#0E062B" stroke-width="3.38282" stroke-linecap="square" stroke-linejoin="bevel"/>
<path d="M47.754 190.189L27.1864 211.298C3.67583 193.064 10.2723 169.114 10.2723 169.114L45.7243 179.262L47.754 190.189Z" fill="#0E062B"/>
<path d="M55.3333 187L48.5677 190.383L28.0001 211.492C28.0001 211.492 27.5941 235.746 86.5567 235.916C86.8379 223.11 90.1537 210.554 96.2316 199.28L55.3333 187Z" stroke="#0E062B" stroke-width="3.38282" stroke-linecap="square" stroke-linejoin="bevel"/>
<path d="M282.42 180.683C282.42 180.683 227.145 146.855 200.082 86.4037L258.335 109.644C258.335 109.644 254.208 72.4327 210.671 58.9014C210.671 58.9014 264.187 40.8371 304.206 86.3361C344.224 131.835 328.291 167.524 328.291 167.524L282.42 180.683Z" stroke="#0E062B" stroke-width="3.38282" stroke-linecap="square" stroke-linejoin="bevel"/>
<path d="M286 190.075L306.568 211.184C330.078 192.95 323.482 169 323.482 169L288.03 179.148L286 190.075Z" fill="#0E062B"/>
<path d="M306.54 211.298L285.972 190.189L279.207 186.806L238.308 198.984C244.401 210.253 247.717 222.812 247.983 235.62C306.98 235.552 306.54 211.298 306.54 211.298Z" stroke="#0E062B" stroke-width="3.38282" stroke-linecap="square" stroke-linejoin="bevel"/>
<path d="M51.4751 309.67L97.0755 267.452C91.011 259.834 87.1605 250.694 85.9459 241.032C79.4848 249.185 58.8496 277.127 51.4751 309.67Z" fill="#0E062B"/>
<path d="M100.424 271.681C90.2887 285.542 82.8734 301.199 78.5713 317.822L113.854 285.144C109.037 281.01 104.547 276.508 100.424 271.681Z" fill="#0E062B"/>
<path d="M104 322.983L130.454 298.457C126.597 295.852 122.673 293.011 118.817 290C111.997 300.049 106.983 311.21 104 322.983Z" fill="#0E062B"/>
<path d="M243.18 9.3092V28.0839" stroke="#0E062B" stroke-width="3.38282" stroke-linecap="square" stroke-linejoin="bevel"/>
<path d="M252.55 18.7135H233.809" stroke="#0E062B" stroke-width="3.38282" stroke-linecap="square" stroke-linejoin="bevel"/>
<path d="M33.4785 252.466V271.207" stroke="#0E062B" stroke-width="3.38282" stroke-linecap="square" stroke-linejoin="bevel"/>
<path d="M42.8489 261.837H24.108" stroke="#0E062B" stroke-width="3.38282" stroke-linecap="square" stroke-linejoin="bevel"/>
<path d="M152.52 21.6904C152.52 21.6904 166.254 22.5023 166.254 40.8034H166.728C166.728 22.5023 180.462 21.6904 180.462 21.6904V21.2168C180.462 21.2168 166.728 20.3711 166.728 2.07007H166.254C166.254 20.3711 152.52 21.2168 152.52 21.2168V21.6904Z" stroke="#0E062B" stroke-width="3.38282" stroke-linecap="square" stroke-linejoin="bevel"/>
<path d="M116.933 21.3182C116.933 21.9271 116.752 22.5223 116.414 23.0285C116.076 23.5347 115.595 23.9293 115.032 24.1623C114.47 24.3953 113.851 24.4562 113.254 24.3375C112.657 24.2187 112.108 23.9255 111.677 23.495C111.247 23.0645 110.954 22.5159 110.835 21.9188C110.716 21.3216 110.777 20.7027 111.01 20.1402C111.243 19.5777 111.638 19.0969 112.144 18.7587C112.65 18.4204 113.245 18.2399 113.854 18.2399C114.258 18.2399 114.659 18.3195 115.032 18.4742C115.406 18.6289 115.745 18.8556 116.031 19.1415C116.317 19.4274 116.544 19.7667 116.698 20.1402C116.853 20.5137 116.933 20.914 116.933 21.3182Z" fill="#0E062B"/>
<path d="M85.7092 237.616C85.7092 264.171 114.159 287.749 137.399 302.532C146.194 308.165 156.419 311.159 166.863 311.159C177.307 311.159 187.532 308.165 196.327 302.532C219.567 287.749 248.017 264.171 248.017 237.616C248.017 216.084 239.463 195.433 224.238 180.208C209.012 164.982 188.362 156.428 166.829 156.428C145.297 156.428 124.646 164.982 109.421 180.208C94.1952 195.433 85.6415 216.084 85.6415 237.616H85.7092Z" stroke="#0E062B" stroke-width="3.38282" stroke-linecap="square" stroke-linejoin="bevel"/>
<path d="M282.285 309.67L236.651 267.452C242.724 259.836 246.586 250.696 247.814 241.032C254.241 249.185 274.877 277.127 282.285 309.67Z" fill="#0E062B"/>
<path d="M233.302 271.681C243.437 285.542 250.853 301.199 255.155 317.822L219.872 285.144C224.689 281.01 229.179 276.508 233.302 271.681Z" fill="#0E062B"/>
<path d="M228.464 323.337L201.977 298.811C205.833 296.206 209.757 293.365 213.614 290.354C220.445 300.4 225.471 311.562 228.464 323.337Z" fill="#0E062B"/>
<path d="M178.703 157.341C192.48 159.391 205.495 164.96 216.489 173.511C206.78 140.089 181.105 155.887 178.703 157.341Z" fill="#0E062B"/>
<path d="M155.023 157.341C141.247 159.391 128.232 164.96 117.237 173.511C126.946 140.089 152.655 155.887 155.023 157.341Z" fill="#0E062B"/>
</svg>
