<svg width="326" height="413" viewBox="0 0 326 413" fill="none" xmlns="http://www.w3.org/2000/svg">
<path d="M265.263 61.1703C263.287 60.1171 261.214 59.2561 259.073 58.5993C255.523 57.3857 251.769 56.8835 248.025 57.1215C244.281 57.3594 240.621 58.333 237.253 59.9863C231.953 62.9369 227.592 67.3218 224.669 72.638C209.142 98.7872 210.935 123.854 194.224 144.76C177.513 165.666 160.193 184.17 140.471 194.995C131.493 199.683 121.837 202.936 111.852 204.636C105.087 196.878 97.7121 188.195 89.7286 178.588C82.41 170.177 77.0532 160.244 74.046 149.508C71.0387 138.772 70.4563 127.502 72.3409 116.513C72.713 114.416 74.8104 105.688 78.0918 104.267C81.8379 102.734 85.9291 102.243 89.9316 102.847C108.842 104.809 143.482 107.616 160.599 74.9721C160.599 74.9721 110.432 55.8592 93.7204 60.2568C79.817 63.8765 73.4235 88.5034 70.954 97.1973C72.9499 88.4358 85.0266 55.4871 52.45 49.4995C36.3668 46.2681 20.115 43.9416 3.7712 42.5309C3.7712 42.5309 -2.99445 63.7411 15.7125 84.0381C24.677 93.7806 40.8469 98.5504 54.5811 101.121C55.3786 101.274 56.1358 101.591 56.8051 102.05C57.4744 102.51 58.0413 103.103 58.4702 103.793C58.8991 104.482 59.1808 105.253 59.2974 106.057C59.414 106.86 59.3632 107.679 59.148 108.462C58.4376 111.101 57.5242 113.841 56.9153 115.228C41.3881 155.483 53.1265 186.741 73.6602 215.393C64.2675 219.535 55.4083 224.793 47.2743 231.055C24.4064 248.849 3.2976 276.521 3.2976 315.964C3.2976 363.527 22.8165 408.417 98.6255 408.417C167.737 408.417 203.222 335.314 167.364 271.243C173.656 267.779 179.448 263.478 184.583 258.456C184.583 258.456 203.087 303.854 189.962 342.655V356.693L195.949 375.197H211.443L203.865 355.476V340.151C203.865 340.151 216.415 281.29 228.357 260.486C240.298 239.682 270.134 202.065 271.318 171.01C272.502 139.956 252.206 111.98 252.206 111.98L258.971 108.327C266.402 111.618 274.573 112.878 282.651 111.98L283.26 128.049L289.823 139.381L293.408 120.877L306.534 102.982L265.263 61.1703ZM51.6381 327.094C49.6422 292.014 73.5249 276.351 110.736 277.874C115.167 278.043 119.531 278.347 123.861 278.618C132.86 291.845 139.185 305.139 139.997 319.212C143.279 378.986 54.1752 373.371 51.6381 327.094Z" stroke="#0E062B" stroke-width="3.38282" stroke-linecap="square" stroke-linejoin="bevel"/>
<path d="M259.073 58.5993C261.214 59.2562 263.287 60.1171 265.264 61.1703L272.74 68.7817C272.029 51.5293 266.853 12.0178 234.412 2.41063C224.701 -0.706141 214.221 -0.443828 204.677 3.15485C239.114 4.88009 254.608 44.4591 259.073 58.5993Z" fill="#0E062B"/>
<path d="M264.012 86.0678C268.288 84.3234 272.731 83.0199 277.272 82.1776C277.272 82.1776 268.781 74.7353 264.012 86.0678Z" fill="#0E062B"/>
<path d="M309.443 235.284L264.418 198.073C258.722 211.031 251.931 223.48 244.121 235.284C264.857 247.597 293.814 251.657 293.814 251.657L268.139 283.861L260.358 289.206L250.819 291.608V308.319L270.54 296.378L314.111 252.198L309.443 235.284Z" fill="#0E062B"/>
<path d="M258.701 108.327C258.701 108.327 244.358 100.885 241.381 87.7593C241.3 92.3334 242.217 96.8702 244.069 101.053C245.921 105.237 248.663 108.966 252.104 111.98L258.701 108.327Z" fill="#0E062B" stroke="#0E062B" stroke-width="3.38282" stroke-linecap="square" stroke-linejoin="bevel"/>
<path d="M123.76 278.618C124.809 280.174 125.824 281.73 126.771 283.286L127.109 283.794C128.056 285.282 128.936 286.77 129.781 288.259C129.781 288.462 130.018 288.665 130.12 288.902C130.965 290.39 131.777 291.912 132.522 293.401L132.724 293.841C133.029 294.45 133.333 295.058 133.604 295.667C166.654 287.075 167.432 271.548 167.432 271.548C152.311 279.7 138.272 279.497 123.76 278.618Z" fill="#0E062B" stroke="#0E062B" stroke-width="3.38282" stroke-linecap="square" stroke-linejoin="bevel"/>
<path d="M109.89 204.974L111.852 204.636L105.357 197.025C92.731 199.647 80.2984 203.128 68.1462 207.444C69.9391 210.218 71.7996 212.992 73.7617 215.698C85.3015 210.607 97.4417 207.004 109.89 204.974Z" fill="#0E062B" stroke="#0E062B" stroke-width="3.38282" stroke-linecap="square" stroke-linejoin="bevel"/>
<path d="M178.359 264.207C180.556 262.511 182.656 260.692 184.651 258.761L178.088 235.284C178.088 235.284 178.494 249.627 178.359 264.207Z" fill="#0E062B" stroke="#0E062B" stroke-width="3.38282" stroke-linecap="square" stroke-linejoin="bevel"/>
<path d="M260.46 63.5721C260.46 63.5721 260.02 61.6777 259.073 58.5993C254.54 44.1547 238.505 3.08722 202.58 3.08722C165.369 3.08722 149.03 39.6894 165.369 63.5721C165.369 63.5721 162.967 18.9865 202.58 18.9865C222.877 18.9865 232.653 39.8247 237.254 59.9863C237.964 63.1323 238.539 66.2445 239.047 69.2552" stroke="#0E062B" stroke-width="3.38282" stroke-linecap="square" stroke-linejoin="bevel"/>
<path d="M160.903 399.723C159.855 399.114 137.054 389.372 137.054 389.372L152.717 380.779L223.756 372.728H246.455H252.476H275.209C275.209 372.728 284.613 382.674 283.531 381.929C282.448 381.185 259.377 390.353 259.377 390.353L292.766 389.473C292.766 389.473 305.925 406.895 306.297 407.774C306.47 409.246 306.47 410.733 306.297 412.206H29.3792L39.5277 400.704H69.7024L160.903 399.723Z" fill="#0E062B"/>
<path d="M234.31 68.7819L215.806 57.0773C215.806 57.0773 214.216 82.8543 234.31 82.8543" stroke="#0E062B" stroke-width="3.38282" stroke-linecap="square" stroke-linejoin="bevel"/>
<path d="M25.8611 45.8121C25.8611 45.8121 22.6812 67.5298 33.6077 81.264" stroke="#0E062B" stroke-width="3.38282" stroke-linecap="square" stroke-linejoin="bevel"/>
<path d="M45.3123 48.8568C45.3123 48.8568 42.1324 70.5745 53.0589 84.275" stroke="#0E062B" stroke-width="3.38282" stroke-linecap="square" stroke-linejoin="bevel"/>
<path d="M141.283 68.4435C141.283 68.4435 135.228 89.5523 119.599 97.5358" stroke="#0E062B" stroke-width="3.38282" stroke-linecap="square" stroke-linejoin="bevel"/>
<path d="M122.272 63.3015C122.272 63.3015 116.25 84.3765 100.622 92.3938" stroke="#0E062B" stroke-width="3.38282" stroke-linecap="square" stroke-linejoin="bevel"/>
<path d="M130.458 132.311V151.052" stroke="#0E062B" stroke-width="3.38282" stroke-linecap="square" stroke-linejoin="bevel"/>
<path d="M139.828 141.682H121.087" stroke="#0E062B" stroke-width="3.38282" stroke-linecap="square" stroke-linejoin="bevel"/>
<path d="M314.213 166.85V185.59" stroke="#0E062B" stroke-width="3.38282" stroke-linecap="square" stroke-linejoin="bevel"/>
<path d="M323.583 176.22H304.843" stroke="#0E062B" stroke-width="3.38282" stroke-linecap="square" stroke-linejoin="bevel"/>
<path d="M290.871 30.285C290.871 30.285 304.606 31.0969 304.606 49.398H305.045C305.045 31.0969 318.78 30.285 318.78 30.285V29.8114C318.78 29.8114 305.045 28.9657 305.045 10.6646H304.606C304.606 28.9657 290.871 29.8114 290.871 29.8114V30.285Z" stroke="#0E062B" stroke-width="3.38282" stroke-linecap="square" stroke-linejoin="bevel"/>
<path d="M28.4998 200.61C28.4998 201.219 28.3193 201.814 27.981 202.321C27.6428 202.827 27.162 203.221 26.5995 203.454C26.037 203.687 25.418 203.748 24.8209 203.629C24.2237 203.511 23.6752 203.218 23.2447 202.787C22.8142 202.357 22.521 201.808 22.4022 201.211C22.2834 200.614 22.3444 199.995 22.5774 199.432C22.8104 198.87 23.205 198.389 23.7112 198.051C24.2174 197.712 24.8126 197.532 25.4215 197.532C26.2379 197.532 27.0209 197.856 27.5982 198.434C28.1755 199.011 28.4998 199.794 28.4998 200.61Z" fill="#0E062B"/>
</svg>
