<svg width="453" height="339" viewBox="0 0 453 339" fill="none" xmlns="http://www.w3.org/2000/svg">
<path d="M185.1 323.875C184.22 323.3 166.224 313.93 166.224 313.93L179.247 305.371L272.579 296.474H366.487H382.048C382.048 296.474 389.896 306.386 388.813 305.642C387.731 304.898 368.753 314.065 368.753 314.065L396.492 313.185C396.492 313.185 407.419 330.607 407.723 331.487C407.879 332.96 407.879 334.445 407.723 335.918H111.05L119.405 324.349H167.746L185.1 323.875Z" fill="#0E062B"/>
<path d="M93.3592 200.064C77.0815 203.265 60.6015 205.334 44.0376 206.255C38.784 206.705 33.6891 208.282 29.1006 210.88C24.512 213.478 20.5377 217.035 17.4487 221.308C10.9198 229.833 3.91739 240.083 2.19215 245.834C-0.85239 256.929 33.2464 238.391 36.2572 246.679L41.5344 244.176C41.5344 244.176 41.9065 230.205 18.3959 238.73L24.0113 231.084C27.0292 226.733 30.9411 223.076 35.4855 220.357C40.03 217.639 45.1023 215.922 50.3635 215.321C60.5856 214.394 70.8544 214.089 81.1134 214.407C101.579 215.321 93.3592 200.064 93.3592 200.064Z" stroke="#0E062B" stroke-width="3.38282" stroke-linecap="square" stroke-linejoin="bevel"/>
<path d="M40.0119 241.03C40.0119 241.03 35.073 244.413 36.3247 253.749C37.5763 263.086 36.3247 269.412 33.889 273.031C33.889 273.031 38.0837 272.829 39.7413 267.145C39.7296 267.056 39.7296 266.965 39.7413 266.875C41.2974 260.955 40.4179 270.088 40.4179 270.088C40.4179 270.088 44.5788 266.435 44.5788 256.253C44.8869 250.8 43.2706 245.413 40.0119 241.03Z" fill="#0E062B" stroke="#0E062B" stroke-width="3.38282" stroke-miterlimit="10"/>
<path d="M162.132 26.7283V45.4692" stroke="#0E062B" stroke-width="3.38282" stroke-linecap="square" stroke-linejoin="bevel"/>
<path d="M171.501 36.0988H152.76" stroke="#0E062B" stroke-width="3.38282" stroke-linecap="square" stroke-linejoin="bevel"/>
<path d="M108.176 105.041C108.176 105.041 121.91 105.886 121.91 124.187H122.35C122.35 105.886 136.084 105.041 136.084 105.041V104.77C136.084 104.77 122.35 103.924 122.35 85.6232H121.91C121.91 103.924 108.176 104.77 108.176 104.77V105.041Z" stroke="#0E062B" stroke-width="3.38282" stroke-linecap="square" stroke-linejoin="bevel"/>
<path d="M71.9788 106.461V125.236" stroke="#0E062B" stroke-width="3.38282" stroke-linecap="square" stroke-linejoin="bevel"/>
<path d="M81.3508 115.832H62.61" stroke="#0E062B" stroke-width="3.38282" stroke-linecap="square" stroke-linejoin="bevel"/>
<path d="M392.738 253.377C392.738 253.986 392.557 254.581 392.219 255.087C391.881 255.594 391.4 255.988 390.838 256.221C390.275 256.454 389.656 256.515 389.059 256.396C388.462 256.278 387.913 255.984 387.483 255.554C387.052 255.123 386.759 254.575 386.64 253.978C386.522 253.381 386.582 252.762 386.815 252.199C387.048 251.637 387.443 251.156 387.949 250.818C388.456 250.479 389.051 250.299 389.66 250.299C390.476 250.299 391.259 250.623 391.836 251.2C392.414 251.778 392.738 252.561 392.738 253.377Z" fill="#0E062B"/>
<path d="M450.956 60.7933C449.433 57.4105 429.373 44.9955 429.373 44.9955C425.009 38.0608 414.218 31.6672 414.218 31.6672C414.218 31.6672 402.48 1.22181 344.6 2.20283L351.027 11.7762C351.027 11.7762 311.448 -9.29874 272.985 10.8967C256.071 19.8612 246.769 30.1111 241.83 38.7373C230.832 43.1637 221.245 50.4949 214.091 59.9476C198.8 82.3419 196.195 124.661 196.195 124.661L216.12 110.183L193.151 142.252C174.512 158.151 158.748 161.872 133.241 168.333C107.735 174.794 92.6473 200.233 92.6473 200.233C92.6473 200.233 95.7257 248.777 76.1391 267.517C56.5526 286.258 54.895 281.252 54.895 281.252L50.4297 311.697L48.603 324.281L56.079 336.392H95.0153C95.0153 336.392 99.6159 324.383 87.3363 324.383C82.8231 324.539 78.3047 324.426 73.805 324.044C73.805 324.044 67.5468 324.823 71.0649 311.697L76.0715 292.855C76.0715 292.855 94.3387 291.333 120.048 276.448C145.758 261.564 154.654 241.267 168.05 235.854C181.446 230.442 210.809 235.617 236.417 241.098C246.724 242.981 257.237 243.47 267.674 242.552L264.63 272.051L262.769 284.668L270.245 296.779H309.317C309.317 296.779 313.951 284.736 301.672 284.736C297.159 284.893 292.64 284.78 288.141 284.398C288.141 284.398 281.882 285.21 285.4 272.051L290.407 253.208C290.407 253.208 301.875 244.142 319.33 232.911C340.845 226.349 359.924 216.978 369.768 205.849L363.983 220.632C363.983 220.632 382.014 212.479 390.437 196.275L388.678 208.048C388.678 208.048 402.953 196.309 403.968 185.653C405.088 177.86 407.429 170.291 410.903 163.225L408.298 180.883C414.283 173.874 417.926 165.169 418.717 155.986C436.308 142.455 426.532 107.815 428.866 109.438C431.2 111.062 437.661 115.663 437.661 115.663C440.81 111.458 442.783 106.49 443.377 101.271C443.972 96.0508 443.167 90.767 441.044 85.9615L445.881 76.0837C445.881 76.0837 452.478 64.1761 450.956 60.7933Z" stroke="#0E062B" stroke-width="3.38282" stroke-linecap="square" stroke-linejoin="bevel"/>
<path d="M424.13 50.814C423.262 49.7689 422.157 48.9457 420.908 48.4123C419.658 47.8788 418.299 47.6506 416.944 47.7465C415.589 47.8424 414.276 48.2595 413.113 48.9635C411.951 49.6675 410.974 50.6381 410.261 51.795C413.531 51.2693 416.829 50.9417 420.139 50.814C423.082 53.0503 426.603 54.3999 430.287 54.7042L424.13 50.814Z" fill="#0E062B"/>
<path d="M434.01 62.62C433.774 64.4129 433.74 66.6117 438.273 67.6942C439.791 68.0538 441.283 68.5173 442.738 69.0812L447.812 71.1109" stroke="#0E062B" stroke-width="3.38282" stroke-linecap="square" stroke-linejoin="bevel"/>
<path d="M167.815 235.922C166.876 236.306 165.961 236.747 165.075 237.241C168.119 244.007 173.701 269.547 162.064 283.18C154.935 291.492 146.49 298.577 137.065 304.153L147.214 324.281H167.747L163.958 304.356C163.958 304.356 203.842 279.256 209.999 266.029C213.783 256.94 216.529 247.453 218.185 237.749C197.956 233.926 178.133 231.896 167.815 235.922Z" fill="#0E062B"/>
<path d="M377.754 57.5796C382.352 51.4113 384.509 43.7608 383.809 36.0987C393.488 32.3275 403.903 30.8231 414.254 31.701C414.254 31.701 402.516 1.25566 344.636 2.23668L351.063 11.8101C351.063 11.8101 311.484 -9.26494 273.021 10.9305C256.107 19.895 246.805 30.145 241.866 38.7712C230.868 43.1976 221.28 50.5288 214.127 59.9814C198.836 82.3757 196.231 124.695 196.231 124.695L216.122 110.183C215.266 122.51 218.117 134.811 224.308 145.505C230.499 156.2 239.748 164.797 250.864 170.194L251.642 156.865C251.642 156.865 252.657 174.456 266.154 184.841L279.246 153.11C279.246 153.11 301.369 145.533 310.909 183.015C320.449 220.496 369.432 206.018 369.432 206.018L363.647 220.801C363.647 220.801 381.678 212.648 390.101 196.444L388.342 208.217C388.342 208.217 402.617 196.478 403.632 185.822C404.752 178.029 407.092 170.46 410.567 163.394L407.962 181.053C413.947 174.043 417.59 165.338 418.381 156.155C435.972 142.624 426.196 107.984 428.53 109.607C428.53 109.607 416.318 96.3129 403.801 96.2791C391.285 96.2453 353.025 92.5918 377.754 57.5796Z" fill="#0E062B"/>
<path d="M320.415 232.573L361.347 297.252H380.46L351.672 219.448C341.747 224.876 331.283 229.252 320.448 232.505L320.415 232.573Z" fill="#0E062B"/>
<path d="M203.198 219.515C165.006 222.357 159.797 241.03 159.797 241.03C162.168 238.895 164.877 237.169 167.814 235.922C170.627 234.908 173.562 234.271 176.542 234.028C185.134 223.778 203.198 219.515 203.198 219.515Z" fill="#0E062B" stroke="#0E062B" stroke-width="3.38282" stroke-linecap="square" stroke-linejoin="bevel"/>
<path d="M267.439 242.62L271.194 224.725C271.194 224.725 300.083 209.84 300.557 192.723" stroke="#0E062B" stroke-width="3.38282" stroke-linecap="square" stroke-linejoin="bevel"/>
</svg>
