<svg width="396" height="303" viewBox="0 0 396 303" fill="none" xmlns="http://www.w3.org/2000/svg">
<path d="M206.468 224.159V102.918H189.554V224.328C194.974 222.11 201.049 222.11 206.468 224.328V224.159Z" fill="#0E062B"/>
<path d="M181.469 60.8699C151.836 61.3435 144.021 66.6883 110.599 79.3739C107.287 80.7034 103.898 81.8331 100.451 82.7567C94.46 84.2346 88.1317 83.3837 82.7442 80.376C77.3568 77.3683 73.3116 72.428 71.4259 66.553C70.6884 64.1268 69.3406 61.9305 67.5113 60.1742C65.6821 58.418 63.4326 57.1605 60.9784 56.5224C58.5241 55.8842 55.9473 55.8866 53.4942 56.5294C51.0412 57.1721 48.794 58.4337 46.9681 60.1933C40.2024 66.959 40.5746 79.949 56.1017 87.5942C83.1643 100.923 106.844 100.314 139.556 82.3846C152.283 75.5661 167.097 73.7445 181.097 77.2766V64.4218C181.095 63.228 181.22 62.0375 181.469 60.8699Z" stroke="#0E062B" stroke-width="3.38282" stroke-linecap="square" stroke-linejoin="bevel"/>
<path d="M198.045 27.3799C180.454 46.2223 181.131 60.8022 181.131 60.8022H214.959C214.959 60.8022 215.602 46.2223 198.045 27.3799Z" fill="#0E062B" stroke="#0E062B" stroke-width="3.38282" stroke-linecap="square" stroke-linejoin="bevel"/>
<path d="M214.925 92.9729V60.8022H181.097V92.9729C181.097 92.9729 180.082 110.834 198.011 110.834C215.94 110.834 214.925 92.9729 214.925 92.9729Z" stroke="#0E062B" stroke-width="3.38282" stroke-linecap="square" stroke-linejoin="bevel"/>
<path d="M236.711 288.229C230.933 288.229 225.391 285.934 221.306 281.849C217.22 277.763 214.925 272.222 214.925 266.444V239.145C214.925 234.659 213.143 230.357 209.971 227.185C206.799 224.013 202.497 222.231 198.011 222.231C193.525 222.231 189.223 224.013 186.051 227.185C182.879 230.357 181.097 234.659 181.097 239.145V266.444C181.097 272.222 178.802 277.763 174.716 281.849C170.631 285.934 165.089 288.229 159.312 288.229H135.869V295.502H260.052V288.229H236.711Z" stroke="#0E062B" stroke-width="3.38282" stroke-linecap="square" stroke-linejoin="bevel"/>
<path d="M311.843 295.502H84.2471V302.775H311.843V295.502Z" fill="#0E062B"/>
<path d="M205.826 19.5657C205.826 21.1127 205.366 22.6248 204.506 23.9106C203.646 25.1964 202.424 26.1979 200.994 26.7884C199.564 27.3788 197.991 27.5316 196.474 27.2273C194.957 26.9231 193.565 26.1755 192.474 25.0792C191.382 23.983 190.641 22.5875 190.343 21.0694C190.045 19.5513 190.205 17.9791 190.801 16.5518C191.398 15.1245 192.405 13.9064 193.694 13.0519C194.984 12.1973 196.498 11.7447 198.045 11.7514C200.112 11.7604 202.091 12.5876 203.549 14.0521C205.007 15.5166 205.826 17.4991 205.826 19.5657Z" fill="#0E062B"/>
<path d="M64.9987 91.3153L2.55188 218.881H127.446L64.9987 91.3153Z" stroke="#0E062B" stroke-width="3.38282" stroke-linecap="square" stroke-linejoin="bevel"/>
<path d="M2.55188 218.882H127.378C123.008 231.978 114.629 243.367 103.428 251.438C92.227 259.509 78.7708 263.852 64.9649 263.852C51.1589 263.852 37.7028 259.509 26.5016 251.438C15.3004 243.367 6.92173 231.978 2.55188 218.882Z" fill="#0E062B" stroke="#0E062B" stroke-width="3.38282" stroke-linecap="square" stroke-linejoin="bevel"/>
<path d="M214.925 60.8699C244.559 61.3435 252.373 66.6883 285.795 79.3739C289.108 80.7034 292.496 81.8331 295.944 82.7567C301.935 84.2346 308.263 83.3837 313.65 80.376C319.038 77.3683 323.083 72.428 324.969 66.553C325.706 64.1268 327.054 61.9305 328.883 60.1742C330.712 58.418 332.962 57.1605 335.416 56.5224C337.87 55.8842 340.447 55.8866 342.9 56.5294C345.353 57.1721 347.6 58.4337 349.426 60.1933C356.192 66.959 355.82 79.949 340.293 87.5942C313.23 100.923 289.55 100.314 256.839 82.3846C244.112 75.563 229.297 73.7412 215.297 77.2766V64.4218C215.299 63.228 215.174 62.0375 214.925 60.8699Z" stroke="#0E062B" stroke-width="3.38282" stroke-linecap="square" stroke-linejoin="bevel"/>
<path d="M331.396 91.3153L393.877 218.881H268.949L331.396 91.3153Z" stroke="#0E062B" stroke-width="3.38282" stroke-linecap="square" stroke-linejoin="bevel"/>
<path d="M393.843 218.882H269.017C273.387 231.978 281.765 243.367 292.966 251.438C304.168 259.509 317.624 263.852 331.43 263.852C345.236 263.852 358.692 259.509 369.893 251.438C381.094 243.367 389.473 231.978 393.843 218.882Z" fill="#0E062B" stroke="#0E062B" stroke-width="3.38282" stroke-linecap="square" stroke-linejoin="bevel"/>
<path d="M116.147 24.0987V42.8396" stroke="#0E062B" stroke-width="3.38282" stroke-linecap="square" stroke-linejoin="bevel"/>
<path d="M125.518 33.4691H106.777" stroke="#0E062B" stroke-width="3.38282" stroke-linecap="square" stroke-linejoin="bevel"/>
<path d="M228.152 128.56C228.152 128.56 241.886 129.406 241.886 147.707H242.36C242.36 129.406 256.06 128.56 256.06 128.56V128.087C256.06 128.087 242.36 127.275 242.36 108.94H241.886C241.886 127.275 228.152 128.087 228.152 128.087V128.56Z" stroke="#0E062B" stroke-width="3.38282" stroke-linecap="square" stroke-linejoin="bevel"/>
<path d="M149.738 156.063V174.837" stroke="#0E062B" stroke-width="3.38282" stroke-linecap="square" stroke-linejoin="bevel"/>
<path d="M159.109 165.433H140.368" stroke="#0E062B" stroke-width="3.38282" stroke-linecap="square" stroke-linejoin="bevel"/>
<path d="M281.127 3.63253C281.127 4.24137 280.947 4.83654 280.608 5.34278C280.27 5.84901 279.789 6.24362 279.227 6.47661C278.665 6.70961 278.046 6.77053 277.448 6.65175C276.851 6.53297 276.303 6.23982 275.872 5.8093C275.442 5.37878 275.149 4.83024 275.03 4.2331C274.911 3.63595 274.972 3.017 275.205 2.45451C275.438 1.89201 275.832 1.41121 276.339 1.07296C276.845 0.734702 277.44 0.554199 278.049 0.554199C278.865 0.554199 279.648 0.878501 280.226 1.45581C280.803 2.03311 281.127 2.81609 281.127 3.63253Z" fill="#0E062B"/>
</svg>
