<svg width="344" height="385" viewBox="0 0 344 385" fill="none" xmlns="http://www.w3.org/2000/svg">
<path d="M58.2431 53.6605L56.5517 55.2842C40.0197 71.9225 30.1787 94.0561 28.9001 117.476C27.6215 140.897 34.9945 163.97 49.617 182.309C53.2579 186.961 57.4622 191.142 62.1334 194.758C63.2835 195.637 65.2455 197.227 66.9708 198.851C67.4957 199.333 67.9149 199.918 68.2017 200.57C68.4884 201.223 68.6365 201.927 68.6365 202.64C68.6365 203.352 68.4884 204.057 68.2017 204.709C67.9149 205.361 67.4957 205.947 66.9708 206.429C58.0063 214.649 48.23 225.575 46.0988 236.874C41.6335 260.554 56.2473 273.07 56.2473 273.07C67.6959 264.518 78.6511 255.325 89.0606 245.534C110.44 226.117 86.3206 207.274 80.8066 201.727C86.6589 207.038 102.693 222.294 114.635 218.641C129.012 214.209 157.36 176.998 157.36 176.998C129.688 160.727 105.332 178.69 92.2743 188.872C89.5642 191.133 86.3111 192.649 82.8362 193.269C79.7578 193.709 74.21 188.195 72.9246 186.808C63.7424 176.436 58.1232 163.395 56.89 149.597C56.6549 145.846 56.6549 142.084 56.89 138.332C56.89 136.641 57.1945 134.95 57.4313 133.157C64.1969 75.8856 129.621 74.0588 138.213 119.152C140.769 133.595 146.505 147.289 155.007 159.242C163.508 171.195 174.561 181.108 187.365 188.263C230.361 145.267 229.955 94.1866 197.717 61.9483C165.479 29.71 102.22 12.7622 58.2431 53.6605Z" stroke="#0E062B" stroke-width="3.38282" stroke-linecap="square" stroke-linejoin="bevel"/>
<path d="M145.35 191.747C142.333 188.597 138.618 186.2 134.505 184.748C130.392 183.297 125.995 182.832 121.67 183.392" stroke="#0E062B" stroke-width="3.38282" stroke-linecap="square" stroke-linejoin="bevel"/>
<path d="M132.664 205.346C129.647 202.196 125.933 199.798 121.82 198.347C117.706 196.896 113.31 196.431 108.984 196.991" stroke="#0E062B" stroke-width="3.38282" stroke-linecap="square" stroke-linejoin="bevel"/>
<path d="M68.3912 263.463C65.7465 259.789 63.9472 255.576 63.1226 251.125C62.2979 246.675 62.4683 242.097 63.6214 237.719" stroke="#0E062B" stroke-width="3.38282" stroke-linecap="square" stroke-linejoin="bevel"/>
<path d="M82.295 250.98C79.6602 247.295 77.8673 243.077 77.0431 238.622C76.2189 234.168 76.3835 229.587 77.5253 225.203" stroke="#0E062B" stroke-width="3.38282" stroke-linecap="square" stroke-linejoin="bevel"/>
<path d="M142.339 31.7397C142.339 31.7397 113.145 24.0269 86.5565 55.7239L143.083 72.2659" stroke="#0E062B" stroke-width="3.38282" stroke-linecap="square" stroke-linejoin="bevel"/>
<path d="M138.075 118.915C140.18 112.458 143.781 106.589 148.584 101.786C153.386 96.9832 159.255 93.3827 165.713 91.2775" stroke="#0E062B" stroke-width="3.38282" stroke-linecap="square" stroke-linejoin="bevel"/>
<path d="M192.405 26.395C185.471 37.9304 154.315 33.9387 141.223 31.7399C162.478 36.1672 182.028 46.5644 197.581 61.7117C203.544 67.6673 208.542 74.515 212.398 82.0086C230.09 51.1234 203.332 0.0090332 203.332 0.0090332C201.114 9.3287 197.425 18.2356 192.405 26.395Z" fill="#0E062B"/>
<path d="M191.83 124.767C194.639 131.665 196.747 138.828 198.122 146.147C198.122 146.147 210.03 132.446 191.83 124.767Z" fill="#0E062B"/>
<path d="M311.953 331.018L313.644 329.394C330.176 312.756 340.017 290.622 341.296 267.202C342.575 243.782 335.202 220.709 320.579 202.369C316.938 197.718 312.734 193.536 308.063 189.921C306.913 189.041 304.951 187.451 303.225 185.827C302.705 185.343 302.29 184.757 302.006 184.105C301.722 183.453 301.576 182.75 301.576 182.039C301.576 181.328 301.722 180.624 302.006 179.972C302.29 179.321 302.705 178.734 303.225 178.25C312.19 170.03 321.966 159.103 324.097 147.805C328.563 124.125 313.949 111.608 313.949 111.608C302.508 120.17 291.553 129.363 281.136 139.144C259.756 158.562 283.876 177.404 289.39 182.918C283.537 177.641 267.503 162.351 255.561 166.004C241.117 170.639 212.769 207.85 212.769 207.85C240.44 224.121 264.797 206.158 277.854 195.976C280.568 193.699 283.836 192.182 287.326 191.578C290.371 191.138 295.952 196.652 297.204 198.039C306.419 208.457 312.041 221.562 313.239 235.42C313.474 239.171 313.474 242.933 313.239 246.684C313.239 248.376 312.934 250.067 312.697 251.86C305.932 309.131 240.508 310.924 231.915 265.865C229.359 251.422 223.623 237.727 215.122 225.774C206.621 213.821 195.568 203.909 182.763 196.754C139.767 239.75 140.173 290.83 172.412 323.068C204.65 355.307 267.976 371.916 311.953 331.018Z" stroke="#0E062B" stroke-width="3.38282" stroke-linecap="square" stroke-linejoin="bevel"/>
<path d="M224.846 192.931C227.864 196.079 231.579 198.475 235.692 199.926C239.804 201.377 244.2 201.843 248.526 201.287" stroke="#0E062B" stroke-width="3.38282" stroke-linecap="square" stroke-linejoin="bevel"/>
<path d="M237.531 179.332C240.55 182.481 244.264 184.876 248.377 186.328C252.49 187.779 256.886 188.245 261.211 187.688" stroke="#0E062B" stroke-width="3.38282" stroke-linecap="square" stroke-linejoin="bevel"/>
<path d="M301.805 121.182C304.448 124.862 306.246 129.081 307.071 133.537C307.895 137.993 307.726 142.576 306.575 146.959" stroke="#0E062B" stroke-width="3.38282" stroke-linecap="square" stroke-linejoin="bevel"/>
<path d="M287.9 133.698C290.535 137.383 292.328 141.602 293.152 146.056C293.977 150.51 293.812 155.091 292.67 159.475" stroke="#0E062B" stroke-width="3.38282" stroke-linecap="square" stroke-linejoin="bevel"/>
<path d="M227.856 352.939C227.856 352.939 257.05 360.651 283.639 328.954L227.112 312.412" stroke="#0E062B" stroke-width="3.38282" stroke-linecap="square" stroke-linejoin="bevel"/>
<path d="M232.117 265.763C230.012 272.221 226.411 278.09 221.609 282.892C216.806 287.695 210.937 291.296 204.479 293.401" stroke="#0E062B" stroke-width="3.38282" stroke-linecap="square" stroke-linejoin="bevel"/>
<path d="M177.792 358.283C184.727 346.748 215.882 350.74 228.974 352.939C207.709 348.483 188.157 338.05 172.616 322.865C166.654 316.91 161.655 310.062 157.799 302.568C140.107 333.454 166.865 384.568 166.865 384.568C169.094 375.283 172.782 366.412 177.792 358.283Z" fill="#0E062B"/>
<path d="M178.367 259.911C175.558 253.014 173.45 245.851 172.074 238.532C172.074 238.532 160.201 252.232 178.367 259.911Z" fill="#0E062B"/>
<path d="M257.286 61.5424V80.2832" stroke="#0E062B" stroke-width="3.38282" stroke-linecap="square" stroke-linejoin="bevel"/>
<path d="M266.656 70.9128H247.881" stroke="#0E062B" stroke-width="3.38282" stroke-linecap="square" stroke-linejoin="bevel"/>
<path d="M11.3547 191.612V210.353" stroke="#0E062B" stroke-width="3.38282" stroke-linecap="square" stroke-linejoin="bevel"/>
<path d="M20.7268 200.982H1.98596" stroke="#0E062B" stroke-width="3.38282" stroke-linecap="square" stroke-linejoin="bevel"/>
<path d="M85.3044 301.96C85.3044 301.96 99.0387 302.805 99.0387 321.106H99.5123C99.5123 302.805 113.247 301.96 113.247 301.96V301.486C113.247 301.486 99.5123 300.674 99.5123 282.373H99.0387C99.0387 300.674 85.3044 301.486 85.3044 301.486V301.96Z" stroke="#0E062B" stroke-width="3.38282" stroke-linecap="square" stroke-linejoin="bevel"/>
<path d="M300.486 45.8123C300.492 46.4225 300.317 47.021 299.983 47.5317C299.649 48.0423 299.171 48.4421 298.609 48.6803C298.047 48.9185 297.427 48.9843 296.828 48.8694C296.228 48.7545 295.677 48.464 295.243 48.0348C294.809 47.6057 294.512 47.0572 294.391 46.4592C294.269 45.8611 294.328 45.2404 294.56 44.676C294.792 44.1115 295.187 43.6288 295.694 43.289C296.201 42.9492 296.797 42.7678 297.407 42.7678C297.81 42.7633 298.209 42.8387 298.583 42.9897C298.956 43.1407 299.296 43.3643 299.582 43.6474C299.868 43.9306 300.096 44.2677 300.251 44.6393C300.406 45.0109 300.486 45.4096 300.486 45.8123Z" fill="#0E062B"/>
</svg>
