<svg width="411" height="437" viewBox="0 0 411 437" fill="none" xmlns="http://www.w3.org/2000/svg">
<path d="M239.944 278.729C239.944 278.729 238.016 330.893 232.604 345.845L233.686 376.459L238.557 382.176L239.335 397.196H258.211L247.792 377.609L245.864 345.574C245.864 345.574 260.546 297.504 264.605 291.449L266.905 259.752L239.944 278.729Z" fill="#0E062B"/>
<path d="M213.457 102.451C225.09 100.521 236.912 99.9871 248.672 100.861C270.559 102.045 277.324 107.22 277.324 107.22C278.827 121.683 277.681 136.299 273.942 150.351L273.13 153.396C273.13 160.161 280.606 177.617 280.606 177.617C285.689 193.279 285.57 210.165 280.267 225.754L273.502 245.747C269.985 256.042 264.324 265.473 256.892 273.418C250.397 280.184 243.056 288.404 240.925 291.516C236.866 297.504 222.184 345.642 222.184 345.642L224.079 377.677L234.498 397.263H215.622L214.844 382.244L209.803 376.459L208.653 346.014C214.066 331.062 215.994 292.497 215.994 292.497C182.572 311.509 136.937 310.968 136.937 310.968C136.937 310.968 91.8443 363.943 89.5778 370.201C87.3113 376.459 80.884 409.577 80.884 409.577L87.1422 425.307H76.4525L64.7479 412.824C73.7886 393.808 77.4615 372.683 75.37 351.731C88.6645 343.307 92.7239 319.661 92.7239 319.661C83.2181 314.012 79.3617 299.094 77.8056 287.897C77.0945 283.134 77.4087 278.273 78.7272 273.641C80.0456 269.009 82.3379 264.712 85.4508 261.037L86.7024 259.684C98.0889 248.356 112.002 239.893 127.296 234.989L172.761 219.936C183.973 216.214 194.173 209.95 202.564 201.635C214.202 190.093 221.816 175.113 224.282 158.91L217.922 151.975L218.125 158.132C213.641 154.921 210.488 150.18 209.262 144.803L205.879 148.186L203.714 136.854L210.852 117.132" stroke="#0E062B" stroke-width="3.38282" stroke-linecap="square" stroke-linejoin="bevel"/>
<path d="M142.113 274.366C144.143 298.046 137.005 310.799 137.005 310.799C137.005 310.799 139.813 310.799 144.549 310.596C145.869 298.47 145.044 286.206 142.113 274.366Z" fill="#0E062B" stroke="#0E062B" stroke-width="3.38282" stroke-linecap="square" stroke-linejoin="bevel"/>
<path d="M216.061 275.854C216.061 275.854 214.539 286.476 212.679 294.223C213.863 293.614 215.047 293.005 216.061 292.328C216.385 286.842 216.385 281.341 216.061 275.854Z" fill="#0E062B" stroke="#0E062B" stroke-width="3.38282" stroke-linecap="square" stroke-linejoin="bevel"/>
<path d="M137.005 310.799C137.005 310.799 126.856 322.774 115.896 336.001C113.391 342.226 109.182 347.62 103.752 351.562C105.843 372.51 102.182 393.633 93.1633 412.655L104.834 425.138H115.693L109.469 409.408C109.469 409.408 115.964 376.256 118.162 370.032C120.361 363.807 165.522 310.799 165.522 310.799C182.347 310.612 199.085 308.339 215.351 304.033C215.926 297.267 216.163 292.362 216.163 292.362C182.639 311.34 137.005 310.799 137.005 310.799Z" fill="#0E062B"/>
<path d="M261.154 112.159L262.71 90.5092L243.631 90.7121L238.929 91.8623L237.441 100.556" stroke="#0E062B" stroke-width="3.38282" stroke-linecap="square" stroke-linejoin="bevel"/>
<path d="M248.401 42.135C238.692 43.9279 231.487 53.8733 231.893 61.0449C232.299 68.2165 218.598 100.286 224.146 95.482L243.631 90.7122L262.71 90.5093L279.252 107.423H281.654L275.87 74.7792L259.97 71.3963L255.37 63.6497L275.667 70.9904L275.091 51.9113L269.713 53.2982C269.713 53.2982 267.92 38.583 248.401 42.135Z" stroke="#0E062B" stroke-width="3.38282" stroke-linecap="square" stroke-linejoin="bevel"/>
<path d="M212.205 28.2654C188.796 43.5558 217.584 74.8469 183.553 98.1545C187.674 98.4601 191.8 97.6278 195.48 95.7487C199.161 93.8696 202.255 91.0158 204.425 87.4986L197.287 99.643C197.287 99.643 219.952 97.6471 219.952 60.842C219.952 33.0014 240.587 45.6193 240.587 45.6193L252.224 41.5599C252.224 41.5599 235.986 12.7044 212.205 28.2654Z" fill="#0E062B"/>
<path d="M55.2422 268.006C54.4642 224.198 95.3624 252.58 95.3624 252.58L101.113 247.574C101.113 247.574 78.9896 212.189 48.8825 229.002C0.880268 255.828 53.8552 292.328 0.846436 344.762C0.846436 344.762 41.0344 352.576 53.4831 321.387C63.9361 295.271 55.5128 281.74 55.2422 268.006Z" fill="#0E062B"/>
<path d="M170.292 424.258C169.412 423.683 150.468 413.907 150.468 413.907L163.492 405.349L222.522 397.264H241.399H246.405H265.281C265.281 397.264 273.096 407.175 272.216 406.431C271.337 405.687 252.122 414.854 252.122 414.854L279.895 413.975C279.895 413.975 290.822 431.396 291.092 432.276C291.248 433.749 291.248 435.234 291.092 436.707H61.0604L69.3821 425.206H94.4488L170.292 424.258Z" fill="#0E062B"/>
<path d="M210.852 103.127C201.938 106.572 193.288 110.664 184.973 115.373C180.063 118.377 175.402 121.771 171.036 125.522L173.032 131.678C176.584 133.888 180.502 135.446 184.601 136.279C190.183 137.057 226.785 137.463 226.785 137.463C229.503 138.724 232.383 139.601 235.343 140.068C237.203 139.311 238.982 138.371 240.654 137.26L244.308 129.513L250.667 127.315C250.586 126.283 250.157 125.309 249.451 124.553C248.744 123.797 247.801 123.304 246.777 123.154C243.09 122.545 237.745 118.993 234.159 121.259C229.731 123.611 224.827 124.929 219.816 125.116C216.027 125.116 206.285 117.572 194.547 119.771" stroke="#0E062B" stroke-width="3.38282" stroke-linecap="square" stroke-linejoin="bevel"/>
<path d="M368.457 122.748C368.457 122.748 363.282 120.887 360.305 120.075C357.328 119.263 351.746 122.68 351.746 122.68C351.746 122.68 347.383 123.458 336.219 119.872C325.056 116.286 314.535 117.098 307.77 115.508C301.004 113.918 277.324 107.153 277.324 107.153C278.034 114.36 278.102 121.617 277.527 128.837L294.238 130.63C302.436 130.254 310.65 130.787 318.73 132.219C331.652 134.621 342.004 131.441 349.548 134.215C354.54 135.913 359.807 136.659 365.075 136.414C367.946 132.476 369.16 127.57 368.457 122.748Z" fill="#0E062B"/>
<path d="M246.777 123.153H396.738" stroke="#0E062B" stroke-width="3.38282" stroke-linecap="square" stroke-linejoin="bevel"/>
<path d="M410.337 123.153L387.368 115.914L390.953 123.153L387.368 130.359L410.337 123.153Z" fill="#0E062B"/>
<path d="M300.936 1.71027C300.936 26.2019 310.544 37.7035 329.487 56.8165C353.911 81.4096 381.583 104.616 360.609 123.154" stroke="#0E062B" stroke-width="3.38282" stroke-linecap="square" stroke-linejoin="bevel"/>
<path d="M300.936 244.529C300.936 220.037 310.544 208.536 329.487 189.423C353.911 164.83 381.583 141.657 360.609 123.12" stroke="#0E062B" stroke-width="3.38282" stroke-linecap="square" stroke-linejoin="bevel"/>
<path d="M301.41 15.0726L246.777 123.154L301.173 230.761" stroke="#0E062B" stroke-width="3.38282" stroke-linecap="square" stroke-linejoin="bevel"/>
<path d="M256.723 273.418C263.488 252.885 254.456 221.255 237.441 205.119" stroke="#0E062B" stroke-width="3.38282" stroke-linecap="square" stroke-linejoin="bevel"/>
<path d="M262.778 145.413C262.778 160.432 271.032 173.287 272.216 191.994C273.4 210.701 269.848 219.53 269.848 219.53" stroke="#0E062B" stroke-width="3.38282" stroke-linecap="square" stroke-linejoin="bevel"/>
<path d="M243.632 90.7121C244.24 90.7121 261.763 103.871 261.763 103.871L262.711 90.5092L243.632 90.7121Z" fill="#0E062B"/>
<path d="M313.52 71.4301V90.2048" stroke="#0E062B" stroke-width="3.38282" stroke-linecap="square" stroke-linejoin="bevel"/>
<path d="M322.891 80.8005H304.15" stroke="#0E062B" stroke-width="3.38282" stroke-linecap="square" stroke-linejoin="bevel"/>
<path d="M354.723 215.099V233.84" stroke="#0E062B" stroke-width="3.38282" stroke-linecap="square" stroke-linejoin="bevel"/>
<path d="M364.094 224.469H345.319" stroke="#0E062B" stroke-width="3.38282" stroke-linecap="square" stroke-linejoin="bevel"/>
<path d="M122.763 170.107C122.763 170.107 136.497 170.953 136.497 189.254H136.971C136.971 170.953 150.705 170.107 150.705 170.107V169.633C150.705 169.633 136.971 168.821 136.971 150.52H136.497C136.497 168.821 122.763 169.633 122.763 169.633V170.107Z" stroke="#0E062B" stroke-width="3.38282" stroke-linecap="square" stroke-linejoin="bevel"/>
<path d="M319.644 294.223C319.644 294.833 319.462 295.429 319.122 295.936C318.783 296.443 318.3 296.838 317.735 297.07C317.171 297.302 316.55 297.361 315.952 297.239C315.354 297.118 314.806 296.821 314.377 296.387C313.947 295.953 313.657 295.402 313.542 294.802C313.427 294.203 313.493 293.583 313.731 293.021C313.969 292.459 314.369 291.981 314.88 291.646C315.39 291.312 315.989 291.138 316.599 291.144C317.002 291.144 317.4 291.224 317.772 291.379C318.144 291.534 318.481 291.762 318.764 292.048C319.047 292.334 319.271 292.674 319.422 293.047C319.573 293.42 319.648 293.82 319.644 294.223Z" fill="#0E062B"/>
</svg>
