<svg width="344" height="323" viewBox="0 0 344 323" fill="none" xmlns="http://www.w3.org/2000/svg">
<path d="M135.72 133.981C135.72 133.981 163.966 151.538 167.349 176.571C155.753 163.752 143.115 151.917 129.563 141.186C131.127 138.407 133.218 135.96 135.72 133.981Z" stroke="#0E062B" stroke-width="3.38282" stroke-linecap="square" stroke-linejoin="bevel"/>
<path d="M135.72 133.981C135.72 133.981 123.136 146.396 124.726 157.153C118.907 153.77 115.321 151.91 115.321 151.91C115.321 151.91 117.825 134.15 135.72 133.981Z" stroke="#0E062B" stroke-width="3.38282" stroke-linecap="square" stroke-linejoin="bevel"/>
<path d="M166.977 148.155C166.977 148.155 195.223 165.712 198.64 190.745C187.098 177.933 174.516 166.098 161.023 155.36C162.582 152.587 164.661 150.141 167.146 148.155" stroke="#0E062B" stroke-width="3.38282" stroke-linecap="square" stroke-linejoin="bevel"/>
<path d="M166.977 148.155C166.977 148.155 154.427 160.57 156.017 171.327C150.198 167.944 146.579 166.084 146.579 166.084C146.579 166.084 149.082 148.189 166.977 148.155Z" stroke="#0E062B" stroke-width="3.38282" stroke-linecap="square" stroke-linejoin="bevel"/>
<path d="M192.889 161.991C192.889 161.991 221.136 179.548 224.519 204.614C212.934 191.786 200.307 179.939 186.766 169.196C188.325 166.423 190.404 163.976 192.889 161.991Z" stroke="#0E062B" stroke-width="3.38282" stroke-linecap="square" stroke-linejoin="bevel"/>
<path d="M192.889 161.991C192.889 161.991 180.305 174.44 181.895 185.163C176.077 181.78 172.491 179.92 172.491 179.92C172.491 179.92 174.994 162.058 192.889 161.991Z" stroke="#0E062B" stroke-width="3.38282" stroke-linecap="square" stroke-linejoin="bevel"/>
<path d="M220.189 278.969C220.189 300.788 223.03 309.008 252.731 319.563C282.433 330.117 305.774 307.757 305.774 307.757L262.981 298.352L300.835 291.587C286.996 281.483 271.394 274.048 254.829 269.666C248.73 268.319 242.396 268.465 236.365 270.09C230.334 271.716 224.785 274.773 220.189 279.003V278.969Z" fill="#0E062B"/>
<path d="M71.7505 9.29023C71.7505 9.29023 74.9303 0.19043 88.6646 0.19043C102.399 0.19043 102.839 10.0006 102.839 32.0566C102.839 54.1126 109.604 60.1002 109.604 60.1002C109.604 60.1002 71.9873 54.2141 71.9873 22.3479L71.7505 9.29023Z" fill="#0E062B"/>
<path d="M79.8356 154.278C82.7937 152.488 86.0469 151.24 89.4428 150.591C70.0592 136.349 28.1461 101.675 28.1461 67.9145C28.1461 23.9378 71.6491 22.4832 71.6491 22.4832V9.4255C71.6491 9.4255 14.5471 -6.47374 2.67342 59.5589C-6.9338 112.805 59.9446 171.936 77.0955 186.009C70.0592 172.85 69.0444 161.044 79.8356 154.278Z" stroke="#0E062B" stroke-width="3.38282" stroke-linecap="square" stroke-linejoin="bevel"/>
<path d="M210.818 278.969L199.655 293.21C204.729 302.818 217.855 300.686 222.523 298.251C220.62 292.01 219.83 285.483 220.189 278.969H210.818Z" fill="#0E062B"/>
<path d="M178.715 266.926C178.715 266.926 167.857 287.561 195.63 298.285L214.506 274.233L202.564 266.926C198.196 267.776 193.753 268.184 189.304 268.144C185.742 268.097 182.195 267.689 178.715 266.926Z" fill="#0E062B"/>
<path d="M256.25 222.205C265.924 203.092 272.047 197.341 302.73 203.701C333.412 210.061 344 241.758 344 241.758L302.324 227.651L332.532 253.293C315.69 254.936 298.689 253.305 282.466 248.489C276.401 246.362 270.893 242.894 266.354 238.343C261.815 233.792 258.361 228.276 256.25 222.205Z" fill="#0E062B"/>
<path d="M248.03 217.334L244.647 198.999C253.374 193.214 263.895 201.942 266.94 206.542C262.46 211.054 258.868 216.367 256.351 222.205L248.03 217.334Z" fill="#0E062B"/>
<path d="M214.54 211.109C214.54 211.109 214.167 187.43 243.294 192.47L249.18 223.389H235.479C232.042 220.382 228.327 217.709 224.384 215.406C221.249 213.659 217.952 212.22 214.54 211.109Z" fill="#0E062B"/>
<path d="M198.505 189.121C198.505 189.121 112.716 133.609 79.8354 154.278C46.9544 174.947 121.85 241.352 142.079 249.504C142.181 249.369 146.139 194.635 198.505 189.121Z" stroke="#0E062B" stroke-width="3.38282" stroke-linecap="square" stroke-linejoin="bevel"/>
<path d="M198.505 189.121C146.139 194.635 142.181 249.369 142.181 249.369C142.181 249.369 165.286 268.008 189.304 268.11C210.04 268.11 222.252 260.228 229.119 252.853C235.987 245.479 239.268 235.195 234.092 221.664C227.259 204.174 198.505 189.121 198.505 189.121Z" stroke="#0E062B" stroke-width="3.38282" stroke-linecap="square" stroke-linejoin="bevel"/>
<path d="M34.9455 42.3065C35.7069 41.1266 36.543 39.9967 37.4487 38.9237C33.8208 36.8803 30.6574 34.105 28.1591 30.774C25.6608 27.4429 23.8822 23.6289 22.9364 19.5739C21.7502 20.5337 20.6207 21.5616 19.5536 22.6523C22.069 30.8859 27.5548 37.8908 34.9455 42.3065Z" fill="#0E062B"/>
<path d="M28.3491 70.9252C28.3491 69.8653 28.3491 68.8166 28.3491 67.7792C28.3491 67.2379 28.3491 66.6967 28.3491 66.1555C24.2762 68.2808 19.7502 69.3908 15.1561 69.3908C10.562 69.3908 6.036 68.2808 1.96313 66.1555C1.96313 67.6439 1.96313 69.1662 1.96313 70.6884C6.42184 72.6541 11.231 73.7011 16.1033 73.7668C20.3417 73.7084 24.5181 72.7393 28.3491 70.9252Z" fill="#0E062B"/>
<path d="M41.2374 103.163C40.4255 101.946 39.6137 100.728 38.8356 99.51C35.4412 103.07 31.307 105.843 26.7246 107.631C22.1421 109.42 17.2231 110.181 12.3143 109.861L14.5808 114.191C19.5385 114.249 24.4565 113.302 29.038 111.406C33.6194 109.511 37.7694 106.707 41.2374 103.163Z" fill="#0E062B"/>
<path d="M62.9214 128.129L59.7754 125.05C54.5659 137.803 42.4554 143.284 36.0957 145.347C37.0767 146.565 38.0577 147.715 39.0387 148.73C44.1809 147.039 48.9381 144.349 53.0368 140.813C57.1354 137.278 60.4947 132.967 62.9214 128.129Z" fill="#0E062B"/>
<path d="M5.78552 247.204C5.78552 247.204 35.3176 213.816 58.5238 202.348C46.4471 203.194 37.4488 204.614 37.4488 204.614C37.4488 204.614 9.20217 222.171 5.78552 247.204Z" stroke="#0E062B" stroke-width="3.38282" stroke-linecap="square" stroke-linejoin="bevel"/>
<path d="M106.898 208.403C106.898 208.403 72.9008 210.399 60.1814 229.884C60.1814 229.884 96.3099 215.135 120.328 216.353L106.898 208.403Z" stroke="#0E062B" stroke-width="3.38282" stroke-linecap="square" stroke-linejoin="bevel"/>
<path d="M38.0915 275.552C38.0915 275.552 59.6401 238.645 79.1252 223.355C68.0972 226.738 60.0123 229.715 60.0123 229.715C60.0123 229.715 36.9414 251.669 38.0915 275.552Z" stroke="#0E062B" stroke-width="3.38282" stroke-linecap="square" stroke-linejoin="bevel"/>
<path d="M125.402 221.562C125.402 221.562 91.8783 228.666 81.121 249.504C81.121 249.504 114.712 229.207 138.629 227.584L125.402 221.562Z" stroke="#0E062B" stroke-width="3.38282" stroke-linecap="square" stroke-linejoin="bevel"/>
<path d="M63.7671 297.574C63.7671 297.574 81.6284 258.435 99.4897 240.98C88.8338 245.479 81.121 249.504 81.121 249.504C81.121 249.504 60.2828 273.962 63.7671 297.574Z" stroke="#0E062B" stroke-width="3.38282" stroke-linecap="square" stroke-linejoin="bevel"/>
<path d="M86.9395 192.504C86.9395 192.504 54.4306 187.226 37.4489 204.614C37.4489 204.614 75.7762 197.037 100.538 203.667L86.9395 192.504Z" stroke="#0E062B" stroke-width="3.38282" stroke-linecap="square" stroke-linejoin="bevel"/>
<path d="M218.531 232.083C223.511 224.942 230.292 219.246 238.185 215.575C217.719 210.467 218.531 230.256 218.531 232.083Z" fill="#0E062B"/>
<path d="M209.567 237.326C201.136 238.709 193.249 242.384 186.766 247.948C192.686 225.994 208.383 236.379 209.567 237.326Z" fill="#0E062B"/>
<path d="M225.872 134.252V152.992" stroke="#0E062B" stroke-width="3.38282" stroke-linecap="square" stroke-linejoin="bevel"/>
<path d="M235.242 143.622H216.501" stroke="#0E062B" stroke-width="3.38282" stroke-linecap="square" stroke-linejoin="bevel"/>
<path d="M220.493 54.8568C220.493 54.8568 234.228 55.7025 234.228 74.0035H234.667C234.667 55.7025 248.402 54.8568 248.402 54.8568V54.3832C248.402 54.3832 234.667 53.5713 234.667 35.2364H234.228C234.228 53.5713 220.493 54.3832 220.493 54.3832V54.8568Z" stroke="#0E062B" stroke-width="3.38282" stroke-linecap="square" stroke-linejoin="bevel"/>
<path d="M79.125 89.0908V107.832" stroke="#0E062B" stroke-width="3.38282" stroke-linecap="square" stroke-linejoin="bevel"/>
<path d="M88.4954 98.4613H69.7545" stroke="#0E062B" stroke-width="3.38282" stroke-linecap="square" stroke-linejoin="bevel"/>
<path d="M28.4165 173.56C28.4232 174.17 28.2484 174.769 27.9143 175.279C27.5801 175.79 27.1018 176.19 26.5399 176.428C25.978 176.666 25.358 176.732 24.7587 176.617C24.1593 176.502 23.6076 176.212 23.1737 175.782C22.7398 175.353 22.4432 174.805 22.3217 174.207C22.2001 173.609 22.2591 172.988 22.4911 172.424C22.7231 171.859 23.1175 171.376 23.6244 171.037C24.1313 170.697 24.7279 170.515 25.3382 170.515C26.1488 170.515 26.9267 170.835 27.5031 171.405C28.0794 171.975 28.4076 172.749 28.4165 173.56Z" fill="#0E062B"/>
</svg>
