<svg width="490" height="489" viewBox="0 0 490 489" fill="none" xmlns="http://www.w3.org/2000/svg">
<mask id="mask0_210_1312" style="mask-type:alpha" maskUnits="userSpaceOnUse" x="0" y="0" width="490" height="489">
<path d="M489.144 244.653C489.144 109.786 379.813 0.454742 244.947 0.454742C110.08 0.454742 0.748779 109.786 0.748779 244.653C0.748779 379.519 110.08 488.85 244.947 488.85C379.813 488.85 489.144 379.519 489.144 244.653Z" fill="black"/>
</mask>
<g mask="url(#mask0_210_1312)">
<path d="M289.555 193.166C289.555 193.166 292.786 197.849 310.627 201.782C328.467 205.715 326.454 209.649 326.454 209.649C326.454 209.649 339.19 205.622 341.953 217.516C343.361 216.99 344.863 216.768 346.362 216.866C347.861 216.963 349.323 217.378 350.65 218.081C351.978 218.785 353.141 219.762 354.063 220.947C354.985 222.133 355.646 223.501 356.001 224.961C359.419 236.34 346.121 322.265 339.19 354.388C332.26 386.511 343.124 464.523 344.622 534.153C346.121 603.784 350.569 805.276 357.968 852.57C365.366 899.865 385.595 990.332 385.595 990.332C378.88 991.197 372.081 991.197 365.366 990.332C365.366 990.332 340.689 993.798 318.962 994.313C297.234 994.828 237.672 986.071 227.183 988.928C216.694 991.784 165.185 996.326 150.482 990.379C150.482 990.379 149.639 921.732 159.519 874.344C169.399 826.956 154.555 665.407 162.001 624.949C169.446 584.491 159.987 418.914 159.987 418.914L155.913 360.148C143.879 335.47 155.07 311.776 159.004 283.119C161.435 266.134 160.384 248.831 155.913 232.266C156.439 230.399 157.346 228.661 158.577 227.161C159.807 225.662 161.335 224.433 163.064 223.553C164.793 222.674 166.685 222.161 168.622 222.049C170.558 221.937 172.497 222.227 174.316 222.901C177.586 219.867 181.734 217.948 186.163 217.422C199.508 206.511 204.519 213.723 204.519 213.723C206.31 211.674 208.657 210.19 211.275 209.45C213.894 208.71 216.671 208.747 219.269 209.555C219.269 209.555 233.832 205.154 240.762 202.203" stroke="#0E062B" stroke-width="4.6826" stroke-linecap="square" stroke-linejoin="bevel"/>
<path d="M219.269 209.648C223.952 228.051 229.477 263.592 249.378 263.592C308.192 263.592 312.968 202.718 312.968 202.718" stroke="#0E062B" stroke-width="4.6826" stroke-linecap="square" stroke-linejoin="bevel"/>
<path d="M331.324 252.728L329.591 253.759C329.822 252.74 329.77 251.678 329.44 250.687C329.11 249.697 328.514 248.816 327.718 248.14C327.718 248.14 326.594 248.655 324.815 249.591C325.517 246.828 325.471 243.738 321.116 245.189C314.56 247.297 297 251.745 282.437 282.135C267.874 312.525 267.734 313.228 259.024 319.175C251.766 323.857 189.956 348.347 167.011 357.338L165.232 263.686C164.928 252.233 161.704 241.047 155.867 231.188C144.16 244.534 142.662 278.623 133.296 321.563C123.931 364.502 116.018 428.279 135.778 430.246C155.539 432.213 279.815 334.253 279.815 334.253C279.815 334.253 297.141 323.389 307.489 296.183C317.838 268.977 326.969 269.024 326.735 263.826L329.872 260.97C331.052 259.992 331.846 258.626 332.112 257.116C332.378 255.606 332.099 254.051 331.324 252.728Z" stroke="#0E062B" stroke-width="4.6826" stroke-linecap="square" stroke-linejoin="bevel"/>
<path d="M324.861 249.591C324.861 250.294 308.519 256.381 297.983 270.71" stroke="#0E062B" stroke-width="4.6826" stroke-linecap="square" stroke-linejoin="bevel"/>
<path d="M329.638 253.759C319.508 258.874 310.56 266.052 303.368 274.831" stroke="#0E062B" stroke-width="4.6826" stroke-linecap="square" stroke-linejoin="bevel"/>
<path d="M326.922 263.826C326.922 263.826 321.631 260.783 309.55 277.874" stroke="#0E062B" stroke-width="4.6826" stroke-linecap="square" stroke-linejoin="bevel"/>
<path d="M314.513 236.246C318.995 227.614 322.982 218.734 326.454 209.649" stroke="#0E062B" stroke-width="4.6826" stroke-linecap="square" stroke-linejoin="bevel"/>
<path d="M204.519 213.816C204.519 213.816 212.198 279.373 256.308 284.055C263.458 284.762 270.657 283.345 277.005 279.981" stroke="#0E062B" stroke-width="4.6826" stroke-linecap="square" stroke-linejoin="bevel"/>
<path d="M256.824 236.246C258.509 232.605 261.049 229.425 264.23 226.979C267.41 224.533 271.134 222.892 275.086 222.198C283.286 220.701 291.085 217.512 297.984 212.833" stroke="#0E062B" stroke-width="4.6826" stroke-linecap="square" stroke-linejoin="bevel"/>
<path d="M333.759 236.246C339.19 224.539 341.953 217.515 341.953 217.515" stroke="#0E062B" stroke-width="4.6826" stroke-linecap="square" stroke-linejoin="bevel"/>
<path d="M186.163 217.515C186.163 217.515 200.96 308.873 256.823 307.047" stroke="#0E062B" stroke-width="4.6826" stroke-linecap="square" stroke-linejoin="bevel"/>
<path d="M174.316 222.994C174.316 222.994 193.936 322.312 244.977 325.637" stroke="#0E062B" stroke-width="4.6826" stroke-linecap="square" stroke-linejoin="bevel"/>
<path d="M201.756 392.504C212.854 429.169 225.169 461.807 236.08 471.547" stroke="#0E062B" stroke-width="4.6826" stroke-linecap="square" stroke-linejoin="bevel"/>
<path d="M155.913 231.001C155.913 231.001 166.449 233.483 174.316 279.888C177.079 295.949 182.558 321.235 189.488 348.394" stroke="#0E062B" stroke-width="4.6826" stroke-linecap="square" stroke-linejoin="bevel"/>
<path d="M186.163 284.196C186.163 284.196 192.531 312.291 201.756 343.618" stroke="#0E062B" stroke-width="4.6826" stroke-linecap="square" stroke-linejoin="bevel"/>
<path d="M223.624 376.724C232.193 399.201 242.354 418.306 251.719 418.868" stroke="#0E062B" stroke-width="4.6826" stroke-linecap="square" stroke-linejoin="bevel"/>
<path d="M201.756 303.628C201.756 303.628 205.549 319.596 211.449 339.638" stroke="#0E062B" stroke-width="4.6826" stroke-linecap="square" stroke-linejoin="bevel"/>
<path d="M240.762 424.112C240.762 424.112 254.81 428.092 266.188 390.538C277.567 352.983 286.277 329.149 286.277 329.149" stroke="#0E062B" stroke-width="4.6826" stroke-linecap="square" stroke-linejoin="bevel"/>
<path d="M244.977 380.657C253.259 376.137 259.836 369.033 263.707 360.428" stroke="#0E062B" stroke-width="4.6826" stroke-linecap="square" stroke-linejoin="bevel"/>
<path d="M324.862 277.687C301.074 359.071 283.28 420.319 266.189 463.774C249.097 507.228 240.715 529.658 209.67 529.658" stroke="#0E062B" stroke-width="4.6826" stroke-linecap="square" stroke-linejoin="bevel"/>
<path d="M193.983 397.702C193.983 397.702 208.593 514.767 236.126 520.761" stroke="#0E062B" stroke-width="4.6826" stroke-linecap="square" stroke-linejoin="bevel"/>
<path d="M179.701 407.582C180.169 413.108 180.684 418.68 181.246 424.252C185.929 470.376 198.665 552.696 218.941 560.61" stroke="#0E062B" stroke-width="4.6826" stroke-linecap="square" stroke-linejoin="bevel"/>
<path d="M174.316 330.553C174.316 330.553 174.785 339.684 175.674 353.966" stroke="#0E062B" stroke-width="4.6826" stroke-linecap="square" stroke-linejoin="bevel"/>
<path d="M166.777 418.68C166.777 418.68 174.831 604.72 221.516 625.792" stroke="#0E062B" stroke-width="4.6826" stroke-linecap="square" stroke-linejoin="bevel"/>
<path d="M251.719 462.462C251.719 462.462 261.6 450.522 267.125 424.252" stroke="#0E062B" stroke-width="4.6826" stroke-linecap="square" stroke-linejoin="bevel"/>
<path d="M215.008 609.964C215.008 609.964 225.075 626.447 244.976 609.964C264.877 593.482 288.852 568.992 318.259 437.832C324.721 409.034 333.29 382.624 338.254 359.024" stroke="#0E062B" stroke-width="4.6826" stroke-linecap="square" stroke-linejoin="bevel"/>
<path d="M227.979 552.041C227.979 552.041 262.911 559.299 291.194 462.462C319.477 365.626 338.02 281.386 338.02 281.386" stroke="#0E062B" stroke-width="4.6826" stroke-linecap="square" stroke-linejoin="bevel"/>
<path d="M315.075 451.646C315.075 451.646 318.213 487.889 311.61 603.596C306.131 699.824 308.52 778.726 307.911 839.131" stroke="#0E062B" stroke-width="4.6826" stroke-linecap="square" stroke-linejoin="bevel"/>
<path d="M322.895 418.68C322.895 418.68 335.96 488.919 330.06 615.349C326.313 695.234 330.387 785.702 334.04 850.135" stroke="#0E062B" stroke-width="4.6826" stroke-linecap="square" stroke-linejoin="bevel"/>
<path d="M261.694 137.958C229.758 205.949 191.736 187.219 191.736 187.219L181.481 139.41L165.888 144.794C167.182 125.266 170.605 105.937 176.096 87.1516L172.818 85.8873C172.818 85.8873 151.231 76.1943 154.087 60.6481C157.318 42.7137 172.818 38.078 197.917 53.9988C202.388 56.7929 207.495 58.4043 212.76 58.6814" stroke="#0E062B" stroke-width="4.6826" stroke-linecap="square" stroke-linejoin="bevel"/>
<path d="M186.771 163.806C195.001 161.876 202.894 158.719 210.185 154.441" stroke="#0E062B" stroke-width="4.6826" stroke-linecap="square" stroke-linejoin="bevel"/>
<path d="M183.353 112.485C184.43 113.468 193.327 121.616 203.348 109.909" stroke="#0E062B" stroke-width="4.6826" stroke-linecap="square" stroke-linejoin="bevel"/>
<path d="M287.635 196.256L288.337 128.593" stroke="#0E062B" stroke-width="4.6826" stroke-linecap="square" stroke-linejoin="bevel"/>
<path d="M261.693 137.958C255.927 151.55 247.597 163.903 237.156 174.342C240.595 194.303 241.32 214.638 239.31 234.794" stroke="#0E062B" stroke-width="4.6826" stroke-linecap="square" stroke-linejoin="bevel"/>
<path d="M203.348 106.585L217.396 107.24C212.203 110.968 206.231 113.466 199.93 114.545L203.348 106.585Z" fill="#0E062B"/>
<path d="M236.876 77.0371C236.876 77.0371 225.965 65.7052 208.546 75.4919C196.886 82.0475 183.353 78.6761 180.45 72.9165" stroke="#0E062B" stroke-width="4.6826" stroke-linecap="square" stroke-linejoin="bevel"/>
<path d="M299.107 132.011C299.107 132.011 287.354 121.194 271.012 132.432C259.961 139.971 246.1 136.74 242.916 131.262" stroke="#0E062B" stroke-width="4.6826" stroke-linecap="square" stroke-linejoin="bevel"/>
<path d="M249.753 81.3452C249.753 81.3452 242.916 71.6054 229.102 82.75C219.737 90.2421 210.372 88.416 208.686 83.1715" stroke="#0E062B" stroke-width="4.6826" stroke-linecap="square" stroke-linejoin="bevel"/>
<path d="M260.008 71.8395C258.292 74.9823 257.225 78.4378 256.87 82.0008C256.936 82.6251 257.162 83.2217 257.526 83.7333C257.845 84.236 258.291 84.6451 258.82 84.9193C259.348 85.1935 259.94 85.323 260.534 85.2945C261.129 85.2659 261.705 85.0804 262.205 84.7569C262.705 84.4333 263.11 83.9833 263.379 83.4524C263.711 82.8833 263.888 82.2378 263.894 81.5793C263.251 78.109 261.93 74.7994 260.008 71.8395Z" fill="#0E062B"/>
<path d="M250.877 95.4867C251.763 91.9854 253.356 88.7026 255.559 85.8406C256.03 85.4323 256.592 85.1432 257.198 84.9977C257.776 84.8327 258.388 84.8252 258.97 84.976C259.552 85.1269 260.083 85.4306 260.508 85.8556C260.933 86.2807 261.236 86.8117 261.387 87.3936C261.538 87.9755 261.531 88.5872 261.366 89.1652C261.236 89.8143 260.928 90.4142 260.476 90.8978C257.609 93.0433 254.347 94.6026 250.877 95.4867Z" fill="#0E062B"/>
<path d="M268.156 74.5554C266.8 77.8687 266.116 81.418 266.142 84.9977C266.299 85.5995 266.586 86.1591 266.985 86.6365C267.357 87.1057 267.848 87.4672 268.406 87.6838C268.965 87.9004 269.571 87.9642 270.162 87.8689C270.754 87.7735 271.309 87.5223 271.771 87.1411C272.233 86.7599 272.585 86.2625 272.791 85.7C273.072 85.1016 273.186 84.438 273.119 83.7802C272.071 80.4155 270.386 77.2837 268.156 74.5554Z" fill="#0E062B"/>
<path d="M261.974 99.2328C262.42 95.6799 263.583 92.2546 265.393 89.1652C265.817 88.702 266.347 88.3485 266.938 88.135C267.495 87.8895 268.109 87.7995 268.713 87.8747C269.318 87.9498 269.89 88.1873 270.371 88.5619C270.851 88.9365 271.221 89.4342 271.441 90.0022C271.661 90.5701 271.723 91.187 271.621 91.7874C271.562 92.4423 271.336 93.0711 270.965 93.6137C268.369 96.0621 265.313 97.9719 261.974 99.2328Z" fill="#0E062B"/>
<path d="M275.601 75.8198C274.751 79.2992 274.608 82.9136 275.179 86.4494C275.396 87.037 275.769 87.5548 276.257 87.9478C276.694 88.3484 277.23 88.6264 277.81 88.7536C278.39 88.8808 278.993 88.8527 279.558 88.6721C280.123 88.4916 280.631 88.165 281.03 87.7254C281.429 87.2858 281.704 86.7487 281.829 86.1684C282.014 85.5259 282.014 84.8442 281.829 84.2017C280.295 81.0431 278.182 78.2001 275.601 75.8198Z" fill="#0E062B"/>
<path d="M273.166 101.059C273.085 97.4729 273.722 93.9068 275.039 90.5701C275.363 90.0405 275.835 89.6174 276.397 89.3526C276.909 89.0457 277.494 88.8804 278.092 88.8736C278.689 88.8669 279.277 89.019 279.796 89.3143C280.316 89.6097 280.747 90.0377 281.047 90.5545C281.346 91.0714 281.503 91.6585 281.501 92.2558C281.527 92.9213 281.382 93.5824 281.08 94.1757C278.914 96.9626 276.226 99.3007 273.166 101.059Z" fill="#0E062B"/>
<path d="M284.123 75.4921C283.753 79.0685 284.103 82.6827 285.153 86.1216C285.459 86.6572 285.893 87.1079 286.417 87.4327C286.902 87.7895 287.475 88.0079 288.075 88.0646C288.674 88.1212 289.278 88.014 289.821 87.7544C290.364 87.4948 290.827 87.0925 291.159 86.5905C291.492 86.0885 291.682 85.5056 291.709 84.9041C291.862 84.2733 291.862 83.6151 291.709 82.9843C289.696 80.0134 287.119 77.4676 284.123 75.4921Z" fill="#0E062B"/>
<path d="M285.107 100.872C284.545 97.3176 284.704 93.6868 285.575 90.1955C285.848 89.6408 286.249 89.1592 286.746 88.7907C287.216 88.4206 287.776 88.1825 288.369 88.1007C288.962 88.0189 289.566 88.0964 290.119 88.3252C290.672 88.5541 291.154 88.926 291.516 89.4028C291.878 89.8796 292.106 90.4441 292.177 91.0383C292.346 91.6671 292.346 92.3294 292.177 92.9582C290.35 96.0254 287.95 98.7122 285.107 100.872Z" fill="#0E062B"/>
<path d="M290.679 73.9935C291.077 77.5518 292.192 80.9925 293.957 84.108C294.35 84.5958 294.867 84.968 295.455 85.185C296.008 85.427 296.617 85.5159 297.216 85.4424C297.816 85.3689 298.384 85.1358 298.863 84.7673C299.341 84.3988 299.712 83.9085 299.937 83.3477C300.161 82.7869 300.23 82.1762 300.138 81.5793C300.094 80.9069 299.867 80.2593 299.482 79.7063C296.952 77.2412 293.961 75.2998 290.679 73.9935Z" fill="#0E062B"/>
<path d="M297.047 98.5305C295.74 95.1923 295.119 91.625 295.221 88.0414C295.377 87.4397 295.665 86.8799 296.064 86.4025C296.45 85.9489 296.949 85.6044 297.51 85.4031C298.071 85.2017 298.675 85.1506 299.262 85.2547C299.849 85.3589 300.398 85.6146 300.856 85.9967C301.313 86.3787 301.663 86.8738 301.87 87.4327C302.113 88.0416 302.21 88.6994 302.151 89.3526C301.051 92.7096 299.318 95.825 297.047 98.5305Z" fill="#0E062B"/>
<path d="M243.057 77.7865C245.075 80.7397 247.652 83.2691 250.643 85.2318C251.242 85.3805 251.869 85.3805 252.469 85.2318C253.198 85.1003 253.867 84.7448 254.384 84.2147C254.902 83.6845 255.241 83.0063 255.354 82.2744C255.467 81.5425 255.35 80.7935 255.017 80.1317C254.685 79.4699 254.154 78.9283 253.499 78.5825C250.105 77.6302 246.556 77.3596 243.057 77.7865Z" fill="#0E062B"/>
<path d="M255.325 83.3588C255.325 83.3588 280.611 96.8447 304.539 81.7667" stroke="#0E062B" stroke-width="4.6826" stroke-linecap="square" stroke-linejoin="bevel"/>
<path d="M176.517 252.728C177.111 253.042 177.69 253.386 178.249 253.759C178.029 252.736 178.091 251.673 178.429 250.683C178.767 249.693 179.369 248.813 180.169 248.14C180.169 248.14 181.293 248.655 183.072 249.591C182.37 246.828 182.37 243.738 186.725 245.189C193.327 247.297 210.84 251.745 225.45 282.135C240.06 312.525 240.153 313.228 249.097 319.175C256.355 323.857 318.119 348.347 341.11 357.338L342.89 263.686C343.123 252.253 346.265 241.069 352.021 231.188C363.727 244.534 365.179 278.623 374.591 321.563C384.003 364.502 391.87 428.279 372.109 430.246C352.348 432.213 227.885 334.44 227.885 334.44C227.885 334.44 210.606 323.576 200.257 296.37C189.909 269.164 180.731 269.211 180.965 264.014L177.875 261.157C176.679 260.146 175.885 258.74 175.635 257.194C175.386 255.648 175.699 254.064 176.517 252.728Z" stroke="#0E062B" stroke-width="4.6826" stroke-linecap="square" stroke-linejoin="bevel"/>
<path d="M183.073 249.591C183.073 250.294 199.415 256.381 209.951 270.71" stroke="#0E062B" stroke-width="4.6826" stroke-linecap="square" stroke-linejoin="bevel"/>
<path d="M178.25 253.759C188.389 258.881 197.351 266.057 204.566 274.831" stroke="#0E062B" stroke-width="4.6826" stroke-linecap="square" stroke-linejoin="bevel"/>
<path d="M180.965 263.826C180.965 263.826 186.303 260.783 198.385 277.874" stroke="#0E062B" stroke-width="4.6826" stroke-linecap="square" stroke-linejoin="bevel"/>
</g>
<path d="M156.482 152.618L156.483 152.617C162.682 144.539 165.051 138.492 165.023 133.184C164.999 128.395 162.98 124.565 161.159 121.112C160.989 120.789 160.82 120.468 160.654 120.151C158.68 116.358 156.921 112.551 156.973 107.17C157.026 101.732 158.941 94.3834 165.037 83.6816L165.038 83.6799C168.157 78.1951 172.825 73.3591 177.841 68.7233C179.286 67.3872 180.777 66.0547 182.263 64.7263C185.806 61.5591 189.323 58.4151 192.141 55.3018C193.94 53.3729 196.016 51.5587 198.345 49.8892L198.36 49.8791L198.373 49.8688C216.57 36.4408 247.329 26.8932 276.586 39.1777C292.426 45.8573 301.339 57.6231 305.352 71.0325L305.354 71.0398L305.356 71.0472C307.888 79.3214 309.866 84.7777 315.867 91.3073C321.691 97.6456 331.306 104.999 348.825 117.497C356.746 123.163 361.133 130.261 362.225 137.151C363.311 144.001 361.188 150.88 355.625 156.376C340.726 171.032 318.692 180.82 294.318 186.471C269.978 192.114 243.534 193.578 220.064 191.766C196.522 189.95 176.282 184.862 164.174 177.647C158.109 174.033 154.424 170.088 153.086 166.083C151.805 162.249 152.498 157.805 156.482 152.618Z" stroke="#0E062B" stroke-width="5"/>
<path d="M65.4485 335.353V361.295" stroke="#0E062B" stroke-width="4.6826" stroke-linecap="square" stroke-linejoin="bevel"/>
<path d="M78.4192 348.323H52.4775" stroke="#0E062B" stroke-width="4.6826" stroke-linecap="square" stroke-linejoin="bevel"/>
<path d="M398.053 388.454C398.053 388.454 417.065 389.577 417.065 414.91H417.673C417.673 389.577 436.685 388.454 436.685 388.454V387.798C436.685 387.798 417.673 386.627 417.673 361.294H417.065C417.065 386.627 398.053 387.798 398.053 387.798V388.454Z" stroke="#0E062B" stroke-width="4.6826" stroke-linecap="square" stroke-linejoin="bevel"/>
<path d="M409.292 75.0939V101.035" stroke="#0E062B" stroke-width="4.6826" stroke-linecap="square" stroke-linejoin="bevel"/>
<path d="M422.263 88.0646H396.321" stroke="#0E062B" stroke-width="4.6826" stroke-linecap="square" stroke-linejoin="bevel"/>
<path d="M96.26 404.047C96.26 404.889 96.0101 405.713 95.5419 406.414C95.0737 407.115 94.4081 407.661 93.6295 407.983C92.8509 408.306 91.9941 408.39 91.1675 408.226C90.3409 408.061 89.5817 407.656 88.9858 407.06C88.3898 406.464 87.984 405.704 87.8195 404.878C87.6551 404.051 87.7395 403.194 88.062 402.416C88.3846 401.637 88.9307 400.972 89.6315 400.504C90.3322 400.035 91.1561 399.785 91.9988 399.785C93.129 399.785 94.2128 400.234 95.0119 401.033C95.8111 401.833 96.26 402.916 96.26 404.047Z" fill="#0E062B"/>
</svg>
