<svg width="329" height="577" viewBox="0 0 329 577" fill="none" xmlns="http://www.w3.org/2000/svg">
<path d="M284.531 118.98V144.921" stroke="#D8BFA0" stroke-width="4.6826" stroke-linecap="square" stroke-linejoin="bevel"/>
<path d="M297.5 131.95H271.558" stroke="#D8BFA0" stroke-width="4.6826" stroke-linecap="square" stroke-linejoin="bevel"/>
<path d="M214.338 13.7144V39.7029" stroke="#D8BFA0" stroke-width="4.6826" stroke-linecap="square" stroke-linejoin="bevel"/>
<path d="M227.306 26.7322H201.365" stroke="#D8BFA0" stroke-width="4.6826" stroke-linecap="square" stroke-linejoin="bevel"/>
<path d="M99.939 309.093C99.939 309.093 118.95 310.264 118.95 335.597H119.559C119.559 310.264 138.57 309.093 138.57 309.093V308.438C138.57 308.438 119.559 307.314 119.559 281.934H118.95C118.95 307.314 99.939 308.438 99.939 308.438V309.093Z" stroke="#D8BFA0" stroke-width="4.6826" stroke-linecap="square" stroke-linejoin="bevel"/>
<path d="M57.2818 253.323C57.2818 254.168 57.0306 254.994 56.5603 255.696C56.09 256.397 55.4218 256.943 54.6404 257.265C53.8591 257.586 52.9999 257.667 52.1721 257.499C51.3442 257.331 50.585 256.92 49.991 256.32C49.3969 255.719 48.9948 254.955 48.8358 254.126C48.6767 253.296 48.7678 252.438 49.0975 251.66C49.4273 250.882 49.9806 250.22 50.6875 249.757C51.3944 249.295 52.2228 249.053 53.0675 249.062C53.6249 249.062 54.1768 249.173 54.6912 249.388C55.2055 249.602 55.6722 249.917 56.0641 250.313C56.4561 250.709 56.7656 251.18 56.9746 251.696C57.1836 252.213 57.288 252.766 57.2818 253.323Z" fill="#D8BFA0"/>
<path d="M219.675 178.402C221.096 179.242 222.707 179.709 224.357 179.76C264.581 182.288 305.975 207.246 319.461 253.511C354.066 372.683 242.947 366.268 236.626 445.029C230.96 517.563 293.379 522.526 293.379 573.239L92.6827 574.035C92.6827 574.035 68.1458 555.585 69.2696 502.719C72.0324 355.217 297.593 339.952 177.812 220.171L219.675 178.402Z" stroke="#D8BFA0" stroke-width="4.6826" stroke-linecap="square" stroke-linejoin="bevel"/>
<path d="M282.142 253.323C320.914 370.763 199.073 366.081 192.751 444.842C186.945 517.563 249.364 522.526 249.364 573.239" stroke="#D8BFA0" stroke-width="4.6826" stroke-linecap="square" stroke-linejoin="bevel"/>
<path d="M129.16 572.724C124.478 568.509 106.263 548.983 107.105 502.719C109.868 355.217 335.476 339.952 215.648 220.171" stroke="#D8BFA0" stroke-width="4.6826" stroke-linecap="square" stroke-linejoin="bevel"/>
<path d="M182.775 146.42C186.478 150.113 191.192 152.627 196.322 153.642C201.453 154.658 206.769 154.13 211.6 152.126C216.43 150.122 220.558 146.73 223.463 142.381C226.367 138.032 227.917 132.919 227.917 127.689C227.917 122.459 226.367 117.347 223.463 112.997C220.558 108.648 216.43 105.257 211.6 103.252C206.769 101.248 201.453 100.72 196.322 101.736C191.192 102.752 186.478 105.265 182.775 108.959C180.306 111.413 178.347 114.332 177.009 117.546C175.672 120.761 174.984 124.208 174.984 127.689C174.984 131.171 175.672 134.618 177.009 137.832C178.347 141.047 180.306 143.965 182.775 146.42Z" stroke="#D8BFA0" stroke-width="14.0478" stroke-linecap="square" stroke-linejoin="bevel"/>
<path d="M127.196 228.459C141.808 228.459 153.653 216.614 153.653 202.002C153.653 187.39 141.808 175.545 127.196 175.545C112.584 175.545 100.739 187.39 100.739 202.002C100.739 216.614 112.584 228.459 127.196 228.459Z" stroke="#D8BFA0" stroke-width="14.0478" stroke-linecap="square" stroke-linejoin="bevel"/>
<path d="M122.793 187.767C155.571 198.678 166.435 231.362 166.435 231.362L230.961 166.836C230.961 166.836 198.183 155.972 187.319 123.241C176.455 90.5096 184.978 55.4369 153.042 22.7055C145.779 15.2742 136.873 9.65259 127.039 6.29351C117.206 2.93443 106.721 1.93177 96.4297 3.36631L51.3362 48.5067L48.0583 51.7377L3.0586 96.9715C1.60518 107.264 2.59893 117.754 5.95907 127.59C9.31922 137.427 14.9511 146.332 22.3978 153.584C55.0355 185.52 90.1082 176.95 122.793 187.767Z" stroke="#D8BFA0" stroke-width="4.6826" stroke-linecap="square" stroke-linejoin="bevel"/>
<path d="M151.168 24.6719C151.168 24.6719 100.409 102.637 24.1758 151.711" stroke="#D8BFA0" stroke-width="4.6826" stroke-linecap="square" stroke-linejoin="bevel"/>
<path d="M170.978 50.145C170.978 50.145 123.215 123.568 51.3843 169.786" stroke="#D8BFA0" stroke-width="4.6826" stroke-linecap="square" stroke-linejoin="bevel"/>
<path d="M3.05624 96.9717C-0.362058 93.5534 17.7596 69.8126 43.6076 44.0115C69.4556 18.2103 93.1495 0.041878 96.5678 3.507C99.9861 6.97213 81.8645 30.6661 56.0634 56.4672C30.2622 82.2684 6.42772 100.437 3.05624 96.9717Z" fill="#D8BFA0" stroke="#D8BFA0" stroke-width="4.6826" stroke-linecap="square" stroke-linejoin="bevel"/>
<path d="M166.432 231.456C162.826 227.85 174.299 210.478 192.139 192.637C209.98 174.796 227.306 163.324 230.911 166.929C234.517 170.535 223.045 187.908 205.204 205.701C187.363 223.495 170.038 235.061 166.432 231.456Z" fill="#D8BFA0" stroke="#D8BFA0" stroke-width="4.6826" stroke-linecap="square" stroke-linejoin="bevel"/>
<path d="M178.892 405.18C153.98 438.239 149.579 464.415 155.479 487.266C164.235 522.011 195.421 535.731 195.421 574.035" stroke="#D8BFA0" stroke-width="4.6826" stroke-linecap="square" stroke-linejoin="bevel"/>
</svg>
