<svg width="373" height="515" viewBox="0 0 373 515" fill="none" xmlns="http://www.w3.org/2000/svg">
<path d="M81.5725 183.983V209.925" stroke="#D8BFA0" stroke-width="4.6826" stroke-linecap="square" stroke-linejoin="bevel"/>
<path d="M94.5432 196.954H68.6016" stroke="#D8BFA0" stroke-width="4.6826" stroke-linecap="square" stroke-linejoin="bevel"/>
<path d="M127.789 139.498C127.789 139.498 146.8 140.669 146.8 166.002H147.409C147.409 140.669 166.421 139.498 166.421 139.498V138.843C166.421 138.843 147.409 137.672 147.409 112.339H146.8C146.8 137.672 127.789 138.843 127.789 138.843V139.498Z" stroke="#D8BFA0" stroke-width="4.6826" stroke-linecap="square" stroke-linejoin="bevel"/>
<path d="M357.331 126.199V152.188" stroke="#D8BFA0" stroke-width="4.6826" stroke-linecap="square" stroke-linejoin="bevel"/>
<path d="M370.301 139.17H344.36" stroke="#D8BFA0" stroke-width="4.6826" stroke-linecap="square" stroke-linejoin="bevel"/>
<path d="M85.8334 112.386C85.8334 113.229 85.5835 114.053 85.1153 114.753C84.647 115.454 83.9815 116 83.2029 116.323C82.4243 116.645 81.5675 116.73 80.7409 116.565C79.9143 116.401 79.1551 115.995 78.5591 115.399C77.9632 114.803 77.5573 114.044 77.3929 113.217C77.2285 112.391 77.3129 111.534 77.6354 110.755C77.9579 109.977 78.5041 109.311 79.2048 108.843C79.9056 108.375 80.7294 108.125 81.5722 108.125C82.7024 108.125 83.7862 108.574 84.5853 109.373C85.3844 110.172 85.8334 111.256 85.8334 112.386Z" fill="#D8BFA0"/>
<path d="M168.809 497.109C167.591 496.313 141.415 482.78 141.415 482.78L159.397 470.933L241.108 459.741H267.237H274.167H300.296C300.296 459.741 311.113 473.461 309.661 472.431C308.21 471.401 281.847 484.091 281.847 484.091L320.291 482.874C320.291 482.874 335.416 506.989 335.837 508.206C336.029 510.247 336.029 512.3 335.837 514.341H17.4202L28.9394 498.42H63.6375L168.809 497.109Z" fill="#D8BFA0"/>
<path d="M265.411 295.663C265.411 295.663 262.789 367.869 255.25 388.566L256.748 431.037L263.538 438.951L264.568 459.741H290.697L276.322 432.629L273.653 388.285C273.653 388.285 293.975 321.745 299.594 313.363L302.778 269.487L265.411 295.663Z" fill="#D8BFA0"/>
<path d="M44.5794 280.913C44.5794 280.913 32.2641 279.883 24.772 296.506C17.2798 313.129 8.71062 321.558 0.469238 324.133C3.09293 325.581 6.10131 326.178 9.07898 325.842C12.0566 325.507 14.8567 324.255 17.0925 322.26L17.4671 321.885C26.4577 314.44 15.4068 327.879 15.4068 327.879C15.4068 327.879 26.645 327.411 37.1809 311.162C43.3751 302.374 46.018 291.568 44.5794 280.913Z" fill="#D8BFA0"/>
<path d="M253.985 38.9626C258.044 44.911 260.511 51.8003 261.15 58.9731C261.79 66.1458 260.58 73.3628 257.638 79.9353C252.622 89.389 248.935 99.4894 246.681 109.951C245.791 115.617 244.761 122.594 243.684 129.571C240.232 151.998 229.679 172.727 213.574 188.712C201.976 200.234 187.851 208.892 172.321 213.998L109.152 234.883C87.9809 241.67 68.7227 253.385 52.9612 269.066C46.7344 274.554 41.9983 281.529 39.1943 289.341C37.2745 297.957 39.1943 338.93 61.343 352.088C61.343 352.088 55.6771 384.867 37.2745 396.433C40.1713 425.445 35.1041 454.699 22.6179 481.047L38.7729 498.326H53.8041L45.3285 476.552C45.3285 476.552 54.366 430.662 57.3628 422C60.3597 413.337 122.919 340.054 122.919 340.054C122.919 340.054 185.807 340.803 232.164 314.487C232.164 314.487 229.542 367.869 222.003 388.566L223.502 431.037L230.291 438.951L231.322 459.741H257.451L243.075 432.629L240.406 388.285C240.406 388.285 260.728 321.464 266.347 313.363C269.297 309.055 279.459 297.911 288.496 288.311C298.769 277.311 306.59 264.255 311.441 250.008L320.806 222.333C328.147 200.754 328.311 177.38 321.274 155.7C316.264 140.294 311.909 123.999 312.612 118.239C314.485 106.205 315.608 102.084 315.608 102.084L332.559 92.7189L346.092 91.595C346.092 91.595 357.33 83.6814 351.711 66.4026C351.711 66.4026 312.986 50.6222 294.958 32.5474C276.93 14.4725 251.691 -9.59604 214.464 10.7733C177.238 31.1426 193.065 81.4338 223.829 81.4338C254.594 81.4338 261.805 37.8387 232.867 37.8387C232.867 37.8387 250.52 51.231 236.8 63.0312C223.08 74.8313 198.169 47.2976 226.452 31.4236C240.359 23.6504 248.132 30.4871 253.985 38.9626Z" stroke="#D8BFA0" stroke-width="4.6826" stroke-linecap="square" stroke-linejoin="bevel"/>
<path d="M330.546 56.4287L316.498 22.0584C316.029 20.9676 315.346 19.9818 314.49 19.1592C313.633 18.3365 312.621 17.6935 311.512 17.2682C310.404 16.8429 309.221 16.6438 308.034 16.6828C306.847 16.7217 305.68 16.9978 304.602 17.4948C303.524 17.9918 302.556 18.6997 301.755 19.5767C300.954 20.4537 300.337 21.4822 299.941 22.6013C299.544 23.7205 299.375 24.9078 299.444 26.0933C299.513 27.2787 299.819 28.4383 300.343 29.5037C303.621 35.7784 307.18 42.5682 307.601 42.8492C314.961 47.8468 322.624 52.382 330.546 56.4287Z" fill="#D8BFA0"/>
<path d="M281.051 61.8605C286.957 59.4402 293.09 57.6204 299.36 56.4287C299.36 56.4287 287.607 46.2206 281.051 61.8605Z" fill="#D8BFA0"/>
<path d="M129.615 289.623C132.472 322.401 122.545 340.054 122.545 340.054C122.545 340.054 126.431 340.054 132.987 339.773C134.814 322.988 133.673 306.012 129.615 289.623Z" fill="#D8BFA0" stroke="#D8BFA0" stroke-width="4.6826" stroke-linecap="square" stroke-linejoin="bevel"/>
<path d="M232.165 291.683C232.165 291.683 230.057 306.339 227.482 317.109L232.165 314.487C232.613 306.892 232.613 299.278 232.165 291.683Z" fill="#D8BFA0" stroke="#D8BFA0" stroke-width="4.6826" stroke-linecap="square" stroke-linejoin="bevel"/>
<path d="M272.482 83.2131C272.482 83.2131 285.78 100.96 288.871 105.175C291.961 109.389 312.612 118.239 312.612 118.239C314.485 106.205 315.608 102.084 315.608 102.084C315.608 102.084 294.068 99.8364 290.182 98.7126C286.295 97.5887 272.482 83.2131 272.482 83.2131Z" fill="#D8BFA0" stroke="#D8BFA0" stroke-width="4.6826" stroke-linecap="square" stroke-linejoin="bevel"/>
<path d="M122.732 340.194C122.732 340.194 108.684 356.771 93.5128 375.08C90.0279 383.623 84.2007 391.009 76.7022 396.386C79.6278 425.4 74.5593 454.661 62.0457 481L78.107 498.326H93.1381L84.5222 476.552C84.5222 476.552 93.5127 430.662 96.5564 422C99.6001 413.337 162.113 340.054 162.113 340.054C185.419 339.795 208.602 336.649 231.134 330.689C231.884 321.324 232.212 314.534 232.212 314.534C185.807 340.803 122.732 340.194 122.732 340.194Z" fill="#D8BFA0"/>
</svg>
