<svg width="461" height="448" viewBox="0 0 461 448" fill="none" xmlns="http://www.w3.org/2000/svg">
<path d="M335.747 12.5608V38.5492" stroke="#D8BFA0" stroke-width="4.6826" stroke-linecap="square" stroke-linejoin="bevel"/>
<path d="M348.718 25.5784H322.776" stroke="#D8BFA0" stroke-width="4.6826" stroke-linecap="square" stroke-linejoin="bevel"/>
<path d="M45.4723 349.146V375.088" stroke="#D8BFA0" stroke-width="4.6826" stroke-linecap="square" stroke-linejoin="bevel"/>
<path d="M58.443 362.117H32.5013" stroke="#D8BFA0" stroke-width="4.6826" stroke-linecap="square" stroke-linejoin="bevel"/>
<path d="M210.253 29.6991C210.253 29.6991 229.265 30.823 229.265 56.1559H229.92C229.92 30.823 248.932 29.6991 248.932 29.6991V29.0436C248.932 29.0436 229.92 27.8729 229.92 2.54004H229.265C229.265 27.8729 210.253 29.0436 210.253 29.0436V29.6991Z" stroke="#D8BFA0" stroke-width="4.6826" stroke-linecap="square" stroke-linejoin="bevel"/>
<path d="M160.992 29.184C160.992 30.0268 160.742 30.8507 160.274 31.5514C159.806 32.2521 159.14 32.7983 158.362 33.1208C157.583 33.4434 156.726 33.5277 155.9 33.3633C155.073 33.1989 154.314 32.7931 153.718 32.1971C153.122 31.6012 152.716 30.8419 152.552 30.0153C152.387 29.1887 152.471 28.332 152.794 27.5534C153.117 26.7747 153.663 26.1092 154.363 25.641C155.064 25.1728 155.888 24.9229 156.731 24.9229C157.29 24.9229 157.845 25.0331 158.362 25.2472C158.879 25.4614 159.348 25.7752 159.744 26.1709C160.14 26.5666 160.453 27.0364 160.668 27.5534C160.882 28.0703 160.992 28.6244 160.992 29.184Z" fill="#D8BFA0"/>
<path d="M70.1496 249.782C70.1496 249.782 146.663 202.956 184.124 119.277L103.537 151.447C103.537 151.447 109.202 99.9383 169.468 81.2079C169.468 81.2079 95.3889 56.2028 40.0405 119.184C-15.3079 182.165 6.6535 231.566 6.6535 231.566L70.1496 249.782Z" stroke="#D8BFA0" stroke-width="4.6826" stroke-linecap="square" stroke-linejoin="bevel"/>
<path d="M65.2329 262.94L36.7626 292.159C4.21848 266.92 13.3496 233.767 13.3496 233.767L62.4233 247.815L65.2329 262.94Z" fill="#D8BFA0"/>
<path d="M74.5981 258.397L65.2329 263.08L36.7626 292.3C36.7626 292.3 36.2006 325.874 117.818 326.108C118.208 308.382 122.798 291.002 131.211 275.395L74.5981 258.397Z" stroke="#D8BFA0" stroke-width="4.6826" stroke-linecap="square" stroke-linejoin="bevel"/>
<path d="M390.065 249.782C390.065 249.782 313.551 202.956 276.091 119.277L356.725 151.447C356.725 151.447 351.012 99.9383 290.747 81.2079C290.747 81.2079 364.826 56.2028 420.221 119.184C475.616 182.165 453.561 231.566 453.561 231.566L390.065 249.782Z" stroke="#D8BFA0" stroke-width="4.6826" stroke-linecap="square" stroke-linejoin="bevel"/>
<path d="M394.982 262.94L423.452 292.159C455.996 266.92 446.865 233.767 446.865 233.767L397.792 247.815L394.982 262.94Z" fill="#D8BFA0"/>
<path d="M423.452 292.159L394.982 262.94L385.617 258.257L329.004 275.114C337.437 290.713 342.028 308.098 342.396 325.827C424.061 325.733 423.452 292.159 423.452 292.159Z" stroke="#D8BFA0" stroke-width="4.6826" stroke-linecap="square" stroke-linejoin="bevel"/>
<path d="M70.3838 428.329L133.505 369.89C125.111 359.345 119.781 346.693 118.099 333.319C109.156 344.604 80.5919 383.283 70.3838 428.329Z" fill="#D8BFA0"/>
<path d="M138.141 375.744C124.111 394.93 113.846 416.603 107.891 439.614L156.731 394.38C150.063 388.657 143.847 382.426 138.141 375.744Z" fill="#D8BFA0"/>
<path d="M144.884 447.247L181.502 413.298C176.164 409.692 170.732 405.759 165.394 401.591C155.954 415.501 149.013 430.951 144.884 447.247Z" fill="#D8BFA0"/>
<path d="M117.772 328.59C117.772 365.348 157.152 397.986 189.322 418.449C201.496 426.246 215.65 430.39 230.107 430.39C244.564 430.39 258.718 426.246 270.893 418.449C303.062 397.986 342.443 365.348 342.443 328.59C342.443 298.784 330.603 270.199 309.527 249.123C288.451 228.048 259.866 216.207 230.06 216.207C200.255 216.207 171.67 228.048 150.594 249.123C129.518 270.199 117.678 298.784 117.678 328.59H117.772Z" stroke="#D8BFA0" stroke-width="4.6826" stroke-linecap="square" stroke-linejoin="bevel"/>
<path d="M389.878 428.329L326.709 369.89C335.117 359.348 340.463 346.696 342.162 333.319C351.059 344.604 379.623 383.283 389.878 428.329Z" fill="#D8BFA0"/>
<path d="M322.074 375.744C336.104 394.93 346.368 416.603 352.323 439.614L303.484 394.38C310.152 388.657 316.367 382.426 322.074 375.744Z" fill="#D8BFA0"/>
<path d="M315.378 447.247L278.713 413.298C284.051 409.692 289.483 405.759 294.821 401.591C304.278 415.498 311.234 430.948 315.378 447.247Z" fill="#D8BFA0"/>
<path d="M246.497 217.472C265.567 220.309 283.582 228.018 298.801 239.854C285.362 193.59 249.821 215.458 246.497 217.472Z" fill="#D8BFA0"/>
<path d="M213.718 217.472C194.648 220.309 176.633 228.018 161.414 239.854C174.853 193.59 210.44 215.458 213.718 217.472Z" fill="#D8BFA0"/>
</svg>
