<svg width="450" height="571" viewBox="0 0 450 571" fill="none" xmlns="http://www.w3.org/2000/svg">
<path d="M179.394 183.222V209.163" stroke="#D8BFA0" stroke-width="4.6826" stroke-linecap="square" stroke-linejoin="bevel"/>
<path d="M192.364 196.193H166.423" stroke="#D8BFA0" stroke-width="4.6826" stroke-linecap="square" stroke-linejoin="bevel"/>
<path d="M433.752 231.031V256.973" stroke="#D8BFA0" stroke-width="4.6826" stroke-linecap="square" stroke-linejoin="bevel"/>
<path d="M446.724 244.002H420.782" stroke="#D8BFA0" stroke-width="4.6826" stroke-linecap="square" stroke-linejoin="bevel"/>
<path d="M401.443 41.9941C401.443 41.9941 420.454 43.1179 420.454 68.4508H421.063C421.063 43.1179 440.074 41.9941 440.074 41.9941V41.3385C440.074 41.3385 421.063 40.1678 421.063 14.835H420.454C420.454 40.1678 401.443 41.3385 401.443 41.3385V41.9941Z" stroke="#D8BFA0" stroke-width="4.6826" stroke-linecap="square" stroke-linejoin="bevel"/>
<path d="M38.2602 277.763C38.2602 278.606 38.0102 279.43 37.542 280.131C37.0738 280.832 36.4083 281.378 35.6296 281.7C34.851 282.023 33.9942 282.107 33.1676 281.943C32.3411 281.778 31.5818 281.373 30.9859 280.777C30.39 280.181 29.9841 279.421 29.8197 278.595C29.6552 277.768 29.7397 276.911 30.0622 276.133C30.3847 275.354 30.9308 274.689 31.6316 274.221C32.3323 273.752 33.1562 273.502 33.999 273.502C35.1291 273.502 36.2129 273.951 37.0121 274.75C37.8112 275.55 38.2602 276.633 38.2602 277.763Z" fill="#D8BFA0"/>
<path d="M365.995 84.7465C363.26 83.2887 360.39 82.0969 357.426 81.1877C352.513 79.5078 347.316 78.8126 342.134 79.142C336.951 79.4715 331.885 80.819 327.223 83.1076C319.886 87.192 313.849 93.2616 309.804 100.62C288.311 136.817 290.793 171.515 267.661 200.454C244.529 229.392 220.554 255.006 193.254 269.99C180.827 276.48 167.46 280.983 153.639 283.336C144.274 272.597 134.066 260.578 123.015 247.28C112.885 235.637 105.469 221.888 101.307 207.027C97.144 192.165 96.3378 176.565 98.9466 161.354C99.4617 158.451 102.365 146.37 106.907 144.403C112.093 142.28 117.756 141.601 123.296 142.436C149.472 145.152 197.422 149.039 221.116 103.851C221.116 103.851 151.673 77.3947 128.541 83.4821C109.295 88.4925 100.445 122.582 97.0268 134.616C99.7895 122.488 116.506 76.8797 71.4129 68.5915C49.1501 64.1185 26.6539 60.8981 4.03025 58.9453C4.03025 58.9453 -5.33496 88.3052 20.5598 116.401C32.9687 129.887 55.3515 136.489 74.3629 140.048C75.4668 140.26 76.5149 140.697 77.4414 141.334C78.3678 141.97 79.1526 142.792 79.7463 143.746C80.34 144.7 80.7298 145.767 80.8913 146.879C81.0528 147.992 80.9823 149.125 80.6844 150.209C79.7011 153.862 78.4368 157.655 77.5939 159.574C56.1008 215.297 72.3494 258.565 100.773 298.226C87.7711 303.959 75.5079 311.239 64.2485 319.907C32.5941 344.537 3.37469 382.841 3.37469 437.44C3.37469 503.278 30.3933 565.416 135.33 565.416C230.996 565.416 280.117 464.225 230.481 375.536C239.189 370.741 247.207 364.786 254.315 357.836C254.315 357.836 279.929 420.676 261.761 474.386V493.819L270.049 519.433H291.495L281.006 492.133V470.921C281.006 470.921 298.379 389.443 314.908 360.645C331.438 331.847 372.738 279.777 374.377 236.791C376.016 193.804 347.921 155.079 347.921 155.079L357.286 150.022C367.572 154.577 378.883 156.323 390.064 155.079L390.907 177.322L399.991 193.008L404.955 167.394L423.123 142.623L365.995 84.7465ZM70.2891 452.846C67.5263 404.287 100.586 382.607 152.094 384.714C158.228 384.948 164.269 385.37 170.263 385.744C182.718 404.053 191.475 422.456 192.599 441.936C197.141 524.677 73.801 516.904 70.2891 452.846Z" stroke="#D8BFA0" stroke-width="4.6826" stroke-linecap="square" stroke-linejoin="bevel"/>
<path d="M357.427 81.1879C360.39 82.0971 363.26 83.2889 365.996 84.7468L376.344 95.2826C375.361 71.4013 368.197 16.7084 323.29 3.40982C309.848 -0.904508 295.34 -0.541407 282.13 4.43999C329.799 6.82812 351.246 61.6147 357.427 81.1879Z" fill="#D8BFA0"/>
<path d="M364.263 119.21C370.182 116.796 376.333 114.991 382.619 113.825C382.619 113.825 370.865 103.524 364.263 119.21Z" fill="#D8BFA0"/>
<path d="M427.15 325.76L364.825 274.251C356.94 292.188 347.541 309.42 336.729 325.76C365.433 342.805 405.516 348.424 405.516 348.424L369.976 393.002L359.206 400.401L346.001 403.726V426.858L373.3 410.328L433.612 349.173L427.15 325.76Z" fill="#D8BFA0"/>
<path d="M356.911 150.022C356.911 150.022 337.057 139.72 332.936 121.552C332.824 127.883 334.094 134.163 336.658 139.954C339.221 145.744 343.017 150.906 347.78 155.079L356.911 150.022Z" fill="#D8BFA0" stroke="#D8BFA0" stroke-width="4.6826" stroke-linecap="square" stroke-linejoin="bevel"/>
<path d="M170.122 385.744C171.574 387.898 172.979 390.052 174.29 392.206L174.758 392.909C176.069 394.969 177.287 397.029 178.457 399.09C178.457 399.371 178.785 399.652 178.925 399.979C180.096 402.04 181.22 404.147 182.25 406.207L182.531 406.816C182.952 407.659 183.374 408.502 183.749 409.345C229.498 397.451 230.575 375.958 230.575 375.958C209.643 387.243 190.211 386.962 170.122 385.744Z" fill="#D8BFA0" stroke="#D8BFA0" stroke-width="4.6826" stroke-linecap="square" stroke-linejoin="bevel"/>
<path d="M150.923 283.804L153.639 283.336L144.649 272.8C127.171 276.43 109.961 281.249 93.14 287.223C95.6218 291.063 98.1972 294.902 100.913 298.648C116.887 291.601 133.692 286.614 150.923 283.804Z" fill="#D8BFA0" stroke="#D8BFA0" stroke-width="4.6826" stroke-linecap="square" stroke-linejoin="bevel"/>
<path d="M245.699 365.797C248.741 363.448 251.648 360.931 254.409 358.258L245.324 325.76C245.324 325.76 245.886 345.615 245.699 365.797Z" fill="#D8BFA0" stroke="#D8BFA0" stroke-width="4.6826" stroke-linecap="square" stroke-linejoin="bevel"/>
<path d="M359.346 88.0712C359.346 88.0712 358.738 85.4489 357.427 81.1877C351.152 61.193 328.956 4.34619 279.227 4.34619C227.718 4.34619 205.101 55.012 227.718 88.0712C227.718 88.0712 224.394 26.3545 279.227 26.3545C307.323 26.3545 320.855 55.1993 327.224 83.1076C328.207 87.4624 329.003 91.7704 329.705 95.9379" stroke="#D8BFA0" stroke-width="4.6826" stroke-linecap="square" stroke-linejoin="bevel"/>
<path d="M221.537 553.381C220.085 552.539 188.525 539.053 188.525 539.053L210.205 527.159L308.54 516.014H339.96H348.295H379.762C379.762 516.014 392.78 529.781 391.281 528.751C389.783 527.721 357.848 540.411 357.848 540.411L404.065 539.193C404.065 539.193 422.28 563.309 422.795 564.526C423.035 566.564 423.035 568.622 422.795 570.66H39.4774L53.5252 554.739H95.294L221.537 553.381Z" fill="#D8BFA0"/>
<path d="M323.149 95.2827L297.536 79.0808C297.536 79.0808 295.335 114.762 323.149 114.762" stroke="#D8BFA0" stroke-width="4.6826" stroke-linecap="square" stroke-linejoin="bevel"/>
<path d="M34.6075 63.4873C34.6075 63.4873 30.2058 93.5495 45.3306 112.561" stroke="#D8BFA0" stroke-width="4.6826" stroke-linecap="square" stroke-linejoin="bevel"/>
<path d="M61.5324 67.7019C61.5324 67.7019 57.1308 97.7642 72.2556 116.729" stroke="#D8BFA0" stroke-width="4.6826" stroke-linecap="square" stroke-linejoin="bevel"/>
<path d="M194.378 94.8145C194.378 94.8145 185.996 124.034 164.363 135.085" stroke="#D8BFA0" stroke-width="4.6826" stroke-linecap="square" stroke-linejoin="bevel"/>
<path d="M168.062 87.6968C168.062 87.6968 159.727 116.869 138.093 127.967" stroke="#D8BFA0" stroke-width="4.6826" stroke-linecap="square" stroke-linejoin="bevel"/>
</svg>
