<svg width="628" height="468" viewBox="0 0 628 468" fill="none" xmlns="http://www.w3.org/2000/svg">
<path d="M224.66 36.7141V62.6558" stroke="#D8BFA0" stroke-width="4.6826" stroke-linecap="square" stroke-linejoin="bevel"/>
<path d="M237.628 49.6852H211.687" stroke="#D8BFA0" stroke-width="4.6826" stroke-linecap="square" stroke-linejoin="bevel"/>
<path d="M149.972 145.116C149.972 145.116 168.983 146.287 168.983 171.62H169.592C169.592 146.287 188.603 145.116 188.603 145.116V144.742C188.603 144.742 169.592 143.571 169.592 118.238H168.983C168.983 143.571 149.972 144.742 149.972 144.742V145.116Z" stroke="#D8BFA0" stroke-width="4.6826" stroke-linecap="square" stroke-linejoin="bevel"/>
<path d="M99.8667 147.083V173.071" stroke="#D8BFA0" stroke-width="4.6826" stroke-linecap="square" stroke-linejoin="bevel"/>
<path d="M112.84 160.054H86.8982" stroke="#D8BFA0" stroke-width="4.6826" stroke-linecap="square" stroke-linejoin="bevel"/>
<path d="M543.871 350.448C543.871 351.291 543.621 352.115 543.153 352.816C542.685 353.517 542.019 354.063 541.241 354.385C540.462 354.708 539.605 354.792 538.779 354.628C537.952 354.463 537.193 354.057 536.597 353.461C536.001 352.866 535.595 352.106 535.431 351.28C535.266 350.453 535.351 349.596 535.673 348.818C535.996 348.039 536.542 347.374 537.243 346.905C537.943 346.437 538.767 346.187 539.61 346.187C540.74 346.187 541.824 346.636 542.623 347.435C543.422 348.234 543.871 349.318 543.871 350.448Z" fill="#D8BFA0"/>
<path d="M256.452 448.034C255.234 447.238 230.323 434.267 230.323 434.267L248.351 422.42L377.544 410.105H507.533H529.073C529.073 410.105 539.937 423.825 538.438 422.795C536.94 421.765 510.671 434.454 510.671 434.454L549.068 433.237C549.068 433.237 564.193 457.352 564.614 458.57C564.83 460.609 564.83 462.665 564.614 464.704H153.95L165.516 448.69H232.43L256.452 448.034Z" fill="#D8BFA0"/>
<path d="M129.462 276.651C106.93 281.082 84.1179 283.945 61.1898 285.22C53.9175 285.843 46.8651 288.027 40.5135 291.623C34.1619 295.219 28.6605 300.142 24.3845 306.058C15.3471 317.858 5.65411 332.046 3.26598 340.007C-0.948366 355.365 46.2523 329.705 50.4198 341.177L57.7247 337.712C57.7247 337.712 58.2397 318.373 25.6956 330.173L33.4688 319.59C37.6462 313.567 43.0611 308.505 49.3517 304.742C55.6422 300.979 62.6635 298.602 69.9463 297.769C84.0959 296.487 98.3103 296.065 112.511 296.505C140.841 297.769 129.462 276.651 129.462 276.651Z" stroke="#D8BFA0" stroke-width="4.6826" stroke-linecap="square" stroke-linejoin="bevel"/>
<path d="M55.6174 333.357C55.6174 333.357 48.7808 338.04 50.5133 350.964C52.2459 363.888 50.5133 372.644 47.1418 377.654C47.1418 377.654 52.9483 377.373 55.2428 369.507C55.2266 369.382 55.2266 369.256 55.2428 369.132C57.3968 360.938 56.1793 373.58 56.1793 373.58C56.1793 373.58 61.9389 368.523 61.9389 354.429C62.3655 346.881 60.1281 339.423 55.6174 333.357Z" fill="#D8BFA0" stroke="#D8BFA0" stroke-width="4.6826" stroke-miterlimit="10"/>
<path d="M624.458 83.8681C622.351 79.1854 594.583 62.0003 594.583 62.0003C588.543 52.401 573.605 43.5508 573.605 43.5508C573.605 43.5508 557.356 1.40737 477.237 2.76532L486.134 16.0171C486.134 16.0171 431.348 -13.1555 378.106 14.7996C354.693 27.2085 341.816 41.3968 334.98 53.3375C319.757 59.4646 306.485 69.6127 296.582 82.6974C275.417 113.696 271.811 172.276 271.811 172.276L299.392 152.234L267.597 196.625C241.796 218.633 219.975 223.784 184.668 232.728C149.361 241.672 128.477 276.885 128.477 276.885C128.477 276.885 132.738 344.08 105.626 370.022C78.5134 395.964 76.2189 389.033 76.2189 389.033L70.0379 431.177L67.5093 448.596L77.8578 465.36H131.755C131.755 465.36 138.123 448.737 121.125 448.737C114.878 448.953 108.623 448.797 102.395 448.268C102.395 448.268 93.7319 449.345 98.6018 431.177L105.532 405.095C105.532 405.095 130.818 402.987 166.406 382.384C201.994 361.781 214.309 333.685 232.852 326.193C251.395 318.701 292.04 325.865 327.487 333.451C341.754 336.058 356.307 336.735 370.755 335.464L366.54 376.297L363.965 393.763L374.314 410.527H428.398C428.398 410.527 434.813 393.856 417.815 393.856C411.568 394.073 405.313 393.917 399.084 393.388C399.084 393.388 390.422 394.512 395.292 376.297L402.222 350.215C402.222 350.215 418.096 337.665 442.258 322.119C472.039 313.035 498.449 300.064 512.076 284.658L504.068 305.121C504.068 305.121 529.027 293.836 540.686 271.406L538.251 287.702C538.251 287.702 558.012 271.453 559.417 256.703C560.967 245.915 564.207 235.438 569.016 225.657L565.411 250.1C573.695 240.398 578.738 228.348 579.833 215.637C604.183 196.906 590.65 148.956 593.881 151.204C597.112 153.452 606.056 159.82 606.056 159.82C610.414 153.999 613.145 147.123 613.968 139.898C614.791 132.673 613.676 125.359 610.738 118.707L617.434 105.033C617.434 105.033 626.565 88.5507 624.458 83.8681Z" stroke="#D8BFA0" stroke-width="4.6826" stroke-linecap="square" stroke-linejoin="bevel"/>
<path d="M587.326 70.0543C586.124 68.6077 584.594 67.4681 582.865 66.7298C581.135 65.9914 579.254 65.6755 577.378 65.8082C575.502 65.9409 573.684 66.5184 572.076 67.4929C570.467 68.4674 569.113 69.8109 568.127 71.4122C572.653 70.6846 577.219 70.2311 581.8 70.0543C585.875 73.1499 590.748 75.0181 595.848 75.4393L587.326 70.0543Z" fill="#D8BFA0"/>
<path d="M601.002 86.3965C600.674 88.8783 600.628 91.922 606.902 93.4204C609.004 93.9182 611.069 94.5596 613.083 95.3403L620.107 98.1499" stroke="#D8BFA0" stroke-width="4.6826" stroke-linecap="square" stroke-linejoin="bevel"/>
<path d="M232.526 326.286C231.226 326.818 229.96 327.428 228.733 328.112C232.947 337.478 240.674 372.831 224.566 391.702C214.697 403.208 203.007 413.016 189.961 420.734L204.009 448.596H232.432L227.188 421.015C227.188 421.015 282.396 386.27 290.918 367.961C296.156 355.38 299.957 342.248 302.25 328.815C274.248 323.523 246.808 320.714 232.526 326.286Z" fill="#D8BFA0"/>
<path d="M523.13 79.4195C529.495 70.8811 532.481 60.2911 531.511 49.685C544.91 44.4647 559.327 42.3823 573.655 43.5976C573.655 43.5976 557.406 1.45417 477.287 2.81213L486.184 16.0639C486.184 16.0639 431.397 -13.1088 378.156 14.8464C354.743 27.2553 341.866 41.4436 335.029 53.3843C319.807 59.5114 306.535 69.6595 296.632 82.7441C275.467 113.743 271.861 172.322 271.861 172.322L299.395 152.234C298.21 169.298 302.156 186.326 310.726 201.129C319.296 215.932 332.097 227.834 347.485 235.303L348.562 216.854C348.562 216.854 349.967 241.204 368.65 255.579L386.772 211.656C386.772 211.656 417.396 201.167 430.601 253.051C443.806 304.934 511.61 284.892 511.61 284.892L503.603 305.355C503.603 305.355 528.561 294.07 540.221 271.64L537.786 287.936C537.786 287.936 557.547 271.687 558.951 256.937C560.502 246.149 563.741 235.672 568.551 225.891L564.945 250.335C573.23 240.632 578.273 228.582 579.368 215.871C603.717 197.14 590.184 149.19 593.415 151.438C593.415 151.438 576.511 133.035 559.186 132.989C541.86 132.942 488.9 127.884 523.13 79.4195Z" fill="#D8BFA0"/>
<path d="M443.759 321.65L500.419 411.182H526.875L487.027 303.482C473.289 310.996 458.803 317.054 443.806 321.557L443.759 321.65Z" fill="#D8BFA0"/>
<path d="M281.505 303.576C228.638 307.509 221.427 333.357 221.427 333.357C224.709 330.402 228.46 328.013 232.525 326.286C236.418 324.882 240.481 324 244.606 323.664C256.5 309.476 281.505 303.576 281.505 303.576Z" fill="#D8BFA0" stroke="#D8BFA0" stroke-width="4.6826" stroke-linecap="square" stroke-linejoin="bevel"/>
<path d="M370.429 335.558L375.626 310.787C375.626 310.787 415.616 290.183 416.271 266.489" stroke="#D8BFA0" stroke-width="4.6826" stroke-linecap="square" stroke-linejoin="bevel"/>
</svg>
