<svg width="547" height="419" viewBox="0 0 547 419" fill="none" xmlns="http://www.w3.org/2000/svg">
<path d="M159.611 32.6849V58.6266" stroke="#D8BFA0" stroke-width="4.6826" stroke-linecap="square" stroke-linejoin="bevel"/>
<path d="M172.583 45.6558H146.641" stroke="#D8BFA0" stroke-width="4.6826" stroke-linecap="square" stroke-linejoin="bevel"/>
<path d="M314.653 177.284C314.653 177.284 333.664 178.454 333.664 203.787H334.32C334.32 178.454 353.284 177.284 353.284 177.284V176.628C353.284 176.628 334.32 175.504 334.32 150.125H333.664C333.664 175.504 314.653 176.628 314.653 176.628V177.284Z" stroke="#D8BFA0" stroke-width="4.6826" stroke-linecap="square" stroke-linejoin="bevel"/>
<path d="M206.11 215.354V241.342" stroke="#D8BFA0" stroke-width="4.6826" stroke-linecap="square" stroke-linejoin="bevel"/>
<path d="M219.081 228.324H193.139" stroke="#D8BFA0" stroke-width="4.6826" stroke-linecap="square" stroke-linejoin="bevel"/>
<path d="M387.982 4.35511C387.982 5.19789 387.732 6.02175 387.264 6.72249C386.796 7.42324 386.131 7.96946 385.352 8.29198C384.573 8.6145 383.716 8.69883 382.89 8.53441C382.063 8.37 381.304 7.9642 380.708 7.36826C380.112 6.77233 379.706 6.01303 379.542 5.18644C379.378 4.35985 379.462 3.50308 379.784 2.72446C380.107 1.94583 380.653 1.2803 381.354 0.812075C382.055 0.343852 382.879 0.0939941 383.721 0.0939941C384.851 0.0939941 385.935 0.542902 386.734 1.34203C387.534 2.14115 387.982 3.22498 387.982 4.35511Z" fill="#D8BFA0"/>
<path d="M284.637 309.614V141.79H261.224V309.848C268.727 306.778 277.135 306.778 284.637 309.848V309.614Z" fill="#D8BFA0"/>
<path d="M250.032 83.5848C209.013 84.2404 198.196 91.6388 151.932 109.199C147.347 111.039 142.656 112.603 137.884 113.881C129.592 115.927 120.832 114.749 113.374 110.586C105.917 106.422 100.318 99.5839 97.7073 91.4516C96.6864 88.0931 94.8207 85.0529 92.2886 82.6218C89.7565 80.1907 86.6427 78.4502 83.2455 77.5668C79.8483 76.6834 76.2813 76.6868 72.8857 77.5765C69.4901 78.4662 66.3796 80.2125 63.852 82.6482C54.4868 92.0134 55.002 109.995 76.4951 120.577C113.956 139.027 146.734 138.184 192.015 113.366C209.632 103.928 230.138 101.406 249.517 106.295V88.5015C249.515 86.849 249.688 85.201 250.032 83.5848Z" stroke="#D8BFA0" stroke-width="4.6826" stroke-linecap="square" stroke-linejoin="bevel"/>
<path d="M272.977 37.2271C248.628 63.3092 249.564 83.4912 249.564 83.4912H296.39C296.39 83.4912 297.28 63.3092 272.977 37.2271Z" fill="#D8BFA0" stroke="#D8BFA0" stroke-width="4.6826" stroke-linecap="square" stroke-linejoin="bevel"/>
<path d="M296.343 128.023V83.4912H249.517V128.023C249.517 128.023 248.113 152.747 272.93 152.747C297.748 152.747 296.343 128.023 296.343 128.023Z" stroke="#D8BFA0" stroke-width="4.6826" stroke-linecap="square" stroke-linejoin="bevel"/>
<path d="M326.499 398.303C318.501 398.303 310.831 395.126 305.176 389.47C299.52 383.815 296.343 376.145 296.343 368.147V330.358C296.343 324.149 293.877 318.194 289.486 313.803C285.095 309.412 279.14 306.945 272.93 306.945C266.721 306.945 260.766 309.412 256.375 313.803C251.984 318.194 249.517 324.149 249.517 330.358V368.147C249.517 376.145 246.34 383.815 240.685 389.47C235.029 395.126 227.359 398.303 219.361 398.303H186.911V408.37H358.809V398.303H326.499Z" stroke="#D8BFA0" stroke-width="4.6826" stroke-linecap="square" stroke-linejoin="bevel"/>
<path d="M430.5 408.37H115.455V418.438H430.5V408.37Z" fill="#D8BFA0"/>
<path d="M283.747 26.4102C283.747 28.5515 283.112 30.6447 281.921 32.4245C280.731 34.2043 279.038 35.5907 277.059 36.408C275.08 37.2253 272.903 37.4368 270.803 37.0156C268.704 36.5944 266.776 35.5596 265.265 34.0421C263.755 32.5247 262.728 30.5929 262.316 28.4916C261.904 26.3903 262.125 24.2139 262.951 22.2382C263.777 20.2625 265.17 18.5764 266.955 17.3935C268.74 16.2106 270.836 15.5841 272.977 15.5934C275.838 15.6057 278.577 16.7508 280.596 18.778C282.614 20.8052 283.747 23.5495 283.747 26.4102Z" fill="#D8BFA0"/>
<path d="M88.8106 125.728L2.36975 302.309H175.251L88.8106 125.728Z" stroke="#D8BFA0" stroke-width="4.6826" stroke-linecap="square" stroke-linejoin="bevel"/>
<path d="M2.36975 302.31H175.158C169.109 320.438 157.511 336.204 142.006 347.375C126.501 358.547 107.874 364.559 88.7637 364.559C69.6531 364.559 51.0267 358.547 35.5217 347.375C20.0166 336.204 8.41863 320.438 2.36975 302.31Z" fill="#D8BFA0" stroke="#D8BFA0" stroke-width="4.6826" stroke-linecap="square" stroke-linejoin="bevel"/>
<path d="M296.344 83.5848C337.363 84.2404 348.18 91.6388 394.444 109.199C399.029 111.039 403.72 112.603 408.492 113.881C416.784 115.927 425.544 114.749 433.002 110.586C440.459 106.422 446.059 99.5839 448.669 91.4516C449.69 88.0931 451.555 85.0529 454.088 82.6218C456.62 80.1907 459.733 78.4502 463.131 77.5668C466.528 76.6834 470.095 76.6868 473.49 77.5765C476.886 78.4662 479.996 80.2125 482.524 82.6482C491.889 92.0134 491.374 109.995 469.881 120.577C432.42 139.027 399.642 138.184 354.361 113.366C336.745 103.923 316.237 101.402 296.859 106.295V88.5015C296.861 86.849 296.688 85.201 296.344 83.5848Z" stroke="#D8BFA0" stroke-width="4.6826" stroke-linecap="square" stroke-linejoin="bevel"/>
<path d="M457.566 125.728L544.053 302.309H371.125L457.566 125.728Z" stroke="#D8BFA0" stroke-width="4.6826" stroke-linecap="square" stroke-linejoin="bevel"/>
<path d="M544.007 302.31H371.219C377.267 320.438 388.865 336.204 404.37 347.375C419.875 358.547 438.502 364.559 457.613 364.559C476.723 364.559 495.35 358.547 510.855 347.375C526.36 336.204 537.958 320.438 544.007 302.31Z" fill="#D8BFA0" stroke="#D8BFA0" stroke-width="4.6826" stroke-linecap="square" stroke-linejoin="bevel"/>
</svg>
