<svg width="476" height="533" viewBox="0 0 476 533" fill="none" xmlns="http://www.w3.org/2000/svg">
<path d="M356.668 85.2617V111.203" stroke="#D8BFA0" stroke-width="4.6826" stroke-linecap="square" stroke-linejoin="bevel"/>
<path d="M369.638 98.2324H343.649" stroke="#D8BFA0" stroke-width="4.6826" stroke-linecap="square" stroke-linejoin="bevel"/>
<path d="M16.2421 265.308V291.25" stroke="#D8BFA0" stroke-width="4.6826" stroke-linecap="square" stroke-linejoin="bevel"/>
<path d="M29.2153 278.278H3.27368" stroke="#D8BFA0" stroke-width="4.6826" stroke-linecap="square" stroke-linejoin="bevel"/>
<path d="M118.606 418.054C118.606 418.054 137.617 419.225 137.617 444.558H138.273C138.273 419.225 157.284 418.054 157.284 418.054V417.399C157.284 417.399 138.273 416.275 138.273 390.942H137.617C137.617 416.275 118.606 417.399 118.606 417.399V418.054Z" stroke="#D8BFA0" stroke-width="4.6826" stroke-linecap="square" stroke-linejoin="bevel"/>
<path d="M416.466 63.4875C416.475 64.3322 416.233 65.1607 415.771 65.8676C415.308 66.5744 414.646 67.1278 413.868 67.4575C413.09 67.7872 412.232 67.8784 411.403 67.7193C410.573 67.5602 409.809 67.1581 409.209 66.5641C408.608 65.97 408.197 65.2108 408.029 64.3829C407.861 63.5551 407.943 62.696 408.264 61.9146C408.585 61.1332 409.131 60.465 409.833 59.9947C410.534 59.5244 411.36 59.2733 412.205 59.2732C412.762 59.267 413.315 59.3714 413.832 59.5804C414.349 59.7895 414.819 60.0989 415.215 60.4909C415.611 60.8828 415.926 61.3495 416.141 61.8639C416.355 62.3783 416.466 62.9301 416.466 63.4875Z" fill="#D8BFA0"/>
<path d="M81.1466 74.3512L78.8053 76.5987C55.9212 99.63 42.299 130.268 40.5291 162.687C38.7592 195.106 48.9652 227.045 69.2061 252.431C74.246 258.869 80.0656 264.658 86.5316 269.663C88.1237 270.88 90.8396 273.081 93.2277 275.328C93.9544 275.995 94.5346 276.806 94.9315 277.708C95.3284 278.611 95.5334 279.587 95.5334 280.573C95.5334 281.559 95.3284 282.535 94.9315 283.437C94.5346 284.34 93.9544 285.151 93.2277 285.817C80.8188 297.196 67.2862 312.321 64.3361 327.961C58.1551 360.739 78.3839 378.065 78.3839 378.065C94.2314 366.227 109.396 353.501 123.805 339.948C153.399 313.07 120.012 286.988 112.38 279.309C120.481 286.66 142.676 307.779 159.206 302.722C179.107 296.587 218.347 245.079 218.347 245.079C180.043 222.556 146.328 247.42 128.254 261.515C124.502 264.645 119.999 266.744 115.189 267.602C110.928 268.211 103.249 260.578 101.469 258.658C88.7589 244.3 80.9806 226.249 79.2736 207.15C78.9482 201.957 78.9482 196.749 79.2736 191.557C79.2736 189.215 79.6951 186.874 80.0229 184.392C89.3881 105.116 179.95 102.587 191.843 165.006C195.382 184.999 203.322 203.955 215.09 220.501C226.857 237.047 242.157 250.768 259.882 260.672C319.398 201.156 318.836 130.449 274.21 85.8235C229.585 41.1982 142.02 17.7385 81.1466 74.3512Z" stroke="#D8BFA0" stroke-width="4.6826" stroke-linecap="square" stroke-linejoin="bevel"/>
<path d="M201.722 265.495C197.546 261.134 192.404 257.816 186.711 255.807C181.017 253.798 174.931 253.154 168.944 253.929" stroke="#D8BFA0" stroke-width="4.6826" stroke-linecap="square" stroke-linejoin="bevel"/>
<path d="M184.162 284.319C179.986 279.959 174.845 276.64 169.151 274.631C163.457 272.622 157.372 271.979 151.384 272.753" stroke="#D8BFA0" stroke-width="4.6826" stroke-linecap="square" stroke-linejoin="bevel"/>
<path d="M95.1938 364.766C91.5329 359.681 89.0423 353.849 87.9008 347.688C86.7593 341.527 86.9951 335.19 88.5913 329.131" stroke="#D8BFA0" stroke-width="4.6826" stroke-linecap="square" stroke-linejoin="bevel"/>
<path d="M114.44 347.487C110.793 342.387 108.311 336.547 107.17 330.381C106.029 324.215 106.257 317.874 107.838 311.806" stroke="#D8BFA0" stroke-width="4.6826" stroke-linecap="square" stroke-linejoin="bevel"/>
<path d="M197.555 44.0078C197.555 44.0078 157.144 33.3315 120.339 77.2075L198.585 100.105" stroke="#D8BFA0" stroke-width="4.6826" stroke-linecap="square" stroke-linejoin="bevel"/>
<path d="M191.652 164.679C194.567 155.74 199.55 147.616 206.198 140.968C212.846 134.32 220.97 129.336 229.909 126.422" stroke="#D8BFA0" stroke-width="4.6826" stroke-linecap="square" stroke-linejoin="bevel"/>
<path d="M266.858 36.6095C257.259 52.5771 214.132 47.0517 196.01 44.0081C225.431 50.1364 252.494 64.5285 274.023 85.4958C282.276 93.7398 289.195 103.219 294.532 113.591C319.022 70.8393 281.983 0.0852051 281.983 0.0852051C278.913 12.9858 273.807 25.3149 266.858 36.6095Z" fill="#D8BFA0"/>
<path d="M266.062 172.78C269.95 182.328 272.868 192.242 274.772 202.374C274.772 202.374 291.254 183.409 266.062 172.78Z" fill="#D8BFA0"/>
<path d="M432.339 458.278L434.681 456.03C457.565 432.999 471.187 402.361 472.957 369.942C474.727 337.523 464.521 305.584 444.28 280.199C439.24 273.76 433.42 267.972 426.954 262.967C425.362 261.749 422.647 259.548 420.258 257.301C419.538 256.63 418.963 255.819 418.57 254.916C418.178 254.014 417.975 253.04 417.975 252.056C417.975 251.072 418.178 250.099 418.57 249.196C418.963 248.294 419.538 247.482 420.258 246.812C432.667 235.433 446.2 220.308 449.15 204.668C455.331 171.89 435.102 154.564 435.102 154.564C419.265 166.416 404.101 179.141 389.681 192.681C360.087 219.559 393.474 245.641 401.106 253.274C393.006 245.969 370.81 224.804 354.28 229.861C334.286 236.276 295.045 287.785 295.045 287.785C333.349 310.308 367.064 285.443 385.139 271.349C388.895 268.198 393.419 266.097 398.25 265.261C402.464 264.653 410.191 272.285 411.923 274.205C424.679 288.626 432.461 306.766 434.119 325.948C434.444 331.14 434.444 336.348 434.119 341.541C434.119 343.882 433.697 346.224 433.37 348.705C424.004 427.982 333.443 430.463 321.549 368.091C318.011 348.098 310.07 329.142 298.303 312.597C286.535 296.051 271.235 282.329 253.511 272.426C193.995 331.942 194.557 402.649 239.182 447.274C283.807 491.899 371.466 514.891 432.339 458.278Z" stroke="#D8BFA0" stroke-width="4.6826" stroke-linecap="square" stroke-linejoin="bevel"/>
<path d="M311.763 267.134C315.941 271.491 321.083 274.808 326.776 276.817C332.469 278.826 338.554 279.471 344.541 278.7" stroke="#D8BFA0" stroke-width="4.6826" stroke-linecap="square" stroke-linejoin="bevel"/>
<path d="M329.323 248.31C333.501 252.668 338.643 255.984 344.336 257.993C350.029 260.002 356.113 260.647 362.101 259.876" stroke="#D8BFA0" stroke-width="4.6826" stroke-linecap="square" stroke-linejoin="bevel"/>
<path d="M418.292 167.816C421.951 172.911 424.44 178.751 425.582 184.919C426.723 191.087 426.488 197.43 424.895 203.497" stroke="#D8BFA0" stroke-width="4.6826" stroke-linecap="square" stroke-linejoin="bevel"/>
<path d="M399.045 185.141C402.692 190.242 405.174 196.082 406.315 202.248C407.456 208.414 407.228 214.755 405.648 220.823" stroke="#D8BFA0" stroke-width="4.6826" stroke-linecap="square" stroke-linejoin="bevel"/>
<path d="M315.93 488.621C315.93 488.621 356.341 499.298 393.146 455.422L314.9 432.524" stroke="#D8BFA0" stroke-width="4.6826" stroke-linecap="square" stroke-linejoin="bevel"/>
<path d="M321.828 367.95C318.914 376.889 313.93 385.013 307.282 391.661C300.634 398.309 292.51 403.293 283.571 406.207" stroke="#D8BFA0" stroke-width="4.6826" stroke-linecap="square" stroke-linejoin="bevel"/>
<path d="M246.63 496.019C256.229 480.052 299.356 485.577 317.477 488.621C288.041 482.453 260.977 468.011 239.465 446.993C231.212 438.749 224.292 429.27 218.955 418.897C194.465 461.649 231.505 532.403 231.505 532.403C234.589 519.551 239.694 507.271 246.63 496.019Z" fill="#D8BFA0"/>
<path d="M247.425 359.85C243.537 350.302 240.619 340.387 238.715 330.256C238.715 330.256 222.279 349.22 247.425 359.85Z" fill="#D8BFA0"/>
</svg>
