<svg width="568" height="605" viewBox="0 0 568 605" fill="none" xmlns="http://www.w3.org/2000/svg">
<path d="M433.285 98.9534V124.942" stroke="#D8BFA0" stroke-width="4.6826" stroke-linecap="square" stroke-linejoin="bevel"/>
<path d="M446.256 111.924H420.314" stroke="#D8BFA0" stroke-width="4.6826" stroke-linecap="square" stroke-linejoin="bevel"/>
<path d="M490.319 297.824V323.766" stroke="#D8BFA0" stroke-width="4.6826" stroke-linecap="square" stroke-linejoin="bevel"/>
<path d="M503.29 310.795H477.301" stroke="#D8BFA0" stroke-width="4.6826" stroke-linecap="square" stroke-linejoin="bevel"/>
<path d="M169.232 235.545C169.232 235.545 188.244 236.716 188.244 262.048H188.899C188.899 236.716 207.911 235.545 207.911 235.545V234.889C207.911 234.889 188.899 233.766 188.899 208.433H188.244C188.244 233.766 169.232 234.889 169.232 234.889V235.545Z" stroke="#D8BFA0" stroke-width="4.6826" stroke-linecap="square" stroke-linejoin="bevel"/>
<path d="M441.761 407.35C441.761 408.194 441.51 409.02 441.039 409.722C440.569 410.423 439.901 410.97 439.119 411.291C438.338 411.612 437.479 411.693 436.651 411.525C435.823 411.357 435.064 410.946 434.47 410.346C433.876 409.745 433.474 408.981 433.315 408.152C433.156 407.322 433.247 406.464 433.576 405.686C433.906 404.908 434.46 404.246 435.167 403.784C435.873 403.321 436.702 403.079 437.547 403.088C438.104 403.088 438.656 403.199 439.17 403.414C439.685 403.628 440.151 403.943 440.543 404.339C440.935 404.736 441.245 405.206 441.454 405.722C441.663 406.239 441.767 406.792 441.761 407.35Z" fill="#D8BFA0"/>
<path d="M331.439 385.904C331.439 385.904 328.77 458.109 321.277 478.807L322.776 521.184L329.519 529.098L330.596 549.888H356.725L342.302 522.776L339.633 478.432C339.633 478.432 359.956 411.892 365.575 403.51L368.759 359.634L331.439 385.904Z" fill="#D8BFA0"/>
<path d="M294.774 141.893C310.877 139.222 327.241 138.483 343.52 139.692C373.816 141.331 383.181 148.496 383.181 148.496C385.261 168.516 383.674 188.748 378.499 208.199L377.375 212.413C377.375 221.778 387.723 245.941 387.723 245.941C394.76 267.621 394.596 290.995 387.255 312.574L377.89 340.248C373.022 354.499 365.186 367.554 354.898 378.552C345.908 387.917 335.747 399.296 332.797 403.604C327.177 411.892 306.855 478.526 306.855 478.526L309.477 522.87L323.9 549.982H297.771L296.694 529.191L289.717 521.184L288.124 479.041C295.617 458.344 298.286 404.962 298.286 404.962C252.022 431.278 188.853 430.529 188.853 430.529C188.853 430.529 126.434 503.858 123.297 512.521C120.159 521.184 111.263 567.027 111.263 567.027L119.925 588.801H105.128L88.9265 571.522C101.441 545.199 106.525 515.957 103.63 486.954C122.033 475.295 127.652 442.563 127.652 442.563C114.494 434.743 109.155 414.093 107.001 398.594C106.017 392 106.452 385.272 108.277 378.861C110.102 372.449 113.275 366.5 117.584 361.414L119.317 359.541C135.078 343.86 154.336 332.145 175.508 325.358L238.442 304.52C253.962 299.367 268.08 290.697 279.696 279.187C295.805 263.211 306.345 242.475 309.758 220.046L300.955 210.447L301.236 218.969C295.029 214.525 290.665 207.962 288.967 200.519L284.285 205.202L281.288 189.515L291.168 162.216" stroke="#D8BFA0" stroke-width="4.6826" stroke-linecap="square" stroke-linejoin="bevel"/>
<path d="M196.018 379.863C198.827 412.642 188.947 430.295 188.947 430.295C188.947 430.295 192.833 430.295 199.389 430.014C201.216 413.229 200.075 396.253 196.018 379.863Z" fill="#D8BFA0" stroke="#D8BFA0" stroke-width="4.6826" stroke-linecap="square" stroke-linejoin="bevel"/>
<path d="M298.379 381.923C298.379 381.923 296.272 396.627 293.697 407.35C295.335 406.507 296.974 405.664 298.379 404.728C298.827 397.133 298.827 389.518 298.379 381.923Z" fill="#D8BFA0" stroke="#D8BFA0" stroke-width="4.6826" stroke-linecap="square" stroke-linejoin="bevel"/>
<path d="M188.946 430.295C188.946 430.295 174.899 446.871 159.727 465.18C156.26 473.798 150.433 481.263 142.916 486.72C145.812 515.718 140.744 544.956 128.26 571.288L144.415 588.567H159.446L150.83 566.792C150.83 566.792 159.821 520.903 162.864 512.287C165.908 503.671 228.421 430.295 228.421 430.295C251.711 430.036 274.879 426.891 297.395 420.929C298.191 411.564 298.519 404.774 298.519 404.774C252.115 431.044 188.946 430.295 188.946 430.295Z" fill="#D8BFA0"/>
<path d="M360.798 155.332L362.952 125.363L336.542 125.644L330.033 127.236L327.973 139.271" stroke="#D8BFA0" stroke-width="4.6826" stroke-linecap="square" stroke-linejoin="bevel"/>
<path d="M343.145 58.4025C329.706 60.8842 319.732 74.6511 320.294 84.5782C320.856 94.5053 301.891 138.896 309.57 132.247L336.542 125.645L362.952 125.364L385.85 148.777H389.175L381.167 103.59L359.159 98.9069L352.791 88.1837L380.887 98.3451L380.09 71.9351L372.645 73.855C372.645 73.855 370.163 53.4857 343.145 58.4025Z" stroke="#D8BFA0" stroke-width="4.6826" stroke-linecap="square" stroke-linejoin="bevel"/>
<path d="M293.041 39.2037C260.637 60.369 300.486 103.683 253.379 135.946C259.084 136.369 264.795 135.217 269.89 132.616C274.985 130.015 279.268 126.065 282.271 121.196L272.391 138.007C272.391 138.007 303.764 135.244 303.764 84.2971C303.764 45.7593 332.328 63.2254 332.328 63.2254L348.436 57.6063C348.436 57.6063 325.96 17.6637 293.041 39.2037Z" fill="#D8BFA0"/>
<path d="M75.7684 371.06C74.6914 310.42 131.304 349.707 131.304 349.707L139.265 342.777C139.265 342.777 108.64 293.797 66.9651 317.069C0.519 354.202 73.8486 404.727 0.472168 477.308C0.472168 477.308 56.1015 488.125 73.3335 444.951C87.8027 408.801 76.1431 390.071 75.7684 371.06Z" fill="#D8BFA0"/>
<path d="M235.023 587.349C233.806 586.553 207.583 573.02 207.583 573.02L225.611 561.173L307.323 549.982H333.452H340.382H366.511C366.511 549.982 377.328 563.702 376.11 562.672C374.893 561.642 348.295 574.332 348.295 574.332L386.74 573.114C386.74 573.114 401.864 597.229 402.239 598.447C402.455 600.486 402.455 602.542 402.239 604.581H83.822L95.3412 588.66H130.039L235.023 587.349Z" fill="#D8BFA0"/>
<path d="M291.168 142.83C278.829 147.597 266.856 153.263 255.346 159.781C248.549 163.939 242.097 168.636 236.053 173.829L238.816 182.351C243.733 185.41 249.156 187.566 254.831 188.719C262.557 189.796 313.223 190.358 313.223 190.358C316.985 192.104 320.973 193.318 325.07 193.964C327.644 192.916 330.106 191.614 332.421 190.077L337.479 179.354L346.282 176.31C346.17 174.882 345.576 173.535 344.598 172.488C343.619 171.442 342.314 170.759 340.897 170.551C335.793 169.708 328.394 164.791 323.431 167.929C317.3 171.184 310.513 173.009 303.577 173.267C298.332 173.267 284.846 162.824 268.598 165.868" stroke="#D8BFA0" stroke-width="4.6826" stroke-linecap="square" stroke-linejoin="bevel"/>
<path d="M509.33 169.989C509.33 169.989 502.166 167.413 498.045 166.289C493.925 165.165 486.198 169.895 486.198 169.895C486.198 169.895 480.158 170.972 464.705 166.008C449.253 161.045 434.69 162.169 425.325 159.968C415.959 157.767 383.181 148.402 383.181 148.402C384.164 158.379 384.258 168.424 383.462 178.417L406.594 180.899C417.941 180.379 429.311 181.117 440.496 183.1C458.384 186.424 472.713 182.023 483.155 185.863C490.066 188.213 497.356 189.245 504.648 188.906C508.622 183.455 510.303 176.664 509.33 169.989Z" fill="#D8BFA0"/>
<path d="M340.897 170.551H548.477" stroke="#D8BFA0" stroke-width="4.6826" stroke-linecap="square" stroke-linejoin="bevel"/>
<path d="M567.301 170.55L535.506 160.53L540.47 170.55L535.506 180.524L567.301 170.55Z" fill="#D8BFA0"/>
<path d="M415.865 2.44531C415.865 36.3474 429.164 52.2683 455.387 78.725C489.195 112.767 527.499 144.89 498.467 170.551" stroke="#D8BFA0" stroke-width="4.6826" stroke-linecap="square" stroke-linejoin="bevel"/>
<path d="M415.865 338.563C415.865 304.661 429.164 288.74 455.387 262.283C489.195 228.24 527.499 196.165 498.467 170.504" stroke="#D8BFA0" stroke-width="4.6826" stroke-linecap="square" stroke-linejoin="bevel"/>
<path d="M416.521 20.9419L340.897 170.551L416.193 319.505" stroke="#D8BFA0" stroke-width="4.6826" stroke-linecap="square" stroke-linejoin="bevel"/>
<path d="M354.664 378.552C364.029 350.128 351.526 306.346 327.973 284.01" stroke="#D8BFA0" stroke-width="4.6826" stroke-linecap="square" stroke-linejoin="bevel"/>
<path d="M363.046 201.363C363.046 222.153 374.471 239.947 376.11 265.842C377.749 291.737 372.833 303.958 372.833 303.958" stroke="#D8BFA0" stroke-width="4.6826" stroke-linecap="square" stroke-linejoin="bevel"/>
<path d="M336.543 125.644C337.386 125.644 361.641 143.86 361.641 143.86L362.953 125.363L336.543 125.644Z" fill="#D8BFA0"/>
</svg>
