<svg width="477" height="447" viewBox="0 0 477 447" fill="none" xmlns="http://www.w3.org/2000/svg">
<path d="M313.484 185.625V211.567" stroke="#D8BFA0" stroke-width="4.6826" stroke-linecap="square" stroke-linejoin="bevel"/>
<path d="M326.454 198.596H300.513" stroke="#D8BFA0" stroke-width="4.6826" stroke-linecap="square" stroke-linejoin="bevel"/>
<path d="M306.038 75.7243C306.038 75.7243 325.05 76.895 325.05 102.228H325.659C325.659 76.895 344.67 75.7243 344.67 75.7243V75.0687C344.67 75.0687 325.659 73.9449 325.659 48.5652H325.05C325.05 73.9449 306.038 75.0687 306.038 75.0687V75.7243Z" stroke="#D8BFA0" stroke-width="4.6826" stroke-linecap="square" stroke-linejoin="bevel"/>
<path d="M110.352 123.112V149.054" stroke="#D8BFA0" stroke-width="4.6826" stroke-linecap="square" stroke-linejoin="bevel"/>
<path d="M123.323 136.083H97.3813" stroke="#D8BFA0" stroke-width="4.6826" stroke-linecap="square" stroke-linejoin="bevel"/>
<path d="M40.1599 240.037C40.1692 240.882 39.9273 241.71 39.4647 242.417C39.0022 243.124 38.34 243.677 37.5623 244.007C36.7845 244.337 35.9263 244.428 35.0966 244.269C34.267 244.109 33.5033 243.707 32.9027 243.113C32.302 242.519 31.8915 241.76 31.7233 240.932C31.555 240.104 31.6367 239.245 31.9578 238.464C32.2789 237.683 32.8249 237.014 33.5266 236.544C34.2283 236.074 35.0541 235.823 35.8989 235.823C37.021 235.822 38.0977 236.265 38.8955 237.054C39.6933 237.843 40.1476 238.915 40.1599 240.037Z" fill="#D8BFA0"/>
<path d="M188.692 185.25C188.692 185.25 227.792 209.553 232.475 244.204C216.423 226.46 198.929 210.078 180.17 195.224C182.335 191.377 185.23 187.989 188.692 185.25Z" stroke="#D8BFA0" stroke-width="4.6826" stroke-linecap="square" stroke-linejoin="bevel"/>
<path d="M188.692 185.25C188.692 185.25 171.273 202.436 173.474 217.326C165.42 212.644 160.456 210.068 160.456 210.068C160.456 210.068 163.921 185.485 188.692 185.25Z" stroke="#D8BFA0" stroke-width="4.6826" stroke-linecap="square" stroke-linejoin="bevel"/>
<path d="M231.96 204.871C231.96 204.871 271.059 229.173 275.789 263.825C259.812 246.09 242.396 229.708 223.718 214.845C225.875 211.006 228.753 207.619 232.194 204.871" stroke="#D8BFA0" stroke-width="4.6826" stroke-linecap="square" stroke-linejoin="bevel"/>
<path d="M231.96 204.871C231.96 204.871 214.587 222.056 216.788 236.946C208.734 232.264 203.724 229.688 203.724 229.688C203.724 229.688 207.189 204.917 231.96 204.871Z" stroke="#D8BFA0" stroke-width="4.6826" stroke-linecap="square" stroke-linejoin="bevel"/>
<path d="M267.829 224.022C267.829 224.022 306.928 248.325 311.611 283.023C295.575 265.266 278.096 248.868 259.353 233.996C261.51 230.158 264.388 226.771 267.829 224.022Z" stroke="#D8BFA0" stroke-width="4.6826" stroke-linecap="square" stroke-linejoin="bevel"/>
<path d="M267.829 224.022C267.829 224.022 250.409 241.254 252.61 256.098C244.556 251.416 239.592 248.84 239.592 248.84C239.592 248.84 243.058 224.116 267.829 224.022Z" stroke="#D8BFA0" stroke-width="4.6826" stroke-linecap="square" stroke-linejoin="bevel"/>
<path d="M305.617 385.947C305.617 416.149 309.55 427.528 350.664 442.138C391.777 456.748 424.087 425.796 424.087 425.796L364.852 412.778L417.25 403.413C398.094 389.426 376.497 379.136 353.567 373.07C345.124 371.205 336.357 371.407 328.009 373.657C319.661 375.907 311.979 380.139 305.617 385.994V385.947Z" fill="#D8BFA0"/>
<path d="M100.144 12.6497C100.144 12.6497 104.546 0.0534668 123.557 0.0534668C142.569 0.0534668 143.177 13.633 143.177 44.1636C143.177 74.6942 152.543 82.9824 152.543 82.9824C152.543 82.9824 100.472 74.8347 100.472 30.7245L100.144 12.6497Z" fill="#D8BFA0"/>
<path d="M111.336 213.346C115.431 210.869 119.934 209.141 124.634 208.242C97.803 188.528 39.7856 140.532 39.7856 93.7992C39.7856 32.9254 100.004 30.9118 100.004 30.9118V12.8369C100.004 12.8369 20.9615 -9.17126 4.52556 82.2332C-8.77304 155.937 83.802 237.789 107.543 257.269C97.803 239.054 96.3982 222.711 111.336 213.346Z" stroke="#D8BFA0" stroke-width="4.6826" stroke-linecap="square" stroke-linejoin="bevel"/>
<path d="M292.646 385.947L277.193 405.661C284.217 418.959 302.386 416.009 308.848 412.638C306.213 403.999 305.12 394.964 305.617 385.947H292.646Z" fill="#D8BFA0"/>
<path d="M248.208 369.277C248.208 369.277 233.177 397.841 271.621 412.684L297.75 379.391L281.221 369.277C275.174 370.453 269.024 371.018 262.865 370.962C257.935 370.898 253.024 370.333 248.208 369.277Z" fill="#D8BFA0"/>
<path d="M355.533 307.373C368.925 280.916 377.401 272.955 419.872 281.759C462.343 290.562 477 334.438 477 334.438L419.31 314.912L461.126 350.406C437.813 352.68 414.279 350.422 391.823 343.756C383.427 340.812 375.803 336.012 369.52 329.712C363.237 323.413 358.456 315.776 355.533 307.373Z" fill="#D8BFA0"/>
<path d="M344.155 300.63L339.472 275.25C351.554 267.243 366.116 279.324 370.331 285.692C364.13 291.937 359.158 299.291 355.674 307.373L344.155 300.63Z" fill="#D8BFA0"/>
<path d="M297.797 292.014C297.797 292.014 297.282 259.236 337.599 266.213L345.747 309.012H326.782C322.024 304.85 316.881 301.15 311.423 297.961C307.084 295.544 302.52 293.552 297.797 292.014Z" fill="#D8BFA0"/>
<path d="M275.601 261.577C275.601 261.577 156.851 184.735 111.336 213.346C65.8208 241.957 169.494 333.876 197.496 345.161C197.636 344.974 203.115 269.21 275.601 261.577Z" stroke="#D8BFA0" stroke-width="4.6826" stroke-linecap="square" stroke-linejoin="bevel"/>
<path d="M275.601 261.577C203.115 269.209 197.636 344.974 197.636 344.974C197.636 344.974 229.618 370.775 262.865 370.915C291.569 370.915 308.473 360.005 317.979 349.797C327.485 339.589 332.027 325.354 324.863 306.623C315.404 282.414 275.601 261.577 275.601 261.577Z" stroke="#D8BFA0" stroke-width="4.6826" stroke-linecap="square" stroke-linejoin="bevel"/>
<path d="M49.1975 58.3519C50.2515 56.7187 51.4089 55.1546 52.6626 53.6693C47.6407 50.8407 43.2618 46.9992 39.8036 42.3882C36.3454 37.7773 33.8835 32.4978 32.5742 26.8848C30.9322 28.2134 29.3687 29.6362 27.8916 31.146C31.3735 42.5432 38.9672 52.2396 49.1975 58.3519Z" fill="#D8BFA0"/>
<path d="M40.0666 97.9667C40.0666 96.4995 40.0666 95.0479 40.0666 93.6119C40.0666 92.8627 40.0666 92.1135 40.0666 91.3643C34.4288 94.3063 28.1637 95.8427 21.8045 95.8427C15.4452 95.8427 9.18015 94.3063 3.54236 91.3643C3.54236 93.4246 3.54236 95.5318 3.54236 97.6389C9.71423 100.36 16.3712 101.809 23.1156 101.9C28.9826 101.819 34.7636 100.478 40.0666 97.9667Z" fill="#D8BFA0"/>
<path d="M57.9071 142.592C56.7832 140.906 55.6594 139.22 54.5824 137.535C49.8838 142.463 44.1611 146.3 37.8179 148.776C31.4748 151.252 24.6657 152.306 17.8708 151.863L21.0081 157.857C27.8707 157.937 34.6784 156.625 41.0202 154.002C47.362 151.378 53.1065 147.497 57.9071 142.592Z" fill="#D8BFA0"/>
<path d="M87.9228 177.149L83.568 172.888C76.3568 190.542 59.5931 198.127 50.7898 200.984C52.1478 202.67 53.5057 204.262 54.8636 205.666C61.9815 203.326 68.5666 199.602 74.2401 194.708C79.9136 189.814 84.5636 183.847 87.9228 177.149Z" fill="#D8BFA0"/>
<path d="M8.8335 341.977C8.8335 341.977 49.7127 295.76 81.8354 279.886C65.1185 281.057 52.6627 283.023 52.6627 283.023C52.6627 283.023 13.5629 307.326 8.8335 341.977Z" stroke="#D8BFA0" stroke-width="4.6826" stroke-linecap="square" stroke-linejoin="bevel"/>
<path d="M148.797 288.268C148.797 288.268 101.737 291.031 84.13 318.002C84.13 318.002 134.14 297.586 167.387 299.272L148.797 288.268Z" stroke="#D8BFA0" stroke-width="4.6826" stroke-linecap="square" stroke-linejoin="bevel"/>
<path d="M53.5525 381.217C53.5525 381.217 83.3807 330.13 110.352 308.965C95.0872 313.647 83.8958 317.768 83.8958 317.768C83.8958 317.768 51.9604 348.158 53.5525 381.217Z" stroke="#D8BFA0" stroke-width="4.6826" stroke-linecap="square" stroke-linejoin="bevel"/>
<path d="M174.411 306.483C174.411 306.483 128.006 316.317 113.115 345.161C113.115 345.161 159.613 317.066 192.719 314.818L174.411 306.483Z" stroke="#D8BFA0" stroke-width="4.6826" stroke-linecap="square" stroke-linejoin="bevel"/>
<path d="M89.0934 411.701C89.0934 411.701 113.818 357.524 138.542 333.361C123.791 339.589 113.115 345.161 113.115 345.161C113.115 345.161 84.2703 379.017 89.0934 411.701Z" stroke="#D8BFA0" stroke-width="4.6826" stroke-linecap="square" stroke-linejoin="bevel"/>
<path d="M121.169 266.259C121.169 266.259 76.1695 258.954 52.6628 283.023C52.6628 283.023 105.717 272.534 139.993 281.712L121.169 266.259Z" stroke="#D8BFA0" stroke-width="4.6826" stroke-linecap="square" stroke-linejoin="bevel"/>
<path d="M303.323 321.046C310.216 311.161 319.602 303.277 330.529 298.195C302.199 291.124 303.323 318.517 303.323 321.046Z" fill="#D8BFA0"/>
<path d="M290.914 328.304C279.244 330.218 268.326 335.305 259.353 343.007C267.547 312.617 289.275 326.993 290.914 328.304Z" fill="#D8BFA0"/>
</svg>
