<svg width="617" height="450" viewBox="0 0 617 450" fill="none" xmlns="http://www.w3.org/2000/svg">
<path d="M484.263 59.1995V85.1879" stroke="#D8BFA0" stroke-width="4.6826" stroke-linecap="square" stroke-linejoin="bevel"/>
<path d="M497.234 72.1704H471.292" stroke="#D8BFA0" stroke-width="4.6826" stroke-linecap="square" stroke-linejoin="bevel"/>
<path d="M178.489 111.879C178.489 111.879 197.5 113.003 197.5 138.382H198.156C198.156 113.003 217.167 111.879 217.167 111.879V111.223C217.167 111.223 198.156 110.053 198.156 84.7197H197.5C197.5 110.053 178.489 111.223 178.489 111.223V111.879Z" fill="#2C2C2C" stroke="#D8BFA0" stroke-width="4.6826" stroke-linecap="square" stroke-linejoin="bevel"/>
<path d="M374.409 3.19556V29.184" stroke="#D8BFA0" stroke-width="4.6826" stroke-linecap="square" stroke-linejoin="bevel"/>
<path d="M387.38 16.2131H361.438" stroke="#D8BFA0" stroke-width="4.6826" stroke-linecap="square" stroke-linejoin="bevel"/>
<path d="M8.79142 342.169C8.79142 343.3 8.34244 344.383 7.54331 345.182C6.74419 345.982 5.66036 346.431 4.53023 346.431C3.4001 346.431 2.31627 345.982 1.51715 345.182C0.718022 344.383 0.269043 343.3 0.269043 342.169C0.269043 341.039 0.718022 339.955 1.51715 339.156C2.31627 338.357 3.4001 337.908 4.53023 337.908C5.66036 337.908 6.74419 338.357 7.54331 339.156C8.34244 339.955 8.79142 341.039 8.79142 342.169Z" fill="#D8BFA0"/>
<path d="M519.822 242.546C528.745 243.461 537.351 246.589 545.272 251.797C555.279 259.614 564.26 304.463 587.285 288.942C587.285 288.942 566.475 315.53 547.55 291.084C528.625 266.639 511.667 273.017 511.667 273.017" fill="#D8BFA0"/>
<path d="M519.822 242.546C528.745 243.461 537.351 246.589 545.272 251.797C555.279 259.614 564.26 304.463 587.285 288.942C587.285 288.942 566.475 315.53 547.55 291.084C528.625 266.639 511.667 273.017 511.667 273.017" stroke="#D8BFA0" stroke-width="4.6826" stroke-linecap="square" stroke-linejoin="bevel"/>
<path d="M272.844 352.049C271.345 355.421 269.659 358.792 267.693 362.304L264.509 402.294C264.509 402.294 278.79 411.659 301.08 402.294L291.714 368.813C293.06 362.444 294.876 356.183 297.146 350.083C294.149 350.504 291.106 350.879 287.781 351.16C282.583 351.534 277.62 351.862 272.844 352.049Z" fill="#D8BFA0"/>
<path d="M388.683 330.845C387.62 335.777 386.343 340.737 384.773 345.937L388.758 402.163C388.758 402.163 406.791 412.997 430.372 396.482L413.346 351.277C413.665 342.191 414.54 333.184 415.963 324.329C412.633 325.382 409.241 326.377 405.512 327.285C399.668 328.614 394.083 329.842 388.683 330.845Z" fill="#D8BFA0"/>
<path d="M131.523 198.273C107.782 206.648 83.4814 213.345 58.8017 218.314C51.0012 220.126 43.6853 223.604 37.3563 228.511C31.0274 233.417 25.8353 239.635 22.1369 246.738C14.2233 260.786 5.70099 277.971 4.62399 287.008C2.51682 304.334 49.6238 268.98 56.1326 280.733L63.5311 275.817C63.5311 275.817 60.9557 254.745 27.5687 272.726L34.3117 260.036C37.9351 252.908 43.0384 246.634 49.2805 241.636C55.5226 236.637 62.7597 233.029 70.5082 231.051C85.6753 227.409 101.046 224.672 116.538 222.856C147.256 219.579 131.523 198.273 131.523 198.273Z" stroke="#D8BFA0" stroke-width="4.6826" stroke-linecap="square" stroke-linejoin="bevel"/>
<path d="M60.3936 271.79C60.3936 271.79 53.7442 277.877 57.6776 291.738C61.611 305.598 61.2364 315.151 58.2864 321.285C60.4381 320.583 62.3168 319.226 63.66 317.404C65.0032 315.583 65.7439 313.387 65.7786 311.124C65.7559 310.984 65.7559 310.842 65.7786 310.702C66.8088 301.337 67.5111 315.385 67.5111 315.385C67.5111 315.385 72.943 308.97 70.6953 293.704C69.9482 285.415 66.3001 277.654 60.3936 271.79Z" fill="#D8BFA0" stroke="#D8BFA0" stroke-width="4.6826" stroke-miterlimit="10"/>
<path d="M317.328 346.103C307.605 348.424 297.732 350.067 287.781 351.019C203.213 359.308 176.241 322.221 176.241 322.221C163.785 338.938 137.75 342.684 111.481 352.892C85.2113 363.1 76.4548 409.646 76.4548 409.646L85.82 443.126C63.5777 452.491 49.2489 443.126 49.2489 443.126L52.433 403.137C76.2675 361.274 61.7982 328.73 61.7982 328.73C69.9151 321.871 77.1222 314.003 83.2446 305.317C95.9813 288.6 91.205 245.801 118.27 211.103C145.336 176.405 197.032 177.904 197.032 177.904C241.189 161.187 286.423 124.803 315.549 98.2992C325.788 89.0125 338.734 83.2514 352.487 81.8609C366.241 80.4704 380.078 83.5237 391.969 90.5729C433.41 114.735 493.675 157.862 526.172 218.361C526.172 218.361 513.482 267.388 509.596 277.643C509.596 277.643 482.156 304.147 478.597 319.505C478.597 319.505 458.696 326.483 443.992 312.06C442.433 304.703 443.27 297.04 446.381 290.192C441.55 277.938 439.642 264.728 440.808 251.608L429.664 280.453L431.256 318.569C431.256 318.569 410.184 319.974 379.747 341.373C379.747 341.373 369.82 346.477 353.899 338.095L347.343 336.597C339.72 339.768 331.899 342.443 323.93 344.604L317.328 346.103Z" stroke="#D8BFA0" stroke-width="4.6826" stroke-linecap="square" stroke-linejoin="bevel"/>
<path d="M317.328 346.103C307.605 348.424 297.732 350.067 287.781 351.019C203.213 359.308 176.241 322.221 176.241 322.221C163.785 338.938 137.75 342.684 111.481 352.892C85.2113 363.1 76.4548 409.646 76.4548 409.646L85.82 443.126C63.5777 452.491 49.2489 443.126 49.2489 443.126L52.433 403.137C76.2675 361.274 61.7982 328.73 61.7982 328.73C69.9151 321.871 77.1222 314.003 83.2446 305.317C95.9813 288.6 91.205 245.801 118.27 211.103C145.336 176.405 197.032 177.904 197.032 177.904C241.189 161.187 286.423 124.803 315.549 98.2992C325.788 89.0125 338.734 83.2514 352.487 81.8609C366.241 80.4704 380.078 83.5237 391.969 90.5729C433.41 114.735 493.675 157.862 526.172 218.361C526.172 218.361 513.482 267.388 509.596 277.643C509.596 277.643 482.156 304.147 478.597 319.505C478.597 319.505 458.696 326.483 443.992 312.06C442.433 304.703 443.27 297.04 446.381 290.192C441.55 277.938 439.642 264.728 440.808 251.608L429.664 280.453L431.256 318.569C431.256 318.569 410.184 319.974 379.747 341.373C379.747 341.373 369.82 346.477 353.899 338.095L347.343 336.597C339.72 339.768 331.899 342.443 323.93 344.604L317.328 346.103Z" stroke="#D8BFA0" stroke-width="4.6826" stroke-linecap="square" stroke-linejoin="bevel"/>
<path d="M459.492 222.669C452.927 225.374 446.545 228.502 440.387 232.034C434.811 244.938 432.141 258.91 432.567 272.96L440.808 251.561C443.149 234.329 459.492 222.669 459.492 222.669Z" fill="#D8BFA0" stroke="#D8BFA0" stroke-width="4.6826" stroke-linecap="square" stroke-linejoin="bevel"/>
<path d="M524.431 217.011C535.612 216.829 546.738 218.839 557.336 222.954C570.913 229.358 588.884 271.927 615 254.098C615 254.098 593.276 282.431 566.161 260.962C539.047 239.494 519 247.694 519 247.694" stroke="#D8BFA0" stroke-width="4.6826" stroke-linecap="square" stroke-linejoin="bevel"/>
<path d="M489.133 256.01C491.457 262.682 493.196 269.545 494.331 276.519C494.331 276.519 504.024 263.408 489.133 256.01Z" fill="#D8BFA0"/>
<path d="M431.256 314.635L430.179 277.877C430.179 277.877 388.036 222.575 388.036 200.52" stroke="#D8BFA0" stroke-width="4.6826" stroke-linecap="square" stroke-linejoin="bevel"/>
<path d="M196.61 262.659C195.248 283.973 188.215 304.536 176.241 322.221C178.81 325.378 181.786 328.181 185.091 330.556C203.4 291.129 196.61 262.659 196.61 262.659Z" fill="#D8BFA0" stroke="#D8BFA0" stroke-width="4.6826" stroke-linecap="square" stroke-linejoin="bevel"/>
<path d="M357.926 313.231L388.035 296.607L403.956 302.695C383.821 276.004 316.438 266.077 316.438 266.077C306.183 224.964 315.736 204.922 320.184 200.52C315.502 204.501 296.116 223.933 311.849 271.883C311.849 271.883 350.902 277.128 379.56 292.065L358.863 304.521C354.963 301.202 350.184 299.085 345.106 298.429C340.027 297.772 334.867 298.603 330.252 300.822L317.328 346.103L323.79 344.51L335.543 307.658C346.688 302.695 357.926 313.231 357.926 313.231Z" fill="#D8BFA0" stroke="#D8BFA0" stroke-width="4.6826" stroke-linecap="square" stroke-linejoin="bevel"/>
<path d="M216.98 429.266C215.762 428.47 190.851 415.218 190.851 415.218L208.832 403.371L338.025 391.103H448.019H469.559C469.559 391.103 480.376 404.823 479.159 403.792C477.941 402.762 451.391 415.452 451.391 415.452L489.788 414.235C489.788 414.235 504.913 438.35 505.335 439.567C505.55 441.607 505.55 443.663 505.335 445.702H114.478L125.95 429.781H160.648L216.98 429.266Z" fill="#D8BFA0"/>
</svg>
