<svg width="490" height="489" viewBox="0 0 490 489" fill="none" xmlns="http://www.w3.org/2000/svg">
<mask id="mask0_210_1312" style="mask-type:luminance" maskUnits="userSpaceOnUse" x="0" y="0" width="490" height="489">
<path d="M489.144 244.653C489.144 109.786 379.813 0.454987 244.947 0.454987C110.08 0.454987 0.748779 109.786 0.748779 244.653C0.748779 379.52 110.08 488.851 244.947 488.851C379.813 488.851 489.144 379.52 489.144 244.653Z" fill="white"/>
</mask>
<g mask="url(#mask0_210_1312)">
<path d="M289.555 193.166C289.555 193.166 292.786 197.849 310.627 201.782C328.467 205.716 326.454 209.649 326.454 209.649C326.454 209.649 339.191 205.622 341.953 217.516C343.361 216.99 344.863 216.769 346.362 216.866C347.862 216.964 349.323 217.378 350.65 218.081C351.978 218.785 353.141 219.762 354.063 220.948C354.986 222.134 355.646 223.501 356.001 224.961C359.419 236.34 346.121 322.266 339.191 354.388C332.26 386.511 343.124 464.523 344.622 534.154C346.121 603.784 350.569 805.276 357.968 852.571C365.366 899.865 385.595 990.333 385.595 990.333C378.88 991.198 372.082 991.198 365.366 990.333C365.366 990.333 340.689 993.798 318.962 994.313C297.234 994.828 237.672 986.072 227.183 988.928C216.694 991.784 165.185 996.326 150.482 990.38C150.482 990.38 149.639 921.733 159.519 874.345C169.399 826.957 154.555 665.407 162.001 624.949C169.446 584.491 159.987 418.915 159.987 418.915L155.913 360.148C143.879 335.471 155.071 311.777 159.004 283.119C161.435 266.134 160.384 248.832 155.913 232.266C156.439 230.399 157.346 228.661 158.577 227.161C159.807 225.662 161.335 224.433 163.064 223.554C164.793 222.674 166.685 222.162 168.622 222.049C170.558 221.937 172.497 222.227 174.316 222.901C177.586 219.867 181.734 217.948 186.163 217.422C199.508 206.512 204.519 213.723 204.519 213.723C206.31 211.674 208.657 210.19 211.275 209.45C213.894 208.71 216.671 208.747 219.269 209.555C219.269 209.555 233.832 205.154 240.762 202.204" stroke="#D8BFA0" stroke-width="4.6826" stroke-linecap="square" stroke-linejoin="bevel"/>
<path d="M219.269 209.649C223.952 228.052 229.477 263.593 249.378 263.593C308.192 263.593 312.968 202.719 312.968 202.719" stroke="#D8BFA0" stroke-width="4.6826" stroke-linecap="square" stroke-linejoin="bevel"/>
<path d="M331.324 252.729L329.591 253.759C329.823 252.741 329.77 251.679 329.44 250.688C329.11 249.697 328.514 248.816 327.718 248.14C327.718 248.14 326.594 248.655 324.815 249.592C325.517 246.829 325.471 243.738 321.116 245.19C314.56 247.297 297 251.746 282.437 282.136C267.875 312.526 267.734 313.228 259.024 319.175C251.766 323.858 189.956 348.348 167.011 357.338L165.232 263.686C164.928 252.233 161.704 241.047 155.867 231.189C144.16 244.534 142.662 278.624 133.297 321.563C123.931 364.503 116.018 428.28 135.778 430.246C155.539 432.213 279.815 334.253 279.815 334.253C279.815 334.253 297.141 323.389 307.489 296.184C317.838 268.978 326.969 269.024 326.735 263.827L329.872 260.97C331.052 259.992 331.846 258.626 332.112 257.116C332.378 255.607 332.099 254.052 331.324 252.729Z" stroke="#D8BFA0" stroke-width="4.6826" stroke-linecap="square" stroke-linejoin="bevel"/>
<path d="M324.862 249.592C324.862 250.294 308.519 256.381 297.984 270.71" stroke="#D8BFA0" stroke-width="4.6826" stroke-linecap="square" stroke-linejoin="bevel"/>
<path d="M329.638 253.759C319.508 258.875 310.56 266.052 303.369 274.831" stroke="#D8BFA0" stroke-width="4.6826" stroke-linecap="square" stroke-linejoin="bevel"/>
<path d="M326.922 263.827C326.922 263.827 321.631 260.783 309.55 277.874" stroke="#D8BFA0" stroke-width="4.6826" stroke-linecap="square" stroke-linejoin="bevel"/>
<path d="M314.513 236.246C318.996 227.614 322.982 218.734 326.454 209.649" stroke="#D8BFA0" stroke-width="4.6826" stroke-linecap="square" stroke-linejoin="bevel"/>
<path d="M204.519 213.816C204.519 213.816 212.198 279.373 256.308 284.055C263.458 284.763 270.657 283.346 277.005 279.982" stroke="#D8BFA0" stroke-width="4.6826" stroke-linecap="square" stroke-linejoin="bevel"/>
<path d="M256.824 236.246C258.509 232.605 261.05 229.425 264.23 226.979C267.41 224.533 271.135 222.893 275.086 222.198C283.287 220.701 291.085 217.512 297.984 212.833" stroke="#D8BFA0" stroke-width="4.6826" stroke-linecap="square" stroke-linejoin="bevel"/>
<path d="M333.759 236.246C339.19 224.54 341.953 217.516 341.953 217.516" stroke="#D8BFA0" stroke-width="4.6826" stroke-linecap="square" stroke-linejoin="bevel"/>
<path d="M186.163 217.516C186.163 217.516 200.96 308.873 256.824 307.047" stroke="#D8BFA0" stroke-width="4.6826" stroke-linecap="square" stroke-linejoin="bevel"/>
<path d="M174.316 222.994C174.316 222.994 193.937 322.312 244.977 325.637" stroke="#D8BFA0" stroke-width="4.6826" stroke-linecap="square" stroke-linejoin="bevel"/>
<path d="M201.756 392.505C212.854 429.17 225.169 461.807 236.08 471.547" stroke="#D8BFA0" stroke-width="4.6826" stroke-linecap="square" stroke-linejoin="bevel"/>
<path d="M155.914 231.002C155.914 231.002 166.449 233.484 174.316 279.888C177.079 295.949 182.558 321.236 189.488 348.395" stroke="#D8BFA0" stroke-width="4.6826" stroke-linecap="square" stroke-linejoin="bevel"/>
<path d="M186.163 284.196C186.163 284.196 192.531 312.292 201.756 343.618" stroke="#D8BFA0" stroke-width="4.6826" stroke-linecap="square" stroke-linejoin="bevel"/>
<path d="M223.624 376.724C232.193 399.201 242.354 418.306 251.719 418.868" stroke="#D8BFA0" stroke-width="4.6826" stroke-linecap="square" stroke-linejoin="bevel"/>
<path d="M201.756 303.629C201.756 303.629 205.549 319.596 211.449 339.638" stroke="#D8BFA0" stroke-width="4.6826" stroke-linecap="square" stroke-linejoin="bevel"/>
<path d="M240.762 424.112C240.762 424.112 254.81 428.092 266.189 390.538C277.567 352.983 286.277 329.149 286.277 329.149" stroke="#D8BFA0" stroke-width="4.6826" stroke-linecap="square" stroke-linejoin="bevel"/>
<path d="M244.977 380.658C253.259 376.137 259.836 369.034 263.707 360.429" stroke="#D8BFA0" stroke-width="4.6826" stroke-linecap="square" stroke-linejoin="bevel"/>
<path d="M324.862 277.687C301.074 359.071 283.28 420.319 266.189 463.774C249.097 507.229 240.715 529.658 209.67 529.658" stroke="#D8BFA0" stroke-width="4.6826" stroke-linecap="square" stroke-linejoin="bevel"/>
<path d="M193.983 397.702C193.983 397.702 208.593 514.767 236.126 520.761" stroke="#D8BFA0" stroke-width="4.6826" stroke-linecap="square" stroke-linejoin="bevel"/>
<path d="M179.701 407.583C180.169 413.108 180.684 418.68 181.246 424.253C185.929 470.376 198.665 552.696 218.941 560.61" stroke="#D8BFA0" stroke-width="4.6826" stroke-linecap="square" stroke-linejoin="bevel"/>
<path d="M174.316 330.554C174.316 330.554 174.785 339.685 175.674 353.967" stroke="#D8BFA0" stroke-width="4.6826" stroke-linecap="square" stroke-linejoin="bevel"/>
<path d="M166.777 418.68C166.777 418.68 174.831 604.72 221.517 625.792" stroke="#D8BFA0" stroke-width="4.6826" stroke-linecap="square" stroke-linejoin="bevel"/>
<path d="M251.719 462.463C251.719 462.463 261.6 450.522 267.125 424.253" stroke="#D8BFA0" stroke-width="4.6826" stroke-linecap="square" stroke-linejoin="bevel"/>
<path d="M215.008 609.965C215.008 609.965 225.075 626.447 244.976 609.965C264.878 593.482 288.852 568.992 318.259 437.832C324.721 409.034 333.29 382.624 338.254 359.024" stroke="#D8BFA0" stroke-width="4.6826" stroke-linecap="square" stroke-linejoin="bevel"/>
<path d="M227.979 552.041C227.979 552.041 262.911 559.299 291.194 462.463C319.477 365.627 338.02 281.386 338.02 281.386" stroke="#D8BFA0" stroke-width="4.6826" stroke-linecap="square" stroke-linejoin="bevel"/>
<path d="M315.075 451.646C315.075 451.646 318.213 487.889 311.61 603.596C306.131 699.824 308.52 778.726 307.911 839.131" stroke="#D8BFA0" stroke-width="4.6826" stroke-linecap="square" stroke-linejoin="bevel"/>
<path d="M322.895 418.68C322.895 418.68 335.96 488.919 330.06 615.35C326.314 695.235 330.387 785.703 334.04 850.135" stroke="#D8BFA0" stroke-width="4.6826" stroke-linecap="square" stroke-linejoin="bevel"/>
<path d="M261.694 137.958C229.758 205.95 191.736 187.219 191.736 187.219L181.481 139.41L165.888 144.795C167.182 125.266 170.605 105.937 176.096 87.152L172.818 85.8877C172.818 85.8877 151.231 76.1947 154.088 60.6485C157.319 42.7141 172.818 38.0783 197.917 53.9992C202.388 56.7933 207.496 58.4047 212.761 58.6818" stroke="#D8BFA0" stroke-width="4.6826" stroke-linecap="square" stroke-linejoin="bevel"/>
<path d="M186.772 163.806C195.001 161.876 202.894 158.719 210.185 154.441" stroke="#D8BFA0" stroke-width="4.6826" stroke-linecap="square" stroke-linejoin="bevel"/>
<path d="M183.354 112.485C184.431 113.468 193.327 121.616 203.348 109.909" stroke="#D8BFA0" stroke-width="4.6826" stroke-linecap="square" stroke-linejoin="bevel"/>
<path d="M287.635 196.257L288.338 128.593" stroke="#D8BFA0" stroke-width="4.6826" stroke-linecap="square" stroke-linejoin="bevel"/>
<path d="M261.693 137.958C255.928 151.55 247.597 163.903 237.156 174.342C240.595 194.304 241.32 214.639 239.311 234.794" stroke="#D8BFA0" stroke-width="4.6826" stroke-linecap="square" stroke-linejoin="bevel"/>
<path d="M203.348 106.585L217.396 107.241C212.204 110.969 206.231 113.467 199.93 114.545L203.348 106.585Z" fill="#D8BFA0"/>
<path d="M236.876 77.0375C236.876 77.0375 225.965 65.7056 208.546 75.4922C196.886 82.0479 183.353 78.6765 180.45 72.9169" stroke="#D8BFA0" stroke-width="4.6826" stroke-linecap="square" stroke-linejoin="bevel"/>
<path d="M299.107 132.011C299.107 132.011 287.354 121.195 271.012 132.433C259.961 139.972 246.1 136.741 242.916 131.262" stroke="#D8BFA0" stroke-width="4.6826" stroke-linecap="square" stroke-linejoin="bevel"/>
<path d="M249.753 81.3456C249.753 81.3456 242.916 71.6058 229.103 82.7503C219.737 90.2425 210.372 88.4164 208.687 83.1718" stroke="#D8BFA0" stroke-width="4.6826" stroke-linecap="square" stroke-linejoin="bevel"/>
<path d="M260.008 71.8398C258.292 74.9827 257.225 78.4382 256.871 82.0012C256.937 82.6254 257.162 83.2221 257.526 83.7337C257.845 84.2363 258.291 84.6455 258.82 84.9197C259.348 85.1939 259.94 85.3234 260.534 85.2948C261.129 85.2663 261.706 85.0808 262.205 84.7572C262.705 84.4337 263.11 83.9836 263.379 83.4528C263.711 82.8837 263.888 82.2381 263.895 81.5797C263.251 78.1094 261.93 74.7998 260.008 71.8398Z" fill="#D8BFA0"/>
<path d="M250.877 95.4871C251.763 91.9858 253.357 88.703 255.559 85.8409C256.03 85.4326 256.592 85.1436 257.198 84.9981C257.776 84.8331 258.388 84.8255 258.97 84.9764C259.552 85.1272 260.083 85.4309 260.508 85.856C260.933 86.2811 261.237 86.8121 261.387 87.394C261.538 87.9759 261.531 88.5876 261.366 89.1656C261.236 89.8146 260.928 90.4146 260.476 90.8982C257.609 93.0436 254.347 94.603 250.877 95.4871Z" fill="#D8BFA0"/>
<path d="M268.156 74.5558C266.801 77.8691 266.116 81.4184 266.142 84.998C266.299 85.5998 266.587 86.1595 266.985 86.6369C267.357 87.1061 267.848 87.4676 268.407 87.6842C268.965 87.9008 269.571 87.9646 270.163 87.8692C270.754 87.7738 271.309 87.5227 271.771 87.1415C272.233 86.7603 272.585 86.2629 272.791 85.7004C273.073 85.1019 273.186 84.4384 273.119 83.7805C272.071 80.4159 270.386 77.2841 268.156 74.5558Z" fill="#D8BFA0"/>
<path d="M261.975 99.2331C262.42 95.6802 263.583 92.255 265.393 89.1656C265.817 88.7023 266.347 88.3489 266.938 88.1354C267.496 87.8898 268.109 87.7998 268.713 87.875C269.318 87.9502 269.891 88.1877 270.371 88.5623C270.851 88.9369 271.221 89.4346 271.441 90.0025C271.661 90.5705 271.723 91.1874 271.621 91.7878C271.562 92.4426 271.336 93.0714 270.965 93.614C268.369 96.0624 265.313 97.9722 261.975 99.2331Z" fill="#D8BFA0"/>
<path d="M275.601 75.8202C274.751 79.2995 274.608 82.914 275.18 86.4497C275.397 87.0374 275.769 87.5552 276.257 87.9481C276.695 88.3488 277.23 88.6267 277.81 88.7539C278.39 88.8811 278.993 88.853 279.558 88.6725C280.124 88.4919 280.631 88.1654 281.03 87.7258C281.429 87.2861 281.704 86.7491 281.829 86.1688C282.014 85.5262 282.014 84.8446 281.829 84.202C280.295 81.0434 278.183 78.2004 275.601 75.8202Z" fill="#D8BFA0"/>
<path d="M273.166 101.06C273.085 97.4733 273.722 93.9071 275.039 90.5705C275.363 90.0409 275.835 89.6177 276.397 89.353C276.909 89.046 277.494 88.8807 278.092 88.874C278.689 88.8673 279.277 89.0194 279.796 89.3147C280.316 89.61 280.747 90.038 281.047 90.5549C281.346 91.0717 281.503 91.6588 281.501 92.2562C281.527 92.9217 281.382 93.5828 281.08 94.1761C278.914 96.9629 276.226 99.301 273.166 101.06Z" fill="#D8BFA0"/>
<path d="M284.123 75.4924C283.753 79.0688 284.104 82.6831 285.153 86.122C285.459 86.6575 285.893 87.1082 286.417 87.4331C286.903 87.7899 287.475 88.0083 288.075 88.0649C288.674 88.1216 289.278 88.0144 289.821 87.7548C290.364 87.4951 290.827 87.0929 291.159 86.5909C291.492 86.0889 291.682 85.506 291.709 84.9045C291.862 84.2737 291.862 83.6154 291.709 82.9846C289.696 80.0137 287.119 77.4679 284.123 75.4924Z" fill="#D8BFA0"/>
<path d="M285.107 100.872C284.545 97.318 284.705 93.6872 285.575 90.1958C285.848 89.6411 286.249 89.1595 286.746 88.791C287.216 88.421 287.776 88.1829 288.369 88.1011C288.962 88.0193 289.566 88.0968 290.119 88.3256C290.672 88.5544 291.154 88.9264 291.516 89.4031C291.878 89.8799 292.106 90.4444 292.177 91.0387C292.346 91.6675 292.346 92.3297 292.177 92.9585C290.35 96.0258 287.95 98.7125 285.107 100.872Z" fill="#D8BFA0"/>
<path d="M290.679 73.9939C291.077 77.5522 292.192 80.9929 293.957 84.1083C294.35 84.5962 294.868 84.9684 295.455 85.1853C296.009 85.4273 296.617 85.5162 297.216 85.4428C297.816 85.3693 298.384 85.1362 298.863 84.7677C299.342 84.3992 299.712 83.9089 299.937 83.3481C300.161 82.7873 300.23 82.1765 300.138 81.5797C300.094 80.9073 299.867 80.2597 299.482 79.7067C296.952 77.2415 293.961 75.3001 290.679 73.9939Z" fill="#D8BFA0"/>
<path d="M297.047 98.5308C295.74 95.1925 295.119 91.6252 295.221 88.0417C295.377 87.4399 295.665 86.8802 296.064 86.4028C296.451 85.9492 296.949 85.6047 297.51 85.4033C298.071 85.2019 298.675 85.1508 299.262 85.255C299.849 85.3591 300.398 85.6149 300.856 85.9969C301.313 86.379 301.663 86.874 301.87 87.4329C302.114 88.0419 302.21 88.6997 302.151 89.3528C301.051 92.7098 299.319 95.8253 297.047 98.5308Z" fill="#D8BFA0"/>
<path d="M243.057 77.7868C245.075 80.7401 247.652 83.2694 250.643 85.2321C251.242 85.3809 251.869 85.3809 252.469 85.2321C253.198 85.1007 253.867 84.7452 254.384 84.215C254.902 83.6849 255.241 83.0066 255.354 82.2747C255.467 81.5428 255.35 80.7938 255.017 80.1321C254.685 79.4703 254.154 78.9287 253.499 78.5829C250.105 77.6306 246.556 77.36 243.057 77.7868Z" fill="#D8BFA0"/>
<path d="M255.325 83.3592C255.325 83.3592 280.611 96.8451 304.539 81.7671" stroke="#D8BFA0" stroke-width="4.6826" stroke-linecap="square" stroke-linejoin="bevel"/>
<path d="M176.517 252.729C177.112 253.042 177.69 253.386 178.249 253.759C178.029 252.736 178.091 251.673 178.429 250.683C178.767 249.693 179.369 248.814 180.169 248.14C180.169 248.14 181.293 248.655 183.072 249.592C182.37 246.829 182.37 243.738 186.725 245.19C193.327 247.297 210.84 251.746 225.45 282.136C240.06 312.526 240.153 313.228 249.097 319.175C256.355 323.858 318.119 348.348 341.11 357.338L342.89 263.686C343.123 252.254 346.265 241.07 352.021 231.189C363.727 244.534 365.179 278.624 374.591 321.563C384.003 364.503 391.87 428.28 372.109 430.247C352.349 432.213 227.885 334.44 227.885 334.44C227.885 334.44 210.606 323.577 200.257 296.371C189.909 269.165 180.731 269.212 180.965 264.014L177.875 261.158C176.679 260.147 175.885 258.741 175.636 257.195C175.387 255.649 175.699 254.065 176.517 252.729Z" stroke="#D8BFA0" stroke-width="4.6826" stroke-linecap="square" stroke-linejoin="bevel"/>
<path d="M183.073 249.592C183.073 250.294 199.415 256.381 209.951 270.71" stroke="#D8BFA0" stroke-width="4.6826" stroke-linecap="square" stroke-linejoin="bevel"/>
<path d="M178.25 253.759C188.389 258.881 197.351 266.057 204.566 274.831" stroke="#D8BFA0" stroke-width="4.6826" stroke-linecap="square" stroke-linejoin="bevel"/>
<path d="M180.965 263.827C180.965 263.827 186.304 260.783 198.385 277.874" stroke="#D8BFA0" stroke-width="4.6826" stroke-linecap="square" stroke-linejoin="bevel"/>
<path d="M156.482 152.618L156.483 152.617C162.682 144.539 165.051 138.492 165.024 133.184C164.999 128.396 162.98 124.566 161.159 121.113C160.989 120.789 160.82 120.469 160.655 120.151C158.68 116.358 156.921 112.552 156.973 107.171C157.026 101.733 158.941 94.3837 165.038 83.682L165.039 83.6803C168.158 78.1955 172.826 73.3595 177.841 68.7236C179.287 67.3876 180.777 66.0551 182.263 64.7267C185.806 61.5595 189.323 58.4155 192.141 55.3022C193.94 53.3733 196.016 51.559 198.346 49.8896L198.36 49.8795L198.374 49.8692C216.57 36.4412 247.33 26.8936 276.586 39.1781C292.426 45.8576 301.339 57.6235 305.352 71.0328L305.354 71.0402L305.356 71.0476C307.888 79.3218 309.866 84.7781 315.867 91.3076C321.692 97.646 331.306 104.999 348.825 117.497C356.746 123.163 361.133 130.262 362.226 137.152C363.311 144.001 361.188 150.881 355.625 156.376C340.726 171.032 318.692 180.82 294.318 186.471C269.978 192.115 243.534 193.578 220.064 191.767C196.522 189.95 176.282 184.863 164.174 177.648C158.11 174.033 154.424 170.089 153.086 166.084C151.805 162.25 152.498 157.805 156.482 152.618Z" stroke="#D8BFA0" stroke-width="5"/>
<path d="M65.4486 335.354V361.295" stroke="#D8BFA0" stroke-width="4.6826" stroke-linecap="square" stroke-linejoin="bevel"/>
<path d="M78.4193 348.324H52.4777" stroke="#D8BFA0" stroke-width="4.6826" stroke-linecap="square" stroke-linejoin="bevel"/>
<path d="M398.053 388.454C398.053 388.454 417.065 389.578 417.065 414.911H417.674C417.674 389.578 436.685 388.454 436.685 388.454V387.798C436.685 387.798 417.674 386.628 417.674 361.295H417.065C417.065 386.628 398.053 387.798 398.053 387.798V388.454Z" stroke="#D8BFA0" stroke-width="4.6826" stroke-linecap="square" stroke-linejoin="bevel"/>
<path d="M409.292 75.0942V101.036" stroke="#D8BFA0" stroke-width="4.6826" stroke-linecap="square" stroke-linejoin="bevel"/>
<path d="M422.263 88.0649H396.322" stroke="#D8BFA0" stroke-width="4.6826" stroke-linecap="square" stroke-linejoin="bevel"/>
<path d="M96.2602 404.047C96.2602 404.89 96.0102 405.714 95.542 406.414C95.0738 407.115 94.4083 407.661 93.6296 407.984C92.851 408.306 91.9942 408.391 91.1676 408.226C90.3411 408.062 89.5818 407.656 88.9859 407.06C88.39 406.464 87.9841 405.705 87.8197 404.878C87.6552 404.052 87.7397 403.195 88.0622 402.416C88.3847 401.638 88.9308 400.972 89.6316 400.504C90.3323 400.036 91.1562 399.786 91.999 399.786C93.1291 399.786 94.2129 400.235 95.0121 401.034C95.8112 401.833 96.2602 402.917 96.2602 404.047Z" fill="#D8BFA0"/>
</g>
</svg>
